<svg width="24" height="24" viewBox="0 0 24 24" fill="none" xmlns="http://www.w3.org/2000/svg">
<path fill-rule="evenodd" clip-rule="evenodd" d="M4 0C1.78906 0 0 1.78906 0 4V20C0 22.2109 1.78906 24 4 24H20C21.1875 24 22.2539 23.4844 22.9883 22.6641C23.6172 21.957 24 21.0234 24 20V4C24 1.78906 22.2109 0 20 0H4ZM21 16.25V5.75C21 5.1875 20.4062 4.83203 19.9141 5.07812L15.9141 7.07812C15.7891 7.14062 15.6836 7.23828 15.6133 7.35547C15.5664 7.43359 15.5352 7.51562 15.5156 7.60547C15.5039 7.65234 15.5 7.69922 15.5 7.75V18.25C15.5 18.8125 16.0938 19.168 16.5859 18.9219L20.5859 16.9219C20.7109 16.8594 20.8164 16.7617 20.8867 16.6445C20.9219 16.5859 20.9492 16.5273 20.9688 16.4648C20.9883 16.3945 21 16.3242 21 16.25ZM10.0547 5.06641L14.5547 7.06641C14.6875 7.125 14.8008 7.21875 14.8789 7.34375C14.9141 7.39844 14.9414 7.46094 14.9648 7.52344C14.9883 7.59766 15 7.67188 15 7.75V18.25C15 18.7969 14.4375 19.1523 13.9453 18.9336L9.44531 16.9336C9.3125 16.875 9.19922 16.7812 9.12109 16.6562C9.04297 16.5352 9 16.3945 9 16.25V5.75C9 5.42578 9.19922 5.16797 9.46484 5.05859C9.64453 4.98438 9.85547 4.97656 10.0547 5.06641ZM3.41406 7.07812L7.41406 5.07812C7.90625 4.83203 8.5 5.1875 8.5 5.75V16.25C8.5 16.3906 8.46094 16.5273 8.38672 16.6445C8.31641 16.7617 8.21094 16.8594 8.08594 16.9219L4.08594 18.9219C3.59375 19.168 3 18.8125 3 18.25V7.75L3.01172 7.63281C3.02734 7.53125 3.0625 7.4375 3.11328 7.35547C3.18359 7.23828 3.28906 7.14062 3.41406 7.07812Z" fill="white" fill-opacity="0.75"/>
</svg>
