<svg width="30" height="30" viewBox="0 0 30 30" fill="none" xmlns="http://www.w3.org/2000/svg">
<circle cx="15" cy="15" r="14.5" stroke="#219653"/>
<path d="M23 22.2883L21.8548 9.39264C21.8302 9.10634 21.5889 8.88957 21.3067 8.88957H18.9509C18.9182 6.73824 17.1595 5 15 5C12.8404 5 11.0818 6.73824 11.049 8.88957H8.69321C8.40691 8.88957 8.16969 9.10634 8.14515 9.39264L6.99995 22.2883C6.99995 22.3047 6.99586 22.3211 6.99586 22.3374C6.99586 23.8057 8.34147 25 9.99791 25H20.002C21.6584 25 23.004 23.8057 23.004 22.3374C23.004 22.3211 23.004 22.3047 23 22.2883ZM15 6.10429C16.5501 6.10429 17.8139 7.34765 17.8466 8.88957H12.1533C12.186 7.34765 13.4499 6.10429 15 6.10429ZM20.002 23.8957H9.99791C8.95905 23.8957 22.5164 24.3466 22.5 23.5L21 9.99795H11.0449V11.6748C11.0449 11.9816 11.2903 12.227 11.5971 12.227C11.9038 12.227 12.1492 11.9816 12.1492 11.6748V9.99795H17.8466V11.6748C17.8466 11.9816 18.092 12.227 18.3987 12.227C18.7055 12.227 18.9509 11.9816 18.9509 11.6748V9.99795H20.7995L21.8998 22.362C21.8834 23.2086 21.0368 23.8957 20.002 23.8957Z" fill="#219653"/>
<path d="M18 10H19V12.5C19 12.7761 18.7761 13 18.5 13C18.2239 13 18 12.7761 18 12.5V10Z" fill="white"/>
<path d="M11 10H12V12.5C12 12.7761 11.7761 13 11.5 13C11.2239 13 11 12.7761 11 12.5V10Z" fill="white"/>
</svg>
