<svg width="15" height="15" viewBox="0 0 15 15" fill="none" xmlns="http://www.w3.org/2000/svg">
<g clip-path="url(#clip0)">
<path d="M13.65 0H1.35C0.604416 0 0 0.604416 0 1.35V13.65C0 14.3956 0.604416 15 1.35 15H13.65C14.3956 15 15 14.3956 15 13.65V1.35C15 0.604416 14.3956 0 13.65 0Z" fill="#E30613"/>
<path d="M6.14493 9.15046H5.21613V6.80686L4.30353 9.15046H3.89313L2.98593 6.80686V9.15046H2.05713V5.54866H3.34773L4.09833 7.50346L4.85433 5.54866H6.14493V9.15046ZM8.52609 9.15046H7.59729V6.35866H6.58749V5.54866H9.53049V6.35866H8.52609V9.15046ZM11.6171 9.21526C11.0591 9.21526 10.5947 9.04246 10.2239 8.69686C9.85308 8.34766 9.66768 7.89946 9.66768 7.35226C9.66768 6.80146 9.85128 6.35326 10.2185 6.00766C10.5893 5.66206 11.0555 5.48926 11.6171 5.48926C12.3407 5.48926 12.8645 5.81146 13.1885 6.45586L12.3893 6.83386C12.3281 6.68626 12.2255 6.56206 12.0815 6.46126C11.9411 6.36046 11.7863 6.31006 11.6171 6.31006C11.3255 6.31006 11.0843 6.41086 10.8935 6.61246C10.7063 6.81046 10.6127 7.05706 10.6127 7.35226C10.6127 7.64746 10.7063 7.89586 10.8935 8.09746C11.0843 8.29546 11.3255 8.39446 11.6171 8.39446C11.7863 8.39446 11.9411 8.34406 12.0815 8.24326C12.2255 8.14246 12.3281 8.01826 12.3893 7.87066L13.1885 8.24866C13.0517 8.52226 12.8537 8.75266 12.5945 8.93986C12.3389 9.12346 12.0131 9.21526 11.6171 9.21526Z" fill="white"/>
</g>
<defs>
<clipPath id="clip0">
<rect width="15" height="15" fill="white"/>
</clipPath>
</defs>
</svg>
