<?xml version="1.0" encoding="utf-8"?>
<!-- Generator: Adobe Illustrator 22.0.1, SVG Export Plug-In . SVG Version: 6.00 Build 0)  -->
<svg version="1.1" id="Слой_3" xmlns="http://www.w3.org/2000/svg" xmlns:xlink="http://www.w3.org/1999/xlink" x="0px" y="0px"
	 viewBox="0 0 71 60.4" style="enable-background:new 0 0 71 60.4;" xml:space="preserve">
<style type="text/css">
	.st0{fill:url(#SVGID_1_);}
</style>
<linearGradient id="SVGID_1_" gradientUnits="userSpaceOnUse" x1="6.5279" y1="51.6376" x2="64.8612" y2="12.6376">
	<stop  offset="5.897436e-02" style="stop-color:#FFB54F"/>
	<stop  offset="0.1292" style="stop-color:#FFBD64"/>
	<stop  offset="0.2582" style="stop-color:#FFCA85"/>
	<stop  offset="0.3659" style="stop-color:#FFD199"/>
	<stop  offset="0.4385" style="stop-color:#FFD4A0"/>
	<stop  offset="0.6795" style="stop-color:#FFEBBC"/>
	<stop  offset="1" style="stop-color:#FFB24F"/>
</linearGradient>
<path class="st0" d="M70.2,14.5c0-0.5-0.1-0.6-0.1-1c0-0.8,0.1-0.8,0-1.1c-0.1-0.3-0.3-0.4-1.4-1c-1.5-0.7-1.5-0.7-1.9-1
	c-0.5-0.3-0.3-0.4-1.2-1.1c-0.4-0.4-0.6-0.5-0.7-0.8c-0.1-0.3-0.2-0.7-0.1-1.2c0-0.1,0-0.2,0-0.5c0-0.2,0-0.3-0.1-0.5
	c-0.1-0.2-0.3-0.4-0.4-0.4c-0.2-0.1-0.3-0.1-0.4-0.1c0.8-0.2,1.6-0.5,2.3-1.1c0.1-0.1,0.1-0.1,0.2-0.2c0.1-0.2,0.2-0.4,0.2-0.5
	c0.1-0.2,0.1-0.5,0-0.8c0-0.1-0.1-0.1-0.1-0.2c-0.3-0.4-0.5-0.9-0.8-1.3c-0.2-0.3-0.4-0.7-0.6-1c0,0.5,0.1,1.1,0.1,1.6
	c0.1,0.2,0,0.4,0,0.5c0,0.2-0.1,0.3-0.1,0.3c0,0-0.1,0.1-0.1,0.1c-0.2,0.1-0.6,0.2-0.9,0.2c-0.4,0.1-0.8,0.1-1.1,0.1
	c0.8,0.1,1.3,0.2,1.6,0.2c0,0,0.2,0,0.4,0c0.1,0,0.2,0,0.2-0.1c0.2-0.1,0.2-0.3,0.2-0.4c0-0.1,0-0.2,0-0.5c0-0.2-0.1-0.6-0.1-0.9
	c0-0.1,0-0.1,0.1-0.2c0.1,0,0.2,0.1,0.2,0.1c0.1,0.1,0.2,0.3,0.3,0.6C66,2.6,66,2.7,66.1,2.8c0.1,0.3,0.2,0.3,0.2,0.4
	c0.1,0.1,0.1,0.4,0,0.7c0,0.1-0.1,0.3-0.3,0.4c0,0-0.1,0.1-0.4,0.2c-0.1,0-0.3,0.1-0.9,0.2c-0.3,0-0.5,0.1-0.6,0.1
	c-0.3,0-0.5,0-0.8-0.1c-0.4-0.1-0.7-0.2-1-0.3c-0.2-0.1-0.5-0.2-0.8-0.4c-0.1-0.2-0.2-0.5-0.3-0.7c-0.2-0.2-0.5-0.4-1-0.6
	c-0.5-0.2-1-0.3-1.2-0.3c-0.3,0-0.6,0-1.3,0.2c-0.7,0.1-1,0.2-1.4,0.3c-0.3,0.1-0.6,0.2-1.1,0.3c-0.3,0.1-0.4,0.1-0.5,0.2
	c-0.4,0.1-0.9,0.3-1.6,0.4c-0.1-0.5,0-0.8,0.1-0.9c0.2-0.3,0.5-0.4,0.9-0.6c0.1-0.1,0.2-0.1,0.3-0.1c1.1-0.3,2.2-0.6,3.2-0.8
	c0.2-0.1,0.4-0.1,0.6-0.2c-0.1-0.1-0.1-0.1-0.3-0.2c-0.4-0.3-0.8-0.3-1.2-0.3c-1.1-0.1-1.7,0-1.7,0c-0.6,0.1-1.2,0.1-2,0.3
	c-1.2,0.3-2.4,0.6-3,1.6C50.1,2.7,50,2.8,49.9,3c-0.2,0.4-0.6,1.3-0.3,2.1l0.4-0.1L51,5l0.9,0.1l0.9,0.2l0.5,0.1l0.4,0.3l0.6,0.4
	l0.4,0.5l0.3,0.5L55,7.5l-0.3,0.3l-0.3,0l-0.2-0.1l-0.2-0.4l-0.3-0.6l-0.4-0.4L53,6l-0.7-0.2l-0.7-0.1l-0.9-0.1l-1.2,0.1l-0.8,0.2
	L48.2,6l-0.5,0.2l-0.1,0.2l0.2,0.5l0.5,0.7l0.5,0.5l0.5,0.3L50,8.6l0.7,0.2L51.4,9h0.5l0.5-0.1l0.5-0.1h0.6l0.3,0L54.1,9l0.3,0.2
	l0.1,0.2l0,0.2l-0.2,0.2l-0.7,0.4l0.1-0.3l-0.1-0.3l-0.1-0.2l-0.2-0.1L53,9.2l-0.6,0l-0.7,0.1l-0.7,0l-0.6-0.1l-0.7-0.2L49,8.6
	l-0.6-0.4l-0.4-0.4l-0.3-0.4c-0.2,0.1-0.4,0.2-0.7,0.3c-0.6,0.2-1,0.3-1.6,0.4c-0.5,0.1-0.8,0.1-1.2,0.1c-0.2,0-0.5,0-1.2-0.1
	c-1-0.2-1.1-0.3-2.1-0.5c-0.7-0.1-1-0.2-1.5-0.1c-0.4,0.1-0.8,0.2-1.3,0.5c-0.5,0.3-0.8,0.5-1.3,0.7c-0.8,0.5-1.2,0.8-1.8,1
	c-1.6,0.6-3,0.3-3.3,0.1c0,0-0.2-0.1-0.4-0.2c-0.1-0.1-0.3-0.1-0.4-0.2c-0.1,0-0.1,0-0.2-0.1c-0.1-0.1-0.1-0.1-0.2-0.2
	c-0.1-0.1-0.1-0.1-0.2-0.2c-0.1-0.2-0.1-0.2-0.2-0.5c0,0-0.1-0.1-0.2-0.3c-0.1-0.1-0.2-0.2-0.2-0.2c-0.2-0.2-0.4-0.3-0.5-0.3
	c0,0-0.2,0-0.4,0c-0.1,0-0.2,0-0.3,0c-0.2,0-0.3,0-0.3,0c-0.4,0-1.4-0.1-2-0.1c-0.6,0-1.2,0-1.9,0c-0.4,0-0.7,0-1.1,0
	c-0.6,0-0.9-0.1-1.1-0.1c-0.3-0.1-0.3-0.1-0.7-0.2C21.1,7.1,20.7,7,20.2,7c-0.6,0-1.1,0.2-1.3,0.3c-0.4,0.1-0.7,0.3-0.9,0.4
	c-0.3,0.1-0.4,0.2-0.4,0.2c-0.2,0.1-0.3,0.3-0.9,1.2c-0.1,0.1-0.2,0.2-0.3,0.4c-0.2,0.2-0.4,0.3-0.5,0.3c-0.1,0-0.1,0.1-0.2,0.1
	c-0.5,0.2-1.1,0.3-1.5,0.4c-0.1,0-0.3,0.1-0.5,0.1c-0.4,0.1-0.6,0.3-0.9,0.5c-0.4,0.3-0.7,0.6-0.9,0.8c-0.4,0.4-0.5,0.6-0.7,0.9
	c0,0.1-0.2,0.4-0.3,0.9c-0.1,0.4-0.1,0.7,0,1c0,0.3,0.1,0.7,0.2,1.2c0,0.2,0.1,0.3,0.1,0.4c0,0.1,0.1,0.1,0.1,0.3
	c0,0,0.1,0.1,0.1,0.3c0.1,0.3,0,0.7-0.1,1.2c-0.1,0.6-0.1,0.5-0.1,0.8c0,0.2-0.1,0.5-0.2,0.8c-0.1,0.4-0.1,0.5-0.2,0.7
	c-0.1,0.5-0.1,0.6-0.2,1.1c-0.1,0.5-0.2,1-0.4,1.6c-0.1,0.3-0.2,0.3-0.3,0.7c-0.1,0.3-0.2,0.5-0.3,0.9c-0.1,0.2-0.2,0.5-0.3,1
	c-0.1,0.3-0.3,0.7-0.5,1.2c-0.2,0.5-0.3,0.7-0.4,0.8c-0.1,0.2-0.2,0.4-0.4,0.6c-0.1,0.2-0.2,0.3-0.3,0.4c-0.2,0.4-0.5,0.6-0.7,1
	c-0.7,0.9-0.8,1.1-1,1.3c-0.3,0.4-0.3,0.3-0.8,0.9c-0.4,0.4-0.6,0.7-0.7,0.9c-0.2,0.2-0.1,0.2-0.3,0.5c-0.2,0.3-0.3,0.4-0.6,0.8
	c-0.2,0.3-0.2,0.3-0.3,0.4C3.1,34.4,3,34.6,3,34.7c-0.1,0.2-0.1,0.3-0.2,0.5c-0.1,0.2-0.1,0.3-0.1,0.4c0,0.2-0.1,0.4-0.2,0.5
	c-0.2,0.6-0.5,1.2-0.8,1.7c-0.1,0.2-0.2,0.3-0.3,0.5c-0.1,0.1-0.2,0.3-0.3,0.5C1.1,39.1,1,39.1,1,39.2c-0.1,0.3-0.2,0.5-0.2,0.7
	c0,0.4,0,0.7,0,0.7c0.1,0.3,0.2,0.5,0.2,0.6c1.1,2.2,2.4,2.9,2.4,2.9c0.9,0.5,1.8,0.6,2.4,0.6c-0.3-0.2-0.6-0.5-0.9-0.8
	c-0.4-0.4-0.6-0.9-0.8-1.2c0.2,0.2,0.5,0.5,1,0.6c0.3,0.1,0.5,0.1,0.7,0.1c-0.5-0.3-1.3-1-1.8-2c-0.6-1.2-0.5-2.2-0.5-3.5
	c0-1.4,0.3-2.4,0.6-3.2c0.2-0.7,0.3-1,0.6-1.5c0.5-0.8,0.9-0.8,1.7-1.8C6.9,31,7.1,30.7,7.6,30c0.7-0.9,0.8-1.3,0.9-1.4
	c0.1-0.2,0.1-0.2,0.5-1.1c0.2-0.4,0.2-0.5,0.3-0.8c0.2-0.4,0.3-0.7,0.3-0.9c0.1,3.6,0.4,5.1,0.7,5.7c0,0.1,0.3,0.6,0.6,1.4
	c0.1,0.3,0.3,0.7,0.4,1.1c0.4,0.9,0.5,1.4,0.7,2.1c0.1,0.5,0.2,0.8,0.2,1.1c-0.3,0.9-0.4,1.7-0.4,2.2c0,0.4,0,0.8,0.2,1.3
	c0.3,0.8,0.7,0.9,1,1.8c0.1,0.3,0.2,0.7,0.3,1.4c0.1,0.6,0.2,1.3,0.3,2.1c0,0.8-0.1,1.2-0.4,2.6c-0.1,0.7-0.3,1.7-0.5,3
	c-0.1,0.2-0.2,0.7,0,1.2c0.1,0.2,0.3,0.3,0.5,0.5c0.5,0.4,1,0.4,2,0.8c0.3,0.1,0.5,0.2,0.6,0.2c0.4-0.1,0.8-0.2,1.2-0.3
	c0.3-0.4,0.6-0.8,1-1.1c0.1-0.2,0.1-0.5,0-0.8c-0.1-0.2-0.2-0.3-0.4-0.7c-0.2-0.3-0.4-0.6-0.5-0.9c-0.2-0.5-0.2-0.6-0.5-1.1
	c-0.1-0.2-0.3-0.6-0.5-1C16,48.1,16,48.1,15.9,48c-0.2-0.4-0.2-0.7-0.2-1c0-0.8,0-1.4,0-1.5c0-0.3,0.1-0.8,0.2-1.4
	c0.1-0.3,0.2-0.8,0.4-1.3c0.3-0.6,0.6-1,0.8-1.3c0.1-0.3,0.1-0.5,0.1-0.7c0-0.3,0-0.5-0.1-0.7c0-0.1-0.2-0.2-0.4-0.5
	c-0.2-0.2-0.3-0.3-0.5-0.5C16.1,39,16.1,39,16,38.9c-0.1-0.1-0.1-0.3-0.1-0.6c0.1-0.5,0.2-0.9,0.3-1c0.2-0.5,0.5-0.9,0.8-1.2
	c0.1-0.1,0.2-0.2,0.3-0.4c0.1-0.2,0.1-0.2,0.2-0.3c0.1-0.1,0.2-0.3,0.5-0.4c0.1,0,0.2,0.1,0.3,0.2c0.6,0.4,1.2,0.8,1.9,1.1
	c0.9,0.4,1.7,0.7,2.7,0.9c0.2,0.1,0.4,0.1,0.5,0.1c0.1,0.2,0.2,0.5,0.3,0.9c0,0.4-0.1,0.8-0.1,0.9c-0.1,0.2-0.3,0.4-0.4,0.7
	c-0.1,0.3-0.4,0.9-0.1,1.5c0,0,0,0,0.5,0.8c0.3,0.4,0.4,0.6,0.6,0.9c0.2,0.3,0.2,0.2,0.3,0.4c0.4,0.5,0.4,0.6,0.7,1.1
	c0.3,0.5,0.4,0.4,0.5,0.7c0.1,0.2,0.1,0.2,0.4,1c0.2,0.6,0.2,0.6,0.2,0.6c0.1,0.4,0,0.5-0.1,1.2c0,0.3,0,0.5,0,0.7
	c0.1,0.3,0.2,0.6,0.3,0.8c0,0.6,0.1,1.2,0.1,1.7c1.2,0.7,2.3,1.4,3.5,2.1c0.1,0,0.3-0.1,0.4-0.1c0.8-0.9,0.7-1.4,0.6-1.6
	c-0.1-0.2-0.3-0.5-0.8-1c-0.7-0.7-0.6-0.7-0.8-0.8c-0.3-0.4-0.4-0.6-0.9-1.3c-0.3-0.4-0.3-0.3-0.3-0.4C28,47.9,28,47.7,27.8,47
	c-0.1-0.2-0.1-0.2-0.1-0.3c0-0.1-0.1-0.3-0.1-0.9c0-0.2,0-0.3,0-0.5c0-0.1,0-0.4,0.1-0.9c0-0.3,0.1-0.5,0.1-0.8
	c0.1-0.6,0.1-0.5,0.2-0.8c0.1-0.3,0.2-0.9-0.1-1.6c-0.1-0.2-0.1-0.4-0.2-0.5c0.2-0.2,0.6-0.6,0.8-1.1c0.2-0.5,0.2-1,0.2-1.2
	c1.2,0.2,2,0.2,2.5,0.1c0.1,0,0.4-0.1,0.9-0.1c0.9-0.1,1-0.1,1.1-0.1c0.2,0.2-0.2,0.6-0.3,1.5c-0.1,0.4,0,0.7,0,1.2
	c0.1,1.1,0.4,1.8,0.4,2c0.2,0.5,0.3,0.8,0.5,1.1c0,0.1,0,0.2,0,0.3c-0.1,0.1-0.2,0.3-0.3,0.6c-0.1,0.3-0.4,0.9-0.3,1.8
	c0,0.3,0.1,0.5,0.2,1c0.2,0.6,0.4,1.1,0.6,1.4c0,1,0.1,2,0.2,3.1c0,0.3,0.1,0.5,0.1,0.8c0,0.2-0.1,0.4-0.1,0.7
	C34.1,54,34,54.2,34,54.4c-0.4,0.5-0.8,1.1-1.2,1.6c-0.1,0.1-0.4,0.5-0.3,1.1c0,0.2,0.1,0.3,0.1,0.4c0.3,0.3,0.5,0.6,0.8,0.9
	c0.4,0.5,0.8,1,1.2,1.4c0.5-0.1,1.1-0.2,1.6-0.2c0.5-0.8,0.9-1.3,1.2-1.6c0.1-0.2,0.4-0.4,0.4-0.8c0.1-0.3,0-0.5-0.1-0.8
	c-0.2-0.6-0.3-1.2-0.6-1.8c-0.2-0.6-0.3-0.8-0.4-1.2c-0.1-0.3-0.1-0.6-0.1-0.7c0-0.4,0-0.9,0-1.3c0.4-1.3,0.7-2.5,1.1-3.8
	c-0.1-0.7-0.2-1.3-0.2-2c0.1-0.4,0.2-0.7,0.2-1.1c0.3-0.5,0.5-1,0.6-1.3c0.2-0.5,0.3-0.7,0.4-0.9c0.1-0.2,0.2-0.4,0.3-0.8
	c0.1-0.3,0.2-0.6,0.3-0.7c0.2,0.1,0.4,0.2,0.7,0.2c0.3,0.2,0.5,0.4,0.8,0.6c0.3,0.2,0.5,0.4,0.8,0.5c0.6,0.3,1.2,0.6,1.8,0.9
	c0.3,0.1,0.6,0.1,0.8,0.2c0.3-0.1,0.6-0.1,0.9-0.2c0.2-0.1,0.4-0.2,0.6-0.3c0.1-0.1,0.3-0.2,0.7-0.8c0.1-0.2,0.3-0.5,0.5-0.8
	c0.1,0.1,0.1,0.2,0.2,0.3c0.1,0.3,0.2,0.6,0.2,0.8c-0.1,0.7-0.2,1.4-0.3,2.1c0,0.2,0,0.5,0.1,0.8c0,0.2,0.1,0.3,0.2,0.5
	c0.1,0.1,0.2,0.2,0.4,0.4c0.2,0.2,0.4,0.2,0.5,0.3c0.2,0.7,0.4,1.5,0.7,2.2c0,0.3,0,0.7-0.1,1.2c0,0.4-0.1,0.9-0.3,1.6
	c-0.1,0.4-0.2,0.9-0.5,1.4c0,0.1,0.1,0.3,0.1,0.4c0,0.1,0.1,0.2,0.1,0.3c-0.1,0.2-0.1,0.5-0.1,0.9c0,0.2,0,0.5,0.1,0.9
	c0.2,0.4,0.4,0.7,0.6,0.8c0.1,0.1,0.4,0.4,1,0.7c0.7,0.3,1.4,0.4,2.2,0.5c0.5,0,0.9,0.1,1.2,0.1c0.2-0.2,0.3-0.4,0.5-0.6
	c0-0.2,0-0.3,0-0.5c-0.6-1.2-1.1-2.4-1.7-3.5c-0.3-0.5-0.5-1.1-0.8-1.6c0-1.8,0-3.6-0.1-5.3c-0.1-0.9-0.2-1.8-0.3-2.8
	c0-0.5-0.1-1.1-0.1-1.6c0.3-1.4,0.5-2.8,0.8-4.3c0.4-0.7,0.8-1.5,1.3-2.2c0.4-0.3,0.6-0.6,0.7-0.7c0.2-0.5,0.1-0.9,0.1-1.2
	c-0.1-0.3-0.1-0.3-0.2-0.8c0-0.2-0.1-0.4-0.1-0.9c-0.1-0.6-0.1-0.8-0.2-1.2c0-0.2-0.1-0.3-0.1-0.4c0.4-0.8,0.7-1.5,0.8-2
	c0.3-0.7,0.5-1.6,1-3.2c0.2-0.6,0.3-1.1,0.6-1.7c0.4-0.7,0.7-1.1,0.8-1.2c0.1-0.1,0.4-0.4,0.9-0.8c0.5-0.4,0.9-0.7,1.4-1
	c0.1,0,0.1-0.1,0.2-0.1c0.9,0,1.5-0.1,1.9-0.2c0.3-0.1,1.1-0.4,1.6-0.6c0.3-0.1,0.5-0.2,0.9-0.3c0.4-0.1,0.7,0,1,0
	c0.7,0.1,1.1-0.1,1.7-0.2c0.7-0.1,1.7-0.3,3.6-0.4c0-0.1,0.1-0.1,0.1-0.2c0.4-0.7,0.5-1,0.5-1c0-0.1,0-0.1,0.1-0.4
	c0.1-0.3,0.1-0.5,0.2-0.6C70.2,15.2,70.2,14.9,70.2,14.5z M57,9.3L57.5,9L58,8.7l0.4-0.2l0.4-0.1l0.5,0.1l0.3,0.2l0.3,0.3L60,9.4
	l0.1,0.5l-0.5-0.1l-0.4,0.3l-0.3,0.1l-0.3,0h-0.4L58,10.2l-0.2-0.1l-0.1-0.2l-0.1-0.3l-0.3,0l-0.8,0L57,9.3z M59.9,17.9l-1.7,0.4
	l-0.6,0.1l-0.7,0l-0.9-0.2l-0.7-0.3l-0.7-0.5L54,16.8l-0.5-0.7l-0.3-0.5L52.9,15l-0.1-0.6l0.1-0.6l0.4-0.5l0,0.5l0,0.8l0.3,0.7
	l0.4,0.6l0.5,0.8l0.8,0.7l0.9,0.5l1.1,0.1l1.1,0l0.9-0.2l1.1-0.3l2-0.5L59.9,17.9z M67.5,14.9l-0.3,0.2l-0.4,0l-0.5-0.1l-0.4-0.3
	l-0.2-0.2l0-0.3l0-0.4l0.1-0.3l0.2-0.2l0.4-0.2L66,13.7l0.1,0.3l0.1,0.2l0.3,0.1l0.3,0l0.3,0l0.1,0.1l0.1,0.4V14.9z"/>
</svg>
