<svg width="43" height="42" viewBox="0 0 43 42" fill="none" xmlns="http://www.w3.org/2000/svg">
<path d="M13.9355 10.5849L14.0903 9.83011C15.329 9.83011 16.5677 9.52819 17.9613 9.22626C17.6516 10.283 17.3419 11.1888 17.1871 11.7926L16.4129 15.2648C18.2709 15.2648 19.6645 14.8119 20.5935 13.9061C21.5225 13.0004 21.9871 11.9436 21.9871 10.7359C21.9871 9.83011 21.6774 9.22625 20.9032 8.6224C20.2838 8.01854 19.2 7.86758 17.8064 7.86758C15.9484 7.86758 14.0903 8.32047 12.3871 9.22626C10.6838 10.132 9.29029 11.3398 8.36126 12.6984C7.43223 14.0571 6.96771 15.5668 6.96771 16.9254C6.96771 17.3783 6.96771 17.6803 7.12255 17.9822C7.27739 18.2841 7.43223 18.586 7.58707 18.888C7.74191 19.0389 8.05158 19.3409 8.36126 19.6428C8.82578 19.9447 9.13546 20.2466 9.29029 20.3976C9.44513 20.5486 9.44513 20.6995 9.44513 21.0015C9.44513 21.1524 9.44513 21.4544 9.13545 21.6053C8.98062 21.7563 8.82578 21.9073 8.5161 21.9073C7.89675 21.9073 7.27739 21.4544 6.65804 20.5486C6.03868 19.6428 5.729 18.586 5.729 17.3783C5.729 15.7177 6.19352 13.9061 7.27739 12.3965C8.36126 10.7359 9.75481 9.52818 11.7677 8.47143C13.7806 7.41468 15.7935 6.96179 18.1161 6.96179C19.9742 6.96179 21.5225 7.26372 22.4516 8.01854C23.3806 8.77336 23.8451 9.67915 23.8451 10.7359C23.8451 11.7926 23.5355 12.6984 22.9161 13.4533C22.2967 14.2081 21.2129 14.9629 19.8193 15.4158C20.7484 15.5668 21.5225 15.8687 21.9871 16.1706C22.4516 16.4725 22.9161 16.9254 23.2258 17.5293C23.5355 17.9822 23.6903 18.586 23.6903 19.3409C23.6903 20.3976 23.3806 21.4544 22.6064 22.5111C21.9871 23.5679 20.9032 24.3227 19.6645 24.9265C18.4258 25.5304 17.0322 25.9833 15.6387 25.9833C15.1742 25.9833 14.4 25.9833 13.0064 25.8323C12.3871 25.8323 11.6129 25.8323 10.9935 25.8323C9.90965 25.8323 8.98062 25.8323 8.20642 26.1343L8.5161 25.2285C9.59997 25.2285 10.3742 24.9265 10.8387 24.4736C11.3032 24.0208 11.7677 22.964 12.2322 21.4544L14.5548 12.5475C14.7096 12.2455 14.7096 11.7926 14.7096 11.6417C14.7096 11.4907 14.7096 11.3398 14.5548 11.1888C14.4 11.0378 14.2451 11.0378 14.0903 11.0378C14.0903 10.5849 14.0903 10.5849 13.9355 10.5849ZM16.1032 16.1706L15.329 19.3409C14.8645 21.0015 14.5548 22.2092 14.0903 23.115C13.9355 23.5679 13.6258 24.0208 13.1613 24.4736C14.0903 24.7756 14.8645 24.7756 15.6387 24.7756C17.4967 24.7756 18.8903 24.1717 19.8193 23.115C20.7484 22.0582 21.2129 20.6995 21.2129 19.3409C21.2129 18.586 21.058 18.1332 20.7484 17.5293C20.4387 17.0764 19.9742 16.7745 19.3548 16.4725C18.7355 16.3216 17.6516 16.1706 16.1032 16.1706Z" fill="black"/>
<path d="M24.6195 18.4351L24.7744 17.6803C26.0131 17.6803 27.2518 17.3783 28.6453 17.0764C28.3357 18.1332 28.026 19.0389 27.8712 19.6428L27.097 23.115C28.955 23.115 30.3486 22.6621 31.2776 21.7563C32.2066 20.8505 32.6712 19.7938 32.6712 18.586C32.6712 17.6803 32.3615 17.0764 31.5873 16.4725C30.9679 15.8687 29.8841 15.7177 28.4905 15.7177C26.6324 15.7177 24.7744 16.1706 23.0712 17.0764C21.3679 17.9822 19.9744 19.1899 19.0453 20.5486C18.1163 21.9073 17.6518 23.4169 17.6518 24.7756C17.6518 25.2285 17.6518 25.5304 17.8066 25.8323C17.9615 26.1343 18.1163 26.4362 18.2712 26.7381C18.426 26.8891 18.7357 27.191 19.0453 27.4929C19.5099 27.7949 19.8195 28.0968 19.9744 28.2478C20.1292 28.3987 20.1292 28.5497 20.1292 28.8516C20.1292 29.0026 20.1292 29.3045 19.8195 29.4555C19.6647 29.6064 19.5099 29.7574 19.2002 29.7574C18.5808 29.7574 17.9615 29.3045 17.3421 28.3987C16.7228 27.4929 16.4131 26.4362 16.4131 25.2285C16.4131 23.5679 16.8776 21.7563 17.9615 20.2467C19.0453 18.586 20.4389 17.3783 22.4518 16.3216C24.4647 15.2648 26.4776 14.8119 28.8002 14.8119C30.6583 14.8119 32.2066 15.1139 33.1357 15.8687C34.0647 16.6235 34.5292 17.5293 34.5292 18.586C34.5292 19.6428 34.2195 20.5486 33.6002 21.3034C32.9808 22.0582 31.897 22.813 30.5034 23.2659C31.4324 23.4169 32.2066 23.7188 32.6712 24.0208C33.1357 24.3227 33.6002 24.7756 33.9099 25.3794C34.2195 25.8323 34.3744 26.4362 34.3744 27.191C34.3744 28.2478 34.0647 29.3045 33.2905 30.3613C32.6712 31.418 31.5873 32.1728 30.3486 32.7767C29.1099 33.3806 27.7163 33.8335 26.3228 33.8335C25.8582 33.8335 25.0841 33.8335 23.6905 33.6825C23.0712 33.6825 22.297 33.6825 21.6776 33.6825C20.5937 33.6825 19.6647 33.6825 18.8905 33.9844L19.2002 33.0786C20.2841 33.0786 21.0583 32.7767 21.5228 32.3238C21.9873 31.8709 22.4518 30.8142 22.9163 29.3045L25.2389 20.3976C25.3937 20.0957 25.3937 19.6428 25.3937 19.4918C25.3937 19.3409 25.3937 19.1899 25.2389 19.0389C25.0841 18.888 24.9292 18.888 24.7744 18.888C24.9292 18.2841 24.7744 18.4351 24.6195 18.4351ZM26.7873 23.8698L26.0131 27.0401C25.5486 28.7007 25.2389 29.9084 24.7744 30.8142C24.6195 31.2671 24.3099 31.72 23.8453 32.1728C24.7744 32.4748 25.5486 32.4748 26.3228 32.4748C28.1808 32.4748 29.5744 31.8709 30.5034 30.8142C31.4324 29.7574 31.897 28.3987 31.897 27.0401C31.897 26.2852 31.7421 25.8323 31.4324 25.2285C31.1228 24.7756 30.6583 24.4737 30.0389 24.1717C29.5744 24.0208 28.4905 23.8698 26.7873 23.8698Z" fill="black"/>
<path d="M21.2129 0.168396C9.6 0.168396 0 9.37722 0 20.8505C0 32.1728 9.44516 41.3817 21.2129 41.3817C32.8258 41.3817 42.4258 32.0219 42.4258 20.6995C42.4258 9.37722 32.9806 0.168396 21.2129 0.168396ZM21.2129 40.9288C9.90968 40.9288 0.619354 31.8709 0.619354 20.8505C0.619354 9.67915 9.75484 0.621288 21.2129 0.621288C32.5161 0.621288 41.8065 9.67915 41.8065 20.6995C41.8065 31.8709 32.5161 40.9288 21.2129 40.9288Z" fill="black"/>
</svg>
