<svg width="24" height="24" viewBox="0 0 24 24" fill="none" xmlns="http://www.w3.org/2000/svg">
<path fill-rule="evenodd" clip-rule="evenodd" d="M4 0C1.78906 0 0 1.78906 0 4V20C0 22.2109 1.78906 24 4 24H20C22.2109 24 24 22.2109 24 20V4C24 1.78906 22.2109 0 20 0H4ZM14.9805 14.2852L18.3125 17.75C18.5938 18.0469 18.582 18.5117 18.2891 18.793C18.2031 18.875 18.1055 18.9336 17.9961 18.9688C17.9258 18.9883 17.8555 19 17.7812 19C17.5781 19 17.3867 18.918 17.25 18.7734L13.8906 15.2812C12.9375 15.9531 11.8242 16.3047 10.6523 16.3047C7.53516 16.3047 5 13.7695 5 10.6523C5 7.53516 7.53516 5 10.6523 5C13.7695 5 16.3047 7.53516 16.3047 10.6523C16.3047 11.9883 15.8359 13.2695 14.9805 14.2852ZM13.125 7.28516C12.4336 6.77344 11.5781 6.47266 10.6523 6.47266C8.34766 6.47266 6.47266 8.34766 6.47266 10.6523C6.47266 11.6055 6.79297 12.4883 7.33203 13.1914C8.09766 14.1875 9.30078 14.832 10.6523 14.832C12.957 14.832 14.832 12.957 14.832 10.6523C14.832 9.27344 14.1602 8.04688 13.125 7.28516Z" fill="white" fill-opacity="0.75"/>
</svg>
