<svg width="14" height="14" viewBox="0 0 14 14" fill="none" xmlns="http://www.w3.org/2000/svg">
<path fill-rule="evenodd" clip-rule="evenodd" d="M4 0C1.78906 0 0 1.78906 0 4V10C0 12.2109 1.78906 14 4 14H10C12.2109 14 14 12.2109 14 10V4C14 2.80469 13.4805 1.73438 12.6523 1.00391C11.9453 0.378906 11.0156 0 10 0H4ZM3.12891 3.5H10.4453C10.5469 3.5 10.6445 3.51562 10.7344 3.55078C10.832 3.58984 10.9219 3.65234 11.0039 3.73438C11.1641 3.89062 11.2422 4.07812 11.2422 4.29688C11.2422 4.55859 11.1602 4.80859 10.9961 5.04688C10.8359 5.28516 10.6328 5.48828 10.3906 5.65625L8.56641 6.92188L8.0625 7.27344L7.98828 7.32812L7.85156 7.42578L7.58594 7.61328L7.32422 7.77734C7.25781 7.81641 7.19141 7.85156 7.125 7.87891L7.03906 7.91016L6.91406 7.94141L6.79297 7.95312L6.64844 7.94141L6.53125 7.91016C6.44531 7.87891 6.34766 7.83594 6.24609 7.77734L5.98828 7.61328L5.71875 7.42578L5.58203 7.32812L5.50781 7.27344L5.00781 6.92188L4.20703 6.36719L3.1875 5.65625C2.98047 5.51953 2.78906 5.32812 2.60547 5.08203C2.42188 4.83984 2.33203 4.61328 2.33203 4.40625C2.33203 4.14453 2.40234 3.92969 2.53906 3.75781C2.58984 3.69141 2.65234 3.64062 2.72266 3.60156C2.83203 3.53516 2.96875 3.5 3.12891 3.5ZM2.33203 5.75781C2.47656 5.91797 2.64453 6.0625 2.83594 6.19141L4.55859 7.37109L2.33203 9.59766V5.75781ZM10.9688 10.3047C10.8203 10.4336 10.6445 10.5 10.4453 10.5H3.12891C3.04688 10.5 2.96484 10.4883 2.89062 10.4648C2.83984 10.4492 2.79297 10.4297 2.75 10.4023C2.69922 10.375 2.64844 10.3438 2.60547 10.3047L5.13281 7.77734L5.30469 7.90625L5.76562 8.23047C5.83984 8.28125 5.92969 8.33203 6.03125 8.38281L6.23438 8.46875C6.30859 8.5 6.38281 8.52344 6.45703 8.54297C6.54297 8.56641 6.625 8.57812 6.69922 8.58594L6.78125 8.58984C6.88281 8.58984 6.98047 8.57812 7.08203 8.55469L7.16016 8.53125C7.21875 8.51953 7.27734 8.49609 7.33984 8.46875C7.53516 8.38672 7.69141 8.30859 7.80859 8.23047L8.26953 7.90625L8.44141 7.77734L10.9688 10.3047ZM10.7422 6.19141L9.01562 7.375L11.2422 9.59766V5.75781C11.0977 5.91797 10.9336 6.05859 10.7422 6.19141Z" fill="black" fill-opacity="0.75"/>
</svg>
