<svg width="14" height="14" viewBox="0 0 14 14" fill="none" xmlns="http://www.w3.org/2000/svg">
<path fill-rule="evenodd" clip-rule="evenodd" d="M4 0C1.78906 0 0 1.78906 0 4V10C0 12.2109 1.78906 14 4 14H10C12.2109 14 14 12.2109 14 10V4C14 1.78906 12.2109 0 10 0H4ZM12.25 9.48047V3.35547C12.25 3.17188 12.1445 3.02734 12 2.96094C11.8828 2.90625 11.7461 2.90234 11.6172 2.96484L9.28516 4.13281C9.21094 4.16797 9.14844 4.22266 9.10547 4.29297C9.0625 4.36328 9.04297 4.44141 9.04297 4.52344V10.6484C9.04297 10.9766 9.38672 11.1836 9.67578 11.0391L12.0078 9.87109C12.082 9.83594 12.1406 9.78125 12.1836 9.71094C12.2266 9.64062 12.25 9.5625 12.25 9.48047ZM5.86328 2.95703L8.48828 4.12109C8.53125 4.14062 8.57031 4.16406 8.60156 4.19531L8.67969 4.28516L8.72656 4.38672C8.74219 4.42969 8.75 4.47656 8.75 4.52344V10.6484C8.75 10.9648 8.42188 11.1758 8.13672 11.0469L5.51172 9.87891C5.43359 9.84375 5.36719 9.78906 5.32031 9.71875C5.30078 9.6875 5.28125 9.65234 5.26953 9.61328C5.25781 9.57031 5.25 9.52734 5.25 9.48047V3.35547C5.25 3.03906 5.57812 2.82812 5.86328 2.95703ZM1.99219 4.12891L4.32422 2.96484C4.61328 2.82031 4.95703 3.02734 4.95703 3.35547V9.48047C4.95703 9.53516 4.94922 9.58594 4.92969 9.63281L4.89453 9.71094C4.85156 9.78125 4.78906 9.83594 4.71484 9.87109L2.38281 11.0391C2.09375 11.1836 1.75 10.9766 1.75 10.6484V4.52344C1.75 4.44141 1.77344 4.35938 1.81641 4.29297C1.85938 4.22266 1.91797 4.16797 1.99219 4.12891Z" fill="black" fill-opacity="0.75"/>
</svg>
