<svg width="15" height="15" viewBox="0 0 15 15" fill="none" xmlns="http://www.w3.org/2000/svg">
<g clip-path="url(#clip0)">
<path d="M13.65 0H1.35C0.604416 0 0 0.604416 0 1.35V13.65C0 14.3956 0.604416 15 1.35 15H13.65C14.3956 15 15 14.3956 15 13.65V1.35C15 0.604416 14.3956 0 13.65 0Z" fill="#FDFD00"/>
<path d="M3.16129 8.39994H2.57809L1.90039 6.59904H2.42689L2.86969 7.89774L3.31519 6.59904H3.84169L3.16129 8.39994ZM5.29501 8.39994H3.97471V6.59904H5.29501V7.00404H4.43911V7.28484H5.27611V7.68984H4.43911V7.99494H5.29501V8.39994ZM6.75265 8.39994H5.56465V6.59904H6.02905V7.99494H6.75265V8.39994ZM7.81073 8.43234C7.53173 8.43234 7.29954 8.34594 7.11414 8.17314C6.92874 7.99854 6.83603 7.77444 6.83603 7.50084C6.83603 7.22544 6.92784 7.00134 7.11144 6.82854C7.29684 6.65574 7.52993 6.56934 7.81073 6.56934C8.17253 6.56934 8.43443 6.73044 8.59643 7.05264L8.19684 7.24164C8.16624 7.16784 8.11494 7.10574 8.04294 7.05534C7.97274 7.00494 7.89533 6.97974 7.81073 6.97974C7.66493 6.97974 7.54434 7.03014 7.44894 7.13094C7.35534 7.22994 7.30854 7.35324 7.30854 7.50084C7.30854 7.64844 7.35534 7.77264 7.44894 7.87344C7.54434 7.97244 7.66493 8.02194 7.81073 8.02194C7.89533 8.02194 7.97274 7.99674 8.04294 7.94634C8.11494 7.89594 8.16624 7.83384 8.19684 7.76004L8.59643 7.94904C8.52803 8.08584 8.42904 8.20104 8.29944 8.29464C8.17164 8.38644 8.00873 8.43234 7.81073 8.43234ZM10.3579 8.17044C10.1761 8.34504 9.94657 8.43234 9.66937 8.43234C9.39217 8.43234 9.16177 8.34504 8.97817 8.17044C8.79637 7.99584 8.70547 7.77264 8.70547 7.50084C8.70547 7.22904 8.79637 7.00584 8.97817 6.83124C9.16177 6.65664 9.39217 6.56934 9.66937 6.56934C9.94657 6.56934 10.1761 6.65664 10.3579 6.83124C10.5397 7.00584 10.6306 7.22904 10.6306 7.50084C10.6306 7.77264 10.5397 7.99584 10.3579 8.17044ZM9.66937 8.02194C9.81517 8.02194 9.93307 7.97244 10.0231 7.87344C10.1131 7.77444 10.1581 7.65024 10.1581 7.50084C10.1581 7.35144 10.1131 7.22724 10.0231 7.12824C9.93307 7.02924 9.81517 6.97974 9.66937 6.97974C9.52177 6.97974 9.40297 7.02924 9.31297 7.12824C9.22297 7.22724 9.17797 7.35144 9.17797 7.50084C9.17797 7.65024 9.22297 7.77444 9.31297 7.87344C9.40297 7.97244 9.52177 8.02194 9.66937 8.02194ZM12.9084 8.39994H12.444V7.22814L11.9877 8.39994H11.7825L11.3288 7.22814V8.39994H10.8644V6.59904H11.5098L11.885 7.57644L12.2631 6.59904H12.9084V8.39994Z" fill="black"/>
</g>
<defs>
<clipPath id="clip0">
<rect width="15" height="15" fill="white"/>
</clipPath>
</defs>
</svg>
