<svg width="40" height="40" viewBox="0 0 40 40" fill="none" xmlns="http://www.w3.org/2000/svg">
<rect width="40" height="40" rx="20" fill="#A6241F"/>
<path d="M20.0049 14.3595C16.8827 14.3595 14.3644 16.8778 14.3644 20C14.3644 23.1222 16.8827 25.6405 20.0049 25.6405C23.1271 25.6405 25.6454 23.1222 25.6454 20C25.6454 16.8778 23.1271 14.3595 20.0049 14.3595ZM20.0049 23.6671C17.9873 23.6671 16.3378 22.0225 16.3378 20C16.3378 17.9775 17.9824 16.3329 20.0049 16.3329C22.0274 16.3329 23.672 17.9775 23.672 20C23.672 22.0225 22.0225 23.6671 20.0049 23.6671ZM27.1918 14.1288C27.1918 14.8602 26.6027 15.4444 25.8762 15.4444C25.1447 15.4444 24.5605 14.8553 24.5605 14.1288C24.5605 13.4022 25.1496 12.8131 25.8762 12.8131C26.6027 12.8131 27.1918 13.4022 27.1918 14.1288ZM30.9276 15.464C30.8441 13.7017 30.4416 12.1406 29.1505 10.8544C27.8643 9.56822 26.3032 9.16568 24.5409 9.07732C22.7245 8.97423 17.2804 8.97423 15.464 9.07732C13.7066 9.16077 12.1455 9.56332 10.8544 10.8495C9.56332 12.1357 9.16568 13.6968 9.07732 15.4591C8.97423 17.2755 8.97423 22.7196 9.07732 24.536C9.16077 26.2983 9.56332 27.8594 10.8544 29.1456C12.1455 30.4318 13.7017 30.8343 15.464 30.9227C17.2804 31.0258 22.7245 31.0258 24.5409 30.9227C26.3032 30.8392 27.8643 30.4367 29.1505 29.1456C30.4367 27.8594 30.8392 26.2983 30.9276 24.536C31.0307 22.7196 31.0307 17.2804 30.9276 15.464ZM28.5811 26.4849C28.1981 27.4471 27.4569 28.1883 26.4898 28.5761C25.0416 29.1505 21.6053 29.018 20.0049 29.018C18.4046 29.018 14.9633 29.1456 13.52 28.5761C12.5578 28.1932 11.8166 27.452 11.4288 26.4849C10.8544 25.0367 10.9869 21.6004 10.9869 20C10.9869 18.3996 10.8593 14.9584 11.4288 13.5151C11.8117 12.5529 12.5529 11.8117 13.52 11.4239C14.9682 10.8495 18.4046 10.982 20.0049 10.982C21.6053 10.982 25.0465 10.8544 26.4898 11.4239C27.452 11.8068 28.1932 12.548 28.5811 13.5151C29.1554 14.9633 29.0229 18.3996 29.0229 20C29.0229 21.6004 29.1554 25.0416 28.5811 26.4849Z" fill="white"/>
</svg>
