<svg width="24" height="24" viewBox="0 0 24 24" fill="none" xmlns="http://www.w3.org/2000/svg">
<path fill-rule="evenodd" clip-rule="evenodd" d="M4 0C1.78906 0 0 1.78906 0 4V20C0 22.2109 1.78906 24 4 24H20C22.2109 24 24 22.2109 24 20V4C24 1.78906 22.2109 0 20 0H4ZM5.36328 6H17.9102C18.2773 6 18.5977 6.13281 18.8672 6.40234C18.9492 6.48047 19.0156 6.5625 19.0703 6.65234C19.1367 6.75391 19.1836 6.86328 19.2188 6.97656C19.2539 7.09766 19.2734 7.22656 19.2734 7.36328C19.2734 7.62109 19.2266 7.87109 19.1328 8.11328C19.0664 8.29688 18.9727 8.47656 18.8555 8.65234L18.7109 8.85547C18.6211 8.96875 18.5234 9.07812 18.4219 9.1875C18.3008 9.3125 18.168 9.42969 18.0312 9.53906L17.8164 9.69922L14.6875 11.8711L13.8281 12.4688L13.6992 12.5586L13.4648 12.7305L13.0039 13.0508L12.8359 13.1641L12.5625 13.3281C12.3867 13.4336 12.2227 13.5078 12.0703 13.5586C11.918 13.6094 11.7773 13.6367 11.6445 13.6367C11.4961 13.6367 11.3555 13.6094 11.2031 13.5586C11.0469 13.5078 10.8867 13.4336 10.7109 13.3281C10.5391 13.2266 10.3906 13.1367 10.2695 13.0508L9.80859 12.7305L9.57422 12.5586L9.44531 12.4688L8.58594 11.8672L7.21484 10.9141L5.46484 9.69922C5.11328 9.46094 4.78125 9.13281 4.46875 8.71484C4.15625 8.29688 4 7.91016 4 7.55078C4 7.3125 4.03516 7.09766 4.10156 6.89844C4.16016 6.73047 4.24609 6.57812 4.35547 6.44141C4.58984 6.14844 4.92578 6 5.36328 6ZM4 9.86719C4.25 10.1484 4.53516 10.3945 4.85938 10.6094L7.09766 12.1406L7.8125 12.6406L4 16.4531V9.86719ZM18.8047 17.6641C18.5508 17.8867 18.2539 18 17.9102 18H5.36328C5.01953 18 4.72266 17.8867 4.46875 17.6641L8.79688 13.3359L9.09766 13.5508L9.66797 13.9609L9.88672 14.1094L10.0586 14.2148L10.2812 14.332C10.4023 14.3945 10.5391 14.457 10.6914 14.5195C11.0273 14.6562 11.3398 14.7266 11.6289 14.7266L11.8516 14.7148C12.0859 14.6914 12.3281 14.625 12.582 14.5195C12.7383 14.4531 12.8789 14.3906 13.0039 14.3281C13.1523 14.2539 13.2812 14.1797 13.3867 14.1094L13.8125 13.8125L14.1758 13.5508L14.4766 13.3359L18.8047 17.6641ZM18.418 10.6094C17.2578 11.3945 16.2734 12.0742 15.4609 12.6406L19.2695 16.4531V9.86719L19.1367 10.0078L18.8945 10.2383L18.7305 10.375C18.6289 10.457 18.5273 10.5352 18.418 10.6094Z" fill="white" fill-opacity="0.75"/>
</svg>
