<svg width="231" height="58" viewBox="0 0 231 58" fill="none" xmlns="http://www.w3.org/2000/svg">
<path d="M141.751 30.5696C141.751 24.6332 144.026 18.8633 148.964 18.8633C153.236 18.8633 155.954 23.912 155.954 29.9038C155.954 36.7834 153.291 42.054 148.853 42.054C143.915 42.1095 141.751 35.8402 141.751 30.5696ZM152.626 31.2354C152.626 26.2976 151.46 20.7496 148.465 20.7496C146.911 20.7496 145.191 22.2476 145.191 29.2936C145.191 34.897 146.523 40.2231 149.408 40.2231C150.462 40.2231 152.626 39.3909 152.626 31.2354Z" fill="white"/>
<path d="M160.171 38.8361C158.507 36.3395 158.063 33.2881 158.063 30.1258C158.063 28.1285 158.451 24.4668 160.171 21.9147C161.614 19.751 163.334 18.8633 165.775 18.8633C166.718 18.8633 167.495 19.0297 168.16 19.1962C168.937 19.4181 169.325 19.5291 169.825 19.5845C169.991 19.64 169.991 19.8064 169.991 19.9729C169.991 20.1948 169.936 20.916 169.88 21.9147C169.825 22.9133 169.88 24.6332 169.825 25.3545C169.825 25.7983 169.769 26.0757 169.603 26.0757C169.492 26.0757 169.436 25.8538 169.381 25.4654C169.381 24.7997 169.27 23.6346 168.715 22.5805C168.105 21.4709 166.94 20.6941 165.275 20.6941C164.277 20.6941 163.445 21.0825 162.779 22.1366C161.725 23.6901 161.281 26.4641 161.281 29.6264C161.281 35.7292 163.167 39.8348 165.997 39.8348C167.384 39.8348 168.271 39.6128 168.882 38.3368C169.104 37.893 169.325 37.2272 169.436 36.3395C169.547 35.7292 169.547 35.5073 169.714 35.5073C169.825 35.5073 169.825 35.7847 169.825 36.0621C169.825 36.5614 169.603 39.169 169.436 40.556C169.381 40.9999 169.27 41.2218 168.993 41.3882C168.327 41.8875 167.162 42.054 166.108 42.054C164.055 42.1095 161.891 41.4437 160.171 38.8361Z" fill="white"/>
<path d="M171.877 30.5696C171.877 24.6332 174.152 18.8633 179.09 18.8633C183.362 18.8633 186.08 23.912 186.08 29.9038C186.08 36.7834 183.417 42.054 178.979 42.054C173.986 42.1095 171.877 35.8402 171.877 30.5696ZM182.696 31.2354C182.696 26.2976 181.531 20.7496 178.535 20.7496C176.982 20.7496 175.262 22.2476 175.262 29.2936C175.262 34.897 176.593 40.2231 179.478 40.2231C180.532 40.2231 182.696 39.3909 182.696 31.2354Z" fill="white"/>
<path d="M198.508 33.1216C198.508 35.4518 198.508 38.2258 198.619 39.4463C198.674 40.2231 198.785 40.8334 199.284 40.9998C199.506 41.0553 199.728 41.1108 199.95 41.1108C200.228 41.1662 200.283 41.2217 200.283 41.3881C200.283 41.5546 200.228 41.6656 199.95 41.6656C198.785 41.6656 197.01 41.5546 196.843 41.5546C196.732 41.5546 194.901 41.6656 194.347 41.6656C194.125 41.6656 194.014 41.6101 194.014 41.3881C194.014 41.1662 194.125 41.1108 194.347 41.1108C194.513 41.0553 194.68 41.0553 194.846 40.9998C195.234 40.8888 195.401 40.5005 195.456 39.3909C195.512 38.1703 195.567 36.0066 195.567 33.1216V30.9024C194.624 31.5682 193.625 31.6791 192.793 31.6791C191.295 31.6791 189.964 30.9024 189.187 29.4044C188.854 28.6832 188.466 27.5181 188.466 24.7441C188.466 23.4681 188.466 22.414 188.41 21.4708C188.355 20.6386 188.299 20.0838 187.8 19.9728C187.578 19.8619 187.467 19.8619 187.301 19.8619C187.023 19.8064 186.968 19.6399 186.968 19.529C186.968 19.3071 187.134 19.2516 187.356 19.2516C188.299 19.2516 189.464 19.3626 189.797 19.3626C190.186 19.3626 191.573 19.2516 192.238 19.2516C192.516 19.2516 192.627 19.3625 192.627 19.529C192.627 19.6399 192.571 19.8064 192.294 19.8619C191.684 20.0283 191.517 20.2502 191.462 21.6372C191.406 22.8578 191.406 23.9674 191.406 25.188C191.406 28.5723 192.571 29.6818 194.069 29.6818C194.624 29.6818 195.123 29.5709 195.567 29.349V27.851C195.567 23.2462 195.567 22.414 195.512 21.4708C195.456 20.6386 195.345 20.0838 194.79 19.9728C194.624 19.9173 194.513 19.8619 194.347 19.8619C194.125 19.8064 194.014 19.7509 194.014 19.529C194.014 19.3625 194.125 19.2516 194.402 19.2516C195.068 19.2516 196.677 19.3626 196.843 19.3626C197.01 19.3626 198.951 19.2516 199.562 19.2516C199.839 19.2516 199.95 19.3625 199.95 19.529C199.95 19.7509 199.839 19.8619 199.617 19.8619C199.451 19.9174 199.284 19.9173 199.118 19.9728C198.674 20.1393 198.563 20.5831 198.508 21.5263C198.452 22.4694 198.452 23.2462 198.452 27.851V33.1216H198.508Z" fill="white"/>
<path d="M206.719 29.6818C207.662 28.1839 209.049 25.6318 210.381 22.9688C210.936 21.8592 211.268 21.0269 211.268 20.5276C211.268 20.1947 211.213 20.0283 210.769 19.8619C210.603 19.8064 210.492 19.7509 210.492 19.5845C210.492 19.418 210.603 19.3071 210.769 19.3071C211.546 19.3071 211.601 19.3626 212.545 19.3626C213.543 19.3626 214.764 19.3071 214.986 19.3071C215.263 19.3071 215.319 19.3626 215.319 19.5845C215.319 19.7509 215.208 19.8619 215.041 19.8619C214.764 19.9174 214.653 19.9728 214.431 20.0283C213.599 20.3057 213.044 21.1934 212.267 22.5804C211.49 23.8564 209.604 27.3517 209.16 28.1839C209.826 30.0147 212.6 35.8956 213.765 38.0039C214.764 39.8347 215.263 40.445 215.54 40.7224C215.818 40.9443 216.04 41.0553 216.317 41.1108C216.539 41.1662 216.65 41.2217 216.65 41.4436C216.65 41.6656 216.484 41.721 216.317 41.721H214.653C212.434 41.721 211.657 41.3327 210.769 39.6683C209.826 37.8929 207.995 33.7319 206.719 30.514V33.1216C206.719 35.4518 206.719 38.1148 206.83 39.3909C206.886 40.1121 206.997 40.8888 207.551 40.9998C207.773 41.0553 208.051 41.1108 208.273 41.1108C208.494 41.1108 208.55 41.2772 208.55 41.3881C208.55 41.5546 208.494 41.6656 208.217 41.6656C207.107 41.6656 205.277 41.5546 205.166 41.5546C205.055 41.5546 203.168 41.6656 202.614 41.6656C202.392 41.6656 202.281 41.6101 202.281 41.3881C202.281 41.1662 202.392 41.1108 202.558 41.1108C202.725 41.0553 202.891 41.0553 203.057 40.9998C203.557 40.8334 203.612 40.1676 203.668 39.2799C203.723 38.0593 203.779 35.9511 203.779 33.0661V27.851C203.779 23.2462 203.779 22.414 203.723 21.4708C203.668 20.6386 203.501 20.0838 203.113 19.9728C202.835 19.8619 202.614 19.8619 202.447 19.8619C202.225 19.8619 202.114 19.8064 202.114 19.529C202.114 19.3625 202.225 19.2516 202.558 19.2516C203.279 19.2516 204.999 19.3626 205.11 19.3626C205.277 19.3626 207.329 19.2516 207.94 19.2516C208.217 19.2516 208.273 19.3625 208.273 19.529C208.273 19.7509 208.162 19.8064 207.995 19.8619C207.829 19.9174 207.718 19.9173 207.496 19.9728C206.886 20.1393 206.83 20.805 206.775 21.7482C206.719 22.6914 206.719 23.3016 206.719 27.851V29.6818Z" fill="white"/>
<path d="M220.533 34.5641C221.92 31.7901 223.64 28.2394 224.362 26.7414C225.36 24.6886 226.081 23.3016 226.969 21.5263C228.134 19.2516 228.467 18.9187 228.745 18.9187C228.966 18.9187 229.022 19.1961 229.022 21.0824C229.077 26.9633 229.022 32.7332 229.133 38.5587C229.188 40.445 229.244 40.7779 229.91 40.9998C230.021 41.0553 230.353 41.0553 230.464 41.1107C230.797 41.2217 230.853 41.2772 230.853 41.3881C230.853 41.6655 230.742 41.6655 230.464 41.6655C229.799 41.6655 227.413 41.6101 226.969 41.5546C226.248 41.5546 225.471 41.6655 224.861 41.6655C224.584 41.6655 224.473 41.5546 224.473 41.3881C224.473 41.1662 224.584 41.1662 224.861 41.1107C225.027 41.0553 225.138 41.0553 225.305 40.9998C225.915 40.8888 226.026 40.2231 226.026 38.2813C226.137 35.1189 226.081 30.1812 226.137 26.464C225.582 27.5736 224.972 28.8496 224.084 30.6805C220.866 37.1717 219.257 40.2231 218.647 41.2772C218.148 42.1649 217.926 42.2758 217.815 42.2758C217.593 42.2758 217.538 41.7765 217.538 40.8888C217.538 37.0052 217.593 29.6818 217.538 23.6345C217.482 20.805 217.538 20.0838 216.761 19.9174C216.594 19.8619 216.483 19.8619 216.317 19.8619C216.095 19.8064 216.04 19.6954 216.04 19.529C216.04 19.3071 216.151 19.2516 216.372 19.2516C216.983 19.2516 218.647 19.3626 219.035 19.3626C220.145 19.3071 221.31 19.2516 221.754 19.2516C222.031 19.2516 222.142 19.3071 222.142 19.529C222.142 19.6954 222.031 19.8064 221.809 19.8064C221.643 19.8064 221.421 19.8619 221.255 19.8619C220.589 20.0283 220.533 20.805 220.478 23.1907L220.533 34.5641Z" fill="white"/>
<path d="M141.141 44.5505C137.979 48.767 135.371 50.5979 132.986 50.5979C129.213 50.5979 125.551 46.9917 121.945 39.7238C127.715 34.4532 130.933 31.8456 131.543 31.8456C131.987 31.8456 132.154 31.9566 132.154 32.1785C131.71 32.9552 131.432 33.5655 131.432 33.9538C131.432 36.5614 132.708 37.8375 135.205 37.8375C138.756 37.8375 140.587 36.1176 140.587 32.6223C140.587 29.8483 139.144 28.4613 136.204 28.4613C135.482 28.4613 134.761 28.5168 134.095 28.6832C132.653 29.0716 130.434 30.4586 127.438 32.8997C125.385 34.7306 123.332 36.5614 121.279 38.3923C117.118 29.9038 114.511 24.4667 113.457 22.0811C121.557 17.1434 125.551 12.0392 125.551 6.82407C125.551 2.2747 122.888 0 117.507 0C113.845 0 110.35 1.55346 107.021 4.66034C103.692 7.76723 102.028 11.096 102.028 14.7022C102.028 17.1434 103.027 20.6941 105.079 25.4099C102.694 26.5195 100.585 27.6846 98.6436 28.8497C98.6436 29.4045 98.6436 29.9593 98.6436 30.5141C100.253 29.238 102.527 27.851 105.468 26.4085C107.909 32.9552 111.016 39.2245 114.677 45.1054C110.128 49.5438 106.411 51.763 103.526 51.763C100.752 51.763 98.4217 50.4869 96.4799 47.9348C95.7031 46.8807 95.0929 45.7711 94.7045 44.606C94.2607 44.606 93.8168 44.606 93.5949 44.5505C93.3175 44.5505 92.9846 44.5506 92.7072 44.606C92.3189 44.606 91.875 44.6615 91.5421 44.6615C89.8777 44.6615 88.5462 43.6074 88.2688 42.1094C88.1024 42.4423 87.9359 42.6642 87.825 42.8861C87.4366 43.6074 86.6599 44.8834 85.1619 45.1608C85.1619 45.3828 85.1064 45.6047 85.1064 45.8266C85.1064 48.878 86.1051 51.5965 88.1024 53.8712C90.0997 56.1459 92.5963 57.311 95.5922 57.311C101.085 57.311 107.631 53.6493 115.343 46.3814C119.615 53.7048 123.665 57.311 127.549 57.311C130.545 57.311 133.485 55.924 136.315 53.15C138.034 51.3746 140.476 48.1013 142.75 44.4951H141.141V44.5505ZM109.906 9.65355C109.906 7.26791 110.738 5.3261 112.347 3.77266C114.012 2.2747 116.009 1.49797 118.395 1.49797C120.114 1.49797 121.501 1.99728 122.5 3.05141C123.499 4.10553 123.998 5.49253 123.998 7.21242C123.998 11.8173 120.336 16.3112 112.957 20.805C110.96 16.0892 109.906 12.3721 109.906 9.65355Z" fill="#C9CACC" fill-opacity="0.5"/>
<path d="M11.5399 33.1772C11.5399 35.5073 11.5399 38.2813 11.6508 39.5019C11.7063 40.2786 11.8173 40.8889 12.3166 41.0553C12.5385 41.1108 12.7604 41.1663 12.9823 41.1663C13.2597 41.2218 13.3152 41.2773 13.3152 41.4437C13.3152 41.6101 13.2597 41.7211 12.9823 41.7211C11.8173 41.7211 10.0419 41.6101 9.87546 41.6101C9.7645 41.6101 7.93365 41.7211 7.37885 41.7211C7.15693 41.7211 7.04597 41.6656 7.04597 41.4437C7.04597 41.2218 7.15693 41.1663 7.37885 41.1663C7.54529 41.1108 7.71173 41.1108 7.87817 41.0553C8.26654 40.9444 8.43297 40.556 8.48846 39.4464C8.54394 38.2258 8.59942 36.0621 8.59942 33.1772V30.958C7.65626 31.6237 6.65761 31.7347 5.82541 31.7347C4.32745 31.7347 2.99593 30.9579 2.2192 29.46C1.88632 28.7387 1.49796 27.5737 1.49796 24.7997C1.49796 23.5236 1.49796 22.4695 1.44248 21.5263C1.387 20.6941 1.33152 20.1393 0.832202 20.0284C0.610281 19.9174 0.49932 19.9174 0.33288 19.9174C0.0554793 19.8619 0 19.6955 0 19.5845C0 19.3626 0.166439 19.3071 0.388359 19.3071C1.33152 19.3071 2.4966 19.4181 2.82949 19.4181C3.21785 19.4181 4.60485 19.3071 5.27061 19.3071C5.54801 19.3071 5.65897 19.4181 5.65897 19.5845C5.65897 19.6955 5.60349 19.8619 5.32609 19.9174C4.71581 20.0839 4.54937 20.3058 4.49389 21.6928C4.43841 22.9133 4.43841 24.0229 4.43841 25.2435C4.43841 28.6278 5.60349 29.7374 7.10145 29.7374C7.65625 29.7374 8.15558 29.6264 8.59942 29.4045V27.9065C8.59942 23.3017 8.59942 22.4695 8.54394 21.5263C8.48846 20.6941 8.3775 20.1393 7.87817 20.0284C7.71173 19.9729 7.60078 19.9174 7.43434 19.9174C7.21242 19.8619 7.10145 19.8064 7.10145 19.5845C7.10145 19.4181 7.21242 19.3071 7.48982 19.3071C8.15558 19.3071 9.7645 19.4181 9.93094 19.4181C10.0974 19.4181 12.0392 19.3071 12.6495 19.3071C12.9269 19.3071 13.0378 19.4181 13.0378 19.5845C13.0378 19.8064 12.9269 19.9174 12.7049 19.9174C12.5385 19.9729 12.3721 19.9729 12.2056 20.0284C11.7618 20.1948 11.6508 20.6387 11.5953 21.5818C11.5399 22.525 11.5399 23.3017 11.5399 27.9065V33.1772Z" fill="white"/>
<path d="M15.9785 41.4437C15.9785 41.2218 16.0894 41.1108 16.2559 41.1108C17.6429 41.0553 18.0867 40.6115 19.0299 38.3923C19.2518 37.8375 19.5847 37.0608 19.6956 36.4505C19.8066 36.1176 19.7511 35.8957 19.6402 35.6183C18.8634 32.8998 16.0894 24.4668 15.4237 22.4695C14.7024 20.4167 14.4805 20.0284 13.6483 19.9729C13.4819 19.9729 13.3154 19.8065 13.3154 19.64C13.3154 19.4181 13.4264 19.3626 13.6483 19.3626C14.425 19.3626 15.7566 19.4736 16.3668 19.4736C16.6442 19.4736 17.9203 19.3626 18.9744 19.3626C19.1408 19.3626 19.2518 19.4736 19.2518 19.64C19.2518 19.8065 19.1408 19.9729 18.9744 19.9729C18.3641 20.0284 18.3086 20.3058 18.3086 20.5832C18.3086 20.8051 18.4196 21.2489 18.586 21.7483C18.7525 22.3031 21.0826 30.0148 21.4155 30.847C22.1922 28.1839 23.1909 24.0784 23.6347 22.1921C23.8012 21.5263 23.9121 20.9715 23.9121 20.5832C23.9121 20.2503 23.8567 20.0284 23.5238 19.9174C23.3573 19.8619 23.2464 19.751 23.2464 19.5845C23.2464 19.3626 23.3573 19.3071 23.6347 19.3071C23.8567 19.3071 24.5224 19.4181 25.1327 19.4181C25.3546 19.4181 26.8526 19.3071 27.1855 19.3071C27.4074 19.3071 27.5183 19.3626 27.5183 19.5845C27.5183 19.8064 27.4074 19.9174 27.1855 19.9174C26.9081 19.9729 26.7971 20.0284 26.5752 20.0838C26.0759 20.3058 25.7985 20.7496 25.2437 22.414C24.134 26.0757 21.9148 34.3977 21.1381 37.4491C20.9162 38.3368 20.3059 40.2231 20.3059 41.2773C20.3059 41.4992 20.2504 41.6101 20.1395 41.6101C19.8621 41.6656 17.0881 41.7211 16.3114 41.7211C16.0894 41.7211 15.9785 41.6656 15.9785 41.4437Z" fill="white"/>
<path d="M27.8512 38.2259C27.6848 39.0026 27.5738 39.7793 27.5738 40.1122C27.5738 40.667 27.7402 40.9444 28.0731 40.9999C28.295 41.1108 28.4615 41.1108 28.6279 41.1108C28.8498 41.1663 28.9608 41.2772 28.9608 41.3882C28.9608 41.6101 28.8498 41.6656 28.6279 41.6656C27.8512 41.6656 27.2964 41.5547 26.4087 41.5547C26.2423 41.5547 25.1327 41.6656 24.245 41.6656C24.0231 41.6656 23.9121 41.5546 23.9121 41.3882C23.9121 41.1663 24.0231 41.1108 24.1895 41.1108C24.4114 41.0553 24.5779 41.0553 24.7443 40.9999C25.3546 40.7779 25.6875 39.8903 26.0204 38.4478L30.5142 20.5832C30.8471 19.3071 31.0136 18.8633 31.2355 18.8633C31.4019 18.8633 31.5129 19.2516 31.8458 20.3613C32.2896 22.0257 35.1191 33.3436 36.2842 37.8375C36.839 40.1677 37.2273 40.8334 37.8376 40.9999C38.0041 41.1108 38.226 41.1108 38.3924 41.1108C38.6143 41.1108 38.7253 41.2218 38.7253 41.3882C38.7253 41.6101 38.6143 41.6656 38.2815 41.6656C36.6171 41.6656 34.7307 41.6101 33.6211 41.5547C33.3437 41.5547 33.2328 41.4437 33.2328 41.2773C33.2328 41.1108 33.3437 40.9999 33.4547 40.9444C33.6211 40.8889 33.7321 40.667 33.6766 40.3896L30.4588 26.9079C30.4033 26.686 30.3478 26.7415 30.3478 26.9079L27.8512 38.2259Z" fill="white"/>
<path d="M38.5586 30.625C38.5586 24.6886 40.8333 18.9187 45.771 18.9187C50.043 18.9187 52.7615 23.9674 52.7615 29.9592C52.7615 36.8388 50.0985 42.1094 45.66 42.1094C40.6668 42.1649 38.5586 35.8956 38.5586 30.625ZM49.3772 31.2908C49.3772 26.353 48.2121 20.805 45.2162 20.805C43.6628 20.805 41.9429 22.303 41.9429 29.349C41.9429 34.9525 43.2744 40.2785 46.1594 40.2785C47.2135 40.2785 49.3772 39.4464 49.3772 31.2908Z" fill="white"/>
<path d="M65.1336 33.1772C65.1336 35.5073 65.1336 38.2813 65.2446 39.5019C65.3001 40.2786 65.411 40.8889 65.9103 41.0553C66.1323 41.1108 66.3542 41.1663 66.5761 41.1663C66.8535 41.2218 66.909 41.2773 66.909 41.4437C66.909 41.6101 66.8535 41.7211 66.5761 41.7211C65.411 41.7211 63.6357 41.6101 63.4692 41.6101C63.3583 41.6101 61.5274 41.7211 60.9726 41.7211C60.7507 41.7211 60.6397 41.6656 60.6397 41.4437C60.6397 41.2218 60.7507 41.1663 60.9726 41.1663C61.139 41.1108 61.3055 41.1108 61.4719 41.0553C61.8603 40.9444 62.0267 40.556 62.0822 39.4464C62.1377 38.2258 62.1932 36.0621 62.1932 33.1772V30.958C61.25 31.6237 60.2514 31.7347 59.4192 31.7347C57.9212 31.7347 56.5342 30.9579 55.813 29.46C55.4801 28.7387 55.0917 27.5737 55.0917 24.7997C55.0917 23.5236 55.0917 22.4695 55.0362 21.5263C54.9808 20.6941 54.9253 20.1393 54.426 20.0284C54.204 19.9174 54.0931 19.9174 53.9266 19.9174C53.6492 19.8619 53.5938 19.6955 53.5938 19.5845C53.5938 19.3626 53.7602 19.3071 53.9821 19.3071C54.9253 19.3071 56.0904 19.4181 56.4232 19.4181C56.8116 19.4181 58.1986 19.3071 58.8644 19.3071C59.1418 19.3071 59.2527 19.4181 59.2527 19.5845C59.2527 19.6955 59.1972 19.8619 58.9198 19.9174C58.3096 20.0839 58.1431 20.3058 58.0876 21.6928C58.0322 22.9133 58.0322 24.0229 58.0322 25.2435C58.0322 28.6278 59.1972 29.7374 60.6952 29.7374C61.25 29.7374 61.7493 29.6264 62.1932 29.4045V27.9065C62.1932 23.3017 62.1932 22.4695 62.1377 21.5263C62.0822 20.6941 61.9713 20.1393 61.4165 20.0284C61.25 19.9729 61.139 19.9174 60.9726 19.9174C60.7507 19.8619 60.6397 19.8064 60.6397 19.5845C60.6397 19.4181 60.7507 19.3071 61.0281 19.3071C61.6938 19.3071 63.3028 19.4181 63.4692 19.4181C63.6357 19.4181 65.5775 19.3071 66.1877 19.3071C66.4651 19.3071 66.5761 19.4181 66.5761 19.5845C66.5761 19.8064 66.4651 19.9174 66.2432 19.9174C66.0768 19.9729 65.9103 19.9729 65.7439 20.0284C65.3001 20.1948 65.1891 20.6387 65.1336 21.5818C65.0781 22.525 65.0781 23.3017 65.0781 27.9065V33.1772H65.1336Z" fill="white"/>
<path d="M73.3446 29.7374C74.2878 28.2394 75.6748 25.6873 77.0063 23.0243C77.5611 21.9147 77.894 21.0825 77.894 20.5832C77.894 20.2503 77.8385 20.0839 77.3946 19.9174C77.2282 19.8619 77.1172 19.8065 77.1172 19.64C77.1172 19.4736 77.2282 19.3626 77.3946 19.3626C78.1714 19.3626 78.2268 19.4181 79.17 19.4181C80.1687 19.4181 81.3892 19.3626 81.6111 19.3626C81.8885 19.3626 81.944 19.4181 81.944 19.64C81.944 19.8065 81.8331 19.9174 81.6666 19.9174C81.3892 19.9729 81.2783 20.0284 81.0563 20.0838C80.2241 20.3612 79.6693 21.2489 78.8926 22.6359C78.1159 23.912 76.2296 27.4072 75.7857 28.2394C76.4515 30.0703 79.2255 35.9512 80.3906 38.0594C81.3892 39.8902 81.8885 40.5005 82.1659 40.7779C82.4433 40.9998 82.6652 41.1108 82.9427 41.1663C83.1646 41.2218 83.2755 41.2773 83.2755 41.4992C83.2755 41.7211 83.1091 41.7766 82.9427 41.7766H81.2782C79.059 41.7766 78.2823 41.3882 77.3946 39.7238C76.4515 37.9484 74.6206 33.7874 73.3446 30.5696V33.1772C73.3446 35.5073 73.3446 38.1704 73.4556 39.4464C73.511 40.1676 73.622 40.9444 74.1768 41.0553C74.3987 41.1108 74.6761 41.1663 74.898 41.1663C75.12 41.1663 75.1754 41.3327 75.1754 41.4437C75.1754 41.6101 75.12 41.7211 74.8426 41.7211C73.733 41.7211 71.9021 41.6101 71.7912 41.6101C71.6802 41.6101 69.7939 41.7211 69.2391 41.7211C69.0171 41.7211 68.9062 41.6656 68.9062 41.4437C68.9062 41.2218 69.0171 41.1663 69.1836 41.1663C69.35 41.1108 69.5165 41.1108 69.6829 41.0553C70.1822 40.8889 70.2377 40.2231 70.2932 39.3355C70.3487 38.1149 70.4041 36.0066 70.4041 33.1217V27.9065C70.4041 23.3017 70.4041 22.4695 70.3487 21.5263C70.2932 20.6941 70.1268 20.1393 69.7384 20.0284C69.461 19.9174 69.2391 19.9174 69.0726 19.9174C68.8507 19.9174 68.7397 19.8619 68.7397 19.5845C68.7397 19.4181 68.8507 19.3071 69.1836 19.3071C69.9048 19.3071 71.6247 19.4181 71.7357 19.4181C71.9021 19.4181 73.9549 19.3071 74.5652 19.3071C74.8426 19.3071 74.898 19.4181 74.898 19.5845C74.898 19.8064 74.7871 19.8619 74.6206 19.9174C74.4542 19.9729 74.3432 19.9729 74.1213 20.0284C73.511 20.1948 73.4556 20.8606 73.4001 21.8037C73.3446 22.7469 73.3446 23.3572 73.3446 27.9065V29.7374Z" fill="white"/>
<path d="M87.1594 34.6196C88.5464 31.8456 90.2663 28.2949 90.9875 26.7969C91.9862 24.7442 92.7074 23.3572 93.5951 21.5818C94.7602 19.3071 95.0931 18.9742 95.3705 18.9742C95.5924 18.9742 95.6479 19.2516 95.6479 21.138C95.7034 27.0189 95.6479 32.7888 95.7588 38.6142C95.8143 40.5005 95.8698 40.8334 96.5356 41.0553C96.6465 41.1108 96.9794 41.1108 97.0904 41.1663C97.4232 41.2773 97.4787 41.3327 97.4787 41.4437C97.4787 41.7211 97.3678 41.7211 97.0904 41.7211C96.4246 41.7211 94.039 41.6656 93.5951 41.6101C92.8739 41.6101 92.0971 41.7211 91.4869 41.7211C91.2095 41.7211 91.0985 41.6101 91.0985 41.4437C91.0985 41.2773 91.2095 41.2218 91.4869 41.1663C91.6533 41.1108 91.7643 41.1108 91.9307 41.0553C92.541 40.9444 92.5965 40.2786 92.6519 38.3368C92.7629 35.1744 92.7074 30.2367 92.7629 26.5195C92.2081 27.6291 91.5978 28.9052 90.7101 30.736C87.4923 37.2272 85.8834 40.2786 85.2731 41.3327C84.7738 42.2204 84.5519 42.3314 84.4409 42.3314C84.219 42.3314 84.1635 41.8321 84.1635 40.9444C84.1635 37.0608 84.219 29.7374 84.1635 23.6901C84.108 20.8606 84.1635 20.1393 83.3868 19.9729C83.2203 19.9174 83.1094 19.9174 82.9429 19.9174C82.721 19.8619 82.6655 19.751 82.6655 19.5845C82.6655 19.3626 82.7765 19.3071 82.9984 19.3071C83.6087 19.3071 85.2731 19.4181 85.6615 19.4181C86.7711 19.3626 87.9361 19.3071 88.38 19.3071C88.6574 19.3071 88.7683 19.3626 88.7683 19.5845C88.7683 19.751 88.6574 19.8619 88.4355 19.8619C88.269 19.8619 88.0471 19.9174 87.8807 19.9174C87.2149 20.0839 87.1594 20.8606 87.1039 23.2462L87.1594 34.6196Z" fill="white"/>
<path d="M113.068 35.7291C110.96 37.7264 109.185 38.6696 107.742 38.6696C106.91 38.6696 106.244 38.3367 105.69 37.7264C105.135 37.1161 104.857 36.3949 104.857 35.5627C104.857 33.6209 106.633 31.79 110.239 30.0147C109.684 28.7386 109.407 27.7955 109.407 27.1297C109.407 26.1311 109.851 25.2434 110.738 24.4112C111.626 23.579 112.569 23.1351 113.568 23.1351C115.01 23.1351 115.732 23.7454 115.732 24.966C115.732 26.353 114.622 27.74 112.458 29.0715C112.736 29.7373 113.457 31.1798 114.566 33.5099C115.121 33.0106 115.676 32.5113 116.231 32.0119C117.008 31.3462 117.618 30.9578 118.006 30.8469C118.173 30.7914 118.395 30.7914 118.561 30.7914C119.338 30.7914 119.726 31.1797 119.726 31.901C119.726 32.8441 119.227 33.3435 118.284 33.3435C117.618 33.3435 117.285 33.0106 117.285 32.2894C117.285 32.1784 117.34 32.012 117.451 31.79C117.451 31.7346 117.396 31.6791 117.285 31.6791C117.119 31.6791 116.231 32.4003 114.677 33.8428C115.676 35.7846 116.675 36.7832 117.673 36.7832C118.339 36.7832 119.06 36.2284 119.948 35.0634L120.225 35.2853C119.615 36.2839 119.06 37.0052 118.616 37.449C117.84 38.1702 117.063 38.5586 116.231 38.5586C115.343 38.6696 114.234 37.6709 113.068 35.7291ZM112.902 35.3962C111.903 33.7873 111.071 32.1229 110.405 30.3475C109.407 30.8469 108.686 31.2907 108.242 31.7345C107.631 32.3448 107.299 33.1216 107.299 34.0647C107.299 34.8414 107.52 35.5627 108.02 36.173C108.519 36.8387 109.185 37.2271 109.906 37.2271C110.683 37.1716 111.681 36.5613 112.902 35.3962ZM112.403 28.7941C114.4 27.5735 115.399 26.353 115.399 25.1324C115.399 24.6886 115.232 24.3002 115.01 24.0228C114.733 23.7454 114.345 23.579 113.901 23.579C113.235 23.579 112.68 23.8009 112.292 24.1893C111.848 24.5776 111.626 25.1324 111.626 25.7982C111.571 26.5194 111.848 27.5181 112.403 28.7941Z" fill="white"/>
<path d="M135.372 28.4058C135.427 28.4058 135.483 28.3503 135.483 28.1839V27.5736C135.483 22.9688 135.483 22.4694 135.427 21.5263C135.372 20.6941 135.261 20.1393 134.706 19.9728C134.595 19.9173 134.317 19.9174 134.096 19.8619C133.874 19.8619 133.763 19.6954 133.763 19.5845C133.763 19.418 133.874 19.3071 134.096 19.3071C135.094 19.3071 136.592 19.418 136.759 19.418C136.925 19.418 138.867 19.3071 139.588 19.3071C139.865 19.3071 139.921 19.418 139.921 19.5845C139.921 19.7509 139.81 19.8619 139.644 19.8619C139.366 19.9174 139.255 19.9173 139.033 19.9728C138.589 20.0838 138.478 20.5831 138.423 21.5263C138.368 22.4694 138.368 23.2462 138.368 27.851V33.0661C138.368 35.8956 138.368 38.0594 138.478 39.3354C138.534 40.334 138.645 40.8334 139.144 40.9443C139.366 40.9998 139.699 41.0553 139.865 41.0553C140.087 41.0553 140.143 41.2217 140.143 41.3327C140.143 41.5546 140.032 41.6101 139.81 41.6101C138.645 41.6101 136.925 41.4991 136.648 41.4991C136.37 41.4991 135.039 41.6101 134.207 41.6101C133.929 41.6101 133.818 41.4436 133.818 41.2772C133.818 41.1108 133.929 40.9998 134.151 40.9998C134.317 40.9443 134.539 40.9443 134.65 40.8888C135.039 40.7224 135.15 40.1676 135.205 39.2244C135.261 38.0039 135.316 36.1175 135.316 33.288V30.9024C135.316 30.7915 135.261 30.736 135.205 30.736H129.935C129.879 30.736 129.824 30.7915 129.824 30.9024V34.0093C129.824 36.8388 129.824 38.0594 129.935 39.3354C129.99 40.1676 130.156 40.7779 130.656 40.8888C130.989 40.9998 131.155 40.9998 131.377 41.0553C131.543 41.0553 131.71 41.1662 131.71 41.3327C131.71 41.4991 131.599 41.6101 131.377 41.6101C130.434 41.6101 128.437 41.4991 128.27 41.4991C128.104 41.4991 126.328 41.6101 125.829 41.6101C125.663 41.6101 125.441 41.5546 125.441 41.3327C125.441 41.1107 125.496 40.9998 125.718 40.9998C125.94 40.9443 125.995 40.9443 126.217 40.8888C126.606 40.7779 126.772 40.0566 126.828 39.1689C126.883 37.9484 126.939 35.8401 126.939 33.0661V27.9065C126.939 23.3016 126.939 22.6359 126.883 21.6927C126.828 20.6386 126.661 20.0838 126.051 19.9728C125.829 19.9173 125.774 19.9174 125.552 19.8619C125.274 19.8064 125.219 19.6954 125.219 19.529C125.219 19.3071 125.385 19.2516 125.607 19.2516C126.606 19.2516 127.882 19.3626 128.27 19.3626C128.936 19.3626 130.323 19.2516 131.044 19.2516C131.322 19.2516 131.377 19.3625 131.377 19.529C131.377 19.6954 131.266 19.8064 131.1 19.8064C130.878 19.8619 130.656 19.8619 130.489 19.9174C130.046 20.0838 129.935 20.7495 129.935 21.6372C129.879 22.5804 129.879 23.801 129.879 27.5181V28.1284C129.879 28.2948 129.935 28.3503 129.99 28.3503H135.372V28.4058Z" fill="white"/>
</svg>
