<svg id="Слой_1" data-name="Слой 1" xmlns="http://www.w3.org/2000/svg" viewBox="0 0 69.061 122.783"><defs><style>.cls-1{fill:#231f20;}.cls-2{fill:#fff;}</style></defs><title>Ярлык</title><rect class="cls-1" width="69.061" height="122.783"/><path class="cls-2" d="M693.391,498.36a5.063,5.063,0,0,0-1.691-.821l-.19-.065-.365-.125c-1.079-.364-1.4-.475-1.4-1.28a1.283,1.283,0,0,1,1.324-1.369c.928-.046,1.446.508,1.531,1.66l0,.06.061,0c.421-.015.857-.031,1.285-.031h.065l0-.065a3.458,3.458,0,0,0-.9-2.51,2.5,2.5,0,0,0-1.981-.639,2.794,2.794,0,0,0-1.952.93,3.333,3.333,0,0,0-.682,2.141,2.46,2.46,0,0,0,.737,1.99,5.5,5.5,0,0,0,1.7.851l.313.117c1.022.378,1.586.586,1.586,1.578a1.321,1.321,0,0,1-1.531,1.449c-1.146-.071-1.778-.834-1.778-2.149v-.061l-.06,0c-.4-.017-.8-.032-1.171-.032h-.063v.063a3.977,3.977,0,0,0,.826,2.652,3.177,3.177,0,0,0,2.166,1.04c.085,0,.169.008.253.008a2.911,2.911,0,0,0,1.843-.6,3.071,3.071,0,0,0,1-2.5A2.817,2.817,0,0,0,693.391,498.36Z" transform="translate(-680.069 -458.669)"/><path class="cls-2" d="M703.048,494.081c-1.271.11-1.907.165-3.178.277v10.3l-1.75-.166v-9.974c-1.271.113-1.907.171-3.178.287v-1.794l8.107-.863Z" transform="translate(-680.069 -458.669)"/><path class="cls-2" d="M712.985,500.163c0,4.095-1.41,5.9-4.172,5.578-2.907-.335-4.23-2.22-4.23-5.813v-7.916c.719-.085,1.079-.127,1.8-.21v8.635c0,2.07.849,3.155,2.461,3.289,2.043.169,2.345-1.473,2.345-3.933v-8.527l1.8-.2Z" transform="translate(-680.069 -458.669)"/><path class="cls-2" d="M719.248,490.407a3.7,3.7,0,0,1,3.678,1.363,10.454,10.454,0,0,1,1.657,6.338c0,2.526-.363,5.055-1.579,6.762a3.426,3.426,0,0,1-3.646,1.588l-4.388-.437v-15.2C716.681,490.651,717.537,490.569,719.248,490.407Zm-2.321,13.423,2.321.165c2.636.187,3.362-2.347,3.362-5.749s-1.026-5.62-3.489-5.458l-2.194.146Z" transform="translate(-680.069 -458.669)"/><path class="cls-2" d="M728.372,507.269s-1.194-.1-1.989-.18V489.641l1.989-.212Z" transform="translate(-680.069 -458.669)"/><path class="cls-2" d="M740.968,498.377c0,6.165-2.194,10.136-5.4,9.81-3.22-.329-5.4-4.335-5.4-9.9,0-5.235,1.989-9.526,5.43-9.822C738.774,488.2,740.968,492.24,740.968,498.377Zm-8.808-.125c0,4.244,1.271,7,3.3,7.162,1.966.155,3.237-2.636,3.237-7.083s-1.27-7.209-3.267-7.085C733.447,491.369,732.161,494.137,732.16,498.252Z" transform="translate(-680.069 -458.669)"/><path class="cls-2" d="M716.01,476.328a4.979,4.979,0,0,0-1.307-3.654,3.622,3.622,0,0,0-2.862-.92,4.017,4.017,0,0,0-2.826,1.344,4.825,4.825,0,0,0-.989,3.112,3.507,3.507,0,0,0,1.06,2.877,9.268,9.268,0,0,0,2.826,1.367c1.59.589,2.544.9,2.544,2.475a2.05,2.05,0,0,1-2.368,2.24c-1.519-.094-2.72-1.037-2.72-3.277-.565-.023-1.166-.047-1.731-.047a5.8,5.8,0,0,0,1.2,3.866,4.6,4.6,0,0,0,3.145,1.509,4.382,4.382,0,0,0,3.038-.848,4.507,4.507,0,0,0,1.448-3.631,4.035,4.035,0,0,0-1.342-3.324,8.32,8.32,0,0,0-2.756-1.3c-2.049-.707-2.685-.778-2.685-2.169a1.986,1.986,0,0,1,2.049-2.122c1.307-.071,2.226.637,2.367,2.546.636-.023,1.272-.047,1.908-.047Z" transform="translate(-680.069 -458.669)"/><path class="cls-2" d="M731.212,479.142c-1.793-.027-2.689-.039-4.482-.063v1.636l2.821-.049a3.187,3.187,0,0,1-2.851,3.475c-2.072.17-3.307-1.556-3.306-4.6,0-3,1.234-4.761,3.247-4.579a2.84,2.84,0,0,1,2.661,2.462l1.778.086a4.947,4.947,0,0,0-4.424-4.338c-3.233-.4-5.114,2.535-5.114,6.4,0,4.091,2.013,6.643,4.952,6.308a4.378,4.378,0,0,0,3.18-1.9V485.3l1.538-.165Z" transform="translate(-680.069 -458.669)"/><path class="cls-2" d="M692.528,469.83a4.026,4.026,0,0,1,3.424,2.25,14.469,14.469,0,0,1,1.544,7.174,16.683,16.683,0,0,1-1.47,7.656,3.881,3.881,0,0,1-3.395,2.461c-1.634.178-2.451.267-4.086.443V469.476C690.138,469.614,690.935,469.685,692.528,469.83Zm-1.461,16.84c.477-.039.786-.072,1.461-.171,2.455-.2,3.131-3.2,3.131-7.079s-.956-6.547-3.249-6.687c-.816-.086-.874-.086-1.343-.123Z" transform="translate(-680.069 -458.669)"/><path class="cls-2" d="M706.682,473.657c-2.287-.164-3.431-.244-5.718-.4v4.734c2.123.027,3.184.041,5.306.074v2.371c-2.122.032-3.183.049-5.3.085v5.26c2.322-.182,3.483-.273,5.8-.453v2.5c-3.051.335-4.577.5-7.628.836V470.45c3.016.292,4.524.443,7.54.755Z" transform="translate(-680.069 -458.669)"/><path class="cls-2" d="M719.807,486.394l-1.852.2V472.3l1.852.21Z" transform="translate(-680.069 -458.669)"/><path class="cls-2" d="M740.03,484.153l-1.472.161s-2.426-4.528-4-7.687v8.123l-1.4.188V473.771l1.556.158s2.337,5.275,3.9,7.881v-7.5l1.425.133Z" transform="translate(-680.069 -458.669)"/><path class="cls-2" d="M694.152,507.709l.027,6.61a3.578,3.578,0,0,1-.229,1.433c-.14.313-.332.466-.586.467h0a.553.553,0,0,1-.407-.162,2.661,2.661,0,0,1-.42-1.783l-.025-6.721-.549-.05.025,6.665a3.5,3.5,0,0,0,.626,2.459,1.026,1.026,0,0,0,.741.3h.018a1.1,1.1,0,0,0,.963-.615,4.169,4.169,0,0,0,.4-2.081l-.025-6.466Z" transform="translate(-680.069 -458.669)"/><path class="cls-2" d="M697.152,512.1l-.655-.476a1.883,1.883,0,0,1-.6-1.6,2.353,2.353,0,0,1,.262-1.283.524.524,0,0,1,.523-.255c.19.017.768.068.772,1.8v.134l.547.033V510.3c0-1.589-.435-2.4-1.319-2.488a.992.992,0,0,0-.993.579,3.357,3.357,0,0,0-.341,1.67,3.565,3.565,0,0,0,.247,1.433,2.152,2.152,0,0,0,.717.855l.5.361a1.659,1.659,0,0,1,.543.6,2.678,2.678,0,0,1,.2,1.151,2.73,2.73,0,0,1-.263,1.281.7.7,0,0,1-.606.462h0a.672.672,0,0,1-.6-.451,3,3,0,0,1-.259-1.325l0-.588-.547-.014,0,.719a3.805,3.805,0,0,0,.264,1.475,1.2,1.2,0,0,0,1.13.86h.02a1.216,1.216,0,0,0,1.029-.688,3.379,3.379,0,0,0,.383-1.762,3.71,3.71,0,0,0-.25-1.472A2.131,2.131,0,0,0,697.152,512.1Z" transform="translate(-680.069 -458.669)"/><path class="cls-2" d="M703.878,512.493c-.186-1.2-.377-2.435-.626-3.815l-.02-.108-.566-.056-.026.13c-.3,1.561-.518,2.9-.747,4.314-.186,1.154-.379,2.347-.627,3.706l-.032.173h.553l.022-.12c.16-.89.244-1.391.4-2.334l1.42.052c.153.925.239,1.438.4,2.288l.022.118.554,0-.033-.175C704.294,515.184,704.092,513.877,703.878,512.493Zm-1.561,1.206.185-1.153c.147-.929.271-1.7.43-2.618.144.863.257,1.6.383,2.419.066.427.136.883.218,1.4Z" transform="translate(-680.069 -458.669)"/><path class="cls-2" d="M712.142,509.522a29.014,29.014,0,0,0-.846,3l-.044.177-.053-.2c-.327-1.248-.542-2.072-.917-3.175l-.03-.089-.6-.056.072.211c.391,1.13.628,2.017.956,3.244.094.354.2.734.31,1.154.018,1.281.027,1.94.045,2.9l0,.14.548,0,0-.148c-.018-.954-.027-1.611-.044-2.889.094-.376.179-.721.258-1.043a29.447,29.447,0,0,1,.877-3.108l.063-.174-.557-.053Z" transform="translate(-680.069 -458.669)"/><path class="cls-2" d="M715.8,509.886l0-.128-.548-.051,0,.159c.013.975.023,1.983.033,3.143l.019,2.014a1.906,1.906,0,0,1-.209,1.041.615.615,0,0,1-.581.286c-.425,0-.82-.179-.836-1.4l-.025-1.958c-.014-1.206-.027-2.248-.046-3.309l0-.128-.548-.051,0,.159c.019,1.053.032,2.071.046,3.258l.025,1.942c.02,1.419.434,2.026,1.385,2.029h.009a1.174,1.174,0,0,0,.926-.368,2.262,2.262,0,0,0,.4-1.571l-.018-1.91C715.826,511.867,715.817,510.86,715.8,509.886Z" transform="translate(-680.069 -458.669)"/><path class="cls-2" d="M718.25,513.16l-.653-.425a1.5,1.5,0,0,1-.592-1.32,1.208,1.208,0,0,1,.239-.891.653.653,0,0,1,.541-.142c.474.042.769.269.772,1.271v.133l.547.036v-.153c0-1.2-.374-1.71-1.319-1.8a1.08,1.08,0,0,0-.972.319,1.775,1.775,0,0,0-.356,1.252,2.7,2.7,0,0,0,.253,1.212,2.049,2.049,0,0,0,.718.756l.5.321a1.579,1.579,0,0,1,.538.523,2,2,0,0,1,.2.95,1.439,1.439,0,0,1-.248.915.7.7,0,0,1-.592.277h-.017a.7.7,0,0,1-.611-.3,1.638,1.638,0,0,1-.248-.964l0-.5-.545-.022,0,.613a2.1,2.1,0,0,0,.275,1.126,1.215,1.215,0,0,0,1.127.561h.013a1.293,1.293,0,0,0,.991-.4,1.826,1.826,0,0,0,.4-1.327,2.864,2.864,0,0,0-.252-1.261A2,2,0,0,0,718.25,513.16Z" transform="translate(-680.069 -458.669)"/><path class="cls-2" d="M728.914,516.342c-.705,0-1.082,0-1.754,0-.012-.555-.019-.975-.031-1.821l0-.432,1.572.067.152,0-.008-.659-.136-.007c-.642-.028-.984-.044-1.589-.073l0-.116c-.011-.895-.018-1.446-.03-1.99l1.852.159-.011-.468-2.4-.228,0,.163c.019.665.033,1.807.047,2.949s.05,2.938.05,2.938l2.445-.02-.012-.467Z" transform="translate(-680.069 -458.669)"/><path class="cls-2" d="M736.223,515.307a1.784,1.784,0,0,1-.2.867.709.709,0,0,1-.724.337c-.374,0-.6-.055-.749-.389a5.364,5.364,0,0,1-.212-1.943c0-1.166.135-1.827.413-2.08a.744.744,0,0,1,.611-.14.865.865,0,0,1,.626.24,1.105,1.105,0,0,1,.2.757v.138l.547.032,0-.151a1.532,1.532,0,0,0-.25-.971,1.451,1.451,0,0,0-1.105-.425,1.3,1.3,0,0,0-1.053.229c-.37.336-.529,1.047-.533,2.379s.147,2.067.5,2.416a1.2,1.2,0,0,0,.9.29h.07c.527-.009.921-.043,1.2-.409a1.928,1.928,0,0,0,.307-1.166v-.141l-.548-.016Z" transform="translate(-680.069 -458.669)"/><path class="cls-2" d="M732.723,514.412l0,2.416h.543V511.4l-.55-.052v.159C732.721,512,732.722,513.237,732.723,514.412Z" transform="translate(-680.069 -458.669)"/><path class="cls-2" d="M729.906,514.354l.522,2.474h.718l.483-2.285c.272-1.294.56-2.658.676-3.2l.006-.027-.551-.052-.973,4.631-1.013-4.818-.573-.054.028.131C729.345,511.7,729.633,513.06,729.906,514.354Z" transform="translate(-680.069 -458.669)"/><path class="cls-2" d="M723.357,513.729c0,1.164.008,2.328.013,3.094v0h.56v0c0-.538-.013-2.023-.013-2.023l0-.332.3-.48,1.5,2.839h.619c-.238-.45-.573-1.08-.9-1.691l-.894-1.685,1.664-2.706-.607-.057c-.281.459-.642,1.046-.991,1.615l-.7,1.136v-.007s-.011-2.065-.018-2.776v-.129l-.549-.052v.159C723.349,511.4,723.353,512.565,723.357,513.729Z" transform="translate(-680.069 -458.669)"/><path class="cls-2" d="M720.37,516.828l0-3.2,1.647.092v3.1h.549V510.4l-.549-.053v2.694l-1.648-.1,0-2.755-.548-.053.009,6.689Z" transform="translate(-680.069 -458.669)"/><path class="cls-2" d="M705.46,516.828v-6.219c.17.623.324,1.215.475,1.792.377,1.446.733,2.811,1.249,4.3l.048.127.262,0h.056l.134,0h.134v-.177c-.013-1.286-.023-2.523-.033-3.761s-.02-2.476-.033-3.763V509l-.55-.052,0,.16c.012,1.28.02,2.464.029,3.688,0,.725.01,1.465.016,2.247-.3-1.005-.545-1.943-.785-2.858-.274-1.043-.558-2.123-.919-3.305l-.028-.092-.271-.026-.072-.007-.26-.024,0,8.1Z" transform="translate(-680.069 -458.669)"/><polygon class="cls-2" points="20.946 58.159 20.946 57.485 19.102 57.443 19.089 49.523 18.54 49.472 18.555 58.159 20.946 58.159"/><path class="cls-2" d="M689.159,516.828l0-4.295.811.035a.63.63,0,0,1,.589.475,4.737,4.737,0,0,1,.17,1.488l0,.932a5.408,5.408,0,0,0,.121,1.286l.02.079h.605l-.048-.159a4.218,4.218,0,0,1-.148-1.191l0-.961a5.931,5.931,0,0,0-.168-1.621,1.178,1.178,0,0,0-.5-.7,1.41,1.41,0,0,0,.445-.653,5.512,5.512,0,0,0-.1-3.484,1.134,1.134,0,0,0-.9-.736l-1.454-.138,0,9.643Zm1.36-8.282a3.647,3.647,0,0,1,.225,1.407,2.468,2.468,0,0,1-.412,1.717.6.6,0,0,1-.478.166l-.7-.032,0-3.825.842.073C690.213,508.071,690.384,508.232,690.519,508.546Z" transform="translate(-680.069 -458.669)"/><path class="cls-2" d="M739.457,516.693l0,.135h.558v-4.774l-.541-.052,0,.156c0,.162,0,.626,0,1.426v.307c-.645-.034-1.026-.053-1.668-.084v-.167c.007-.913.011-1.438.019-1.659l0-.136-.547-.051-.006.152c-.01.292-.017,1.352-.024,2.377s-.015,2.081-.025,2.37l0,.135h.551l0-.127c.008-.238.013-.851.02-1.778l0-.492c.638.03,1.021.047,1.671.08l0,.694C739.46,516,739.459,516.524,739.457,516.693Z" transform="translate(-680.069 -458.669)"/><path class="cls-2" d="M728.372,507.269" transform="translate(-680.069 -458.669)"/></svg>