<svg width="30" height="30" viewBox="0 0 30 30" fill="none" xmlns="http://www.w3.org/2000/svg">
<circle cx="15" cy="15" r="14.5" stroke="#219653"/>
<path d="M24.3611 23.2168L19.6011 18.2662C20.825 16.8113 21.4955 14.9807 21.4955 13.075C21.4955 8.62251 17.873 5 13.4205 5C8.96805 5 5.34554 8.62251 5.34554 13.075C5.34554 17.5275 8.96805 21.15 13.4205 21.15C15.0921 21.15 16.6849 20.6458 18.0468 19.6888L22.843 24.677C23.0435 24.8852 23.3131 25 23.602 25C23.8755 25 24.135 24.8957 24.332 24.7061C24.7504 24.3034 24.7638 23.6357 24.3611 23.2168ZM13.4205 7.10652C16.7116 7.10652 19.389 9.78391 19.389 13.075C19.389 16.3661 16.7116 19.0435 13.4205 19.0435C10.1294 19.0435 7.45206 16.3661 7.45206 13.075C7.45206 9.78391 10.1294 7.10652 13.4205 7.10652Z" fill="#219653"/>
</svg>
