<svg id="Слой_1" data-name="Слой 1" xmlns="http://www.w3.org/2000/svg" xmlns:xlink="http://www.w3.org/1999/xlink" viewBox="0 0 952.11 703.87"><defs><style>.cls-1{fill:url(#linear-gradient);}.cls-2{fill:url(#linear-gradient-2);}.cls-3{fill:url(#linear-gradient-3);}.cls-4{fill:#0054a6;}.cls-5,.cls-6{fill:#fff;}.cls-5,.cls-7{fill-rule:evenodd;}.cls-7{fill:#ed1c24;}</style><linearGradient id="linear-gradient" x1="1811.26" y1="1694.54" x2="1893.56" y2="1742.05" gradientUnits="userSpaceOnUse"><stop offset="0.01" stop-color="#b27a29"/><stop offset="0.07" stop-color="#b57f2f"/><stop offset="0.15" stop-color="#bf8c41"/><stop offset="0.25" stop-color="#cfa25f"/><stop offset="0.35" stop-color="#e5c088"/><stop offset="0.41" stop-color="#f1d19f"/><stop offset="1" stop-color="#b27a29"/></linearGradient><linearGradient id="linear-gradient-2" x1="1820.95" y1="1705.22" x2="1879.53" y2="1739.04" xlink:href="#linear-gradient"/><linearGradient id="linear-gradient-3" x1="1920.89" y1="2127.96" x2="1101.8" y2="1655.06" xlink:href="#linear-gradient"/></defs><title>Logotype</title><path class="cls-1" d="M1852.44,1670.72a47.58,47.58,0,1,0,47.45,47.58,47.56,47.56,0,0,0-47.45-47.58m0,88a40.39,40.39,0,1,1,40.33-40.43,40.38,40.38,0,0,1-40.33,40.43" transform="translate(-1015.02 -1529.12)"/><path class="cls-2" d="M1844.7,1720.4v13.35c0,2.52.11,4.18.5,4.82a3.46,3.46,0,0,0,1.66,1.49,11.26,11.26,0,0,0,4.51.63v1.21H1827v-1.21a11.27,11.27,0,0,0,4.54-.63,4.42,4.42,0,0,0,1.65-1.49,14.84,14.84,0,0,0,.46-4.82v-30.87a14.75,14.75,0,0,0-.46-4.83,4.2,4.2,0,0,0-1.65-1.54,12.66,12.66,0,0,0-4.54-.56v-1.28h21.88c5.78,0,9.93.38,12.51,1.2a12.74,12.74,0,0,1,6.54,4.38,11.78,11.78,0,0,1,2.52,7.53,11.37,11.37,0,0,1-3.73,8.61,15.08,15.08,0,0,1-6.67,3.29l11.24,15.88a20.23,20.23,0,0,0,3.22,3.84,6.74,6.74,0,0,0,3.32,1.25v1.25H1863l-15.16-21.5Zm0-23.17v20.65h2a24.71,24.71,0,0,0,7.18-.84,7.28,7.28,0,0,0,3.85-3.32,11.12,11.12,0,0,0,1.35-5.94c0-3.64-.86-6.24-2.48-7.93s-4.47-2.62-8.24-2.62Z" transform="translate(-1015.02 -1529.12)"/><path class="cls-3" d="M1509.39,2233c-11.21,0-19.17-3.51-24.63-7.59a89.82,89.82,0,0,1-23.48,3,133.91,133.91,0,0,1-24.4-2.47c-10.65-2-17.87-6.34-22.76-11.06a85.8,85.8,0,0,1-12.68,1c-17.82,0-32.88-5.54-44-10.36-9.91-4.3-16-10.13-19.65-15.83-21-2.48-37-12.27-48.92-20.9-9.46-6.83-14.09-14.46-16.27-21-18.34-6.77-31.13-18.58-40.5-28.57-8.16-8.65-12.38-18.72-12.29-28.76-15.74-12-24.5-27.43-30.49-40-.4-.83-.77-1.65-1.11-2.48H1015V1805.36H1185.8c.21-23.42,9.93-41.71,19-55.62,6.54-9.72,13.92-14.74,20.57-17.23,8.85-22.49,25.07-36.09,38.67-45.59a48,48,0,0,1,15.7-7.31c7.39-12.5,17.71-23.46,28.59-30.55l-10.13-29c-5.34-15.54-6-56.86,11.82-77.38a37.45,37.45,0,0,1,28.65-13.55,38.25,38.25,0,0,1,7,.67,34.28,34.28,0,0,1,10.52,3.56,41,41,0,0,1,9.52-1.14,40.11,40.11,0,0,1,24,8,46.67,46.67,0,0,1,23.08-9.42,45.32,45.32,0,0,1,5.32-.31c13.08,0,26,5.73,36.81,16,12.31-12.6,25.36-15.68,34.86-15.83h0c10.32,0,24,3,37.07,16,10.73-10.46,23.59-16.16,37-16.16a44.73,44.73,0,0,1,5.3.31,46.74,46.74,0,0,1,23.09,9.43,40.18,40.18,0,0,1,31.88-7.27,37.77,37.77,0,0,1,10.36-3.27,36,36,0,0,1,6.5-.58c10.92,0,21.13,4.81,28.73,13.52,17.65,20.57,17.11,61.82,11.9,77.27l-9.61,27.36a105.24,105.24,0,0,1,15.09,10.34l3.4,2.54c8.27,6.36,12.73,13.07,15.07,19.08,21.43,8.12,35.15,23.2,44.91,35.89,6.81,8.94,9.22,17.26,9.51,24.21,16,12.22,24.66,27.93,30.55,40.77,4.65,10,5.18,18.53,4.07,25.26h172.48v242.52h-179c-3.66,12.28-9.44,22.36-14.47,30.23-5.92,9.31-12.77,14.41-19.05,17.14-6.09,19.45-18.21,33.16-28.52,43.2-7.56,7.34-15.77,11.57-24.48,12.62-9.67,16.09-23,26.26-34.09,33.5-7.87,5.22-16,7.89-24.06,7.89a35.46,35.46,0,0,1-7.57-.82c-16,13.45-33.78,18.48-48.05,21.34a51.15,51.15,0,0,1-10.15,1.07,41.72,41.72,0,0,1-8.12-.79c-18.67,14.51-39.25,18.11-55.59,19.54C1512.31,2232.93,1510.82,2233,1509.39,2233Z" transform="translate(-1015.02 -1529.12)"/><path class="cls-4" d="M1784.76,1819.58a61.63,61.63,0,0,0-7-8.83c3-4.87,5.34-13-.11-24.72-6.56-14.29-15.58-29.41-32.54-39.68,1.45-5.4,1.22-13.27-5.87-22.57-10.47-13.61-23.85-27.65-45.56-33.47-.36-5.34-3.11-12.2-11.64-18.76l-3.65-2.72c-6.72-5.25-13.69-10.66-22.42-12.57l-2-.44,14.2-40.45c4.49-13.33,3.88-48.21-9.14-63.38-5.93-6.79-14-9.82-22.33-8.23a24.5,24.5,0,0,0-10.53,4.54c-10-3.87-23.57-2.63-33.9,12.26-8.12-11.24-17.53-14.78-24.74-15.62-13.23-1.56-26.65,5.44-36.9,19-1.32,1.69-2.54,3.33-3.74,5.08-1.46-1.89-2.8-3.8-4.25-5.71-11.81-15.58-24.33-18.57-32.58-18.45s-20.3,3.6-31,19c-1.21,1.78-2.42,3.62-3.66,5.4-1.3-1.79-2.6-3.62-3.94-5.4-10.21-13.5-23.67-20.5-36.92-18.94-7.21.84-16.67,4.38-24.66,15.62-11.08-15.79-25.63-16.25-35.66-11.46a21.8,21.8,0,0,0-11.13-5.34c-8.24-1.59-16.36,1.35-22.27,8.23-13.06,15-13.71,50-9.14,63.38,0,0,7.1,20.36,14.22,40.72-12.79,4.31-28.32,18.57-37,36.65-4.54,0-10.17,1.38-16.65,5.83-14.44,10.1-29.42,23.36-35.88,46-5.58.41-13,3.18-19.6,13-10.5,16-20.21,35.71-15.49,62.06h-172v214.08h169.68a33.5,33.5,0,0,0,3.22,10.58c6.79,14.25,16.06,29.25,33.09,39.45-1.83,5.22-3,14.9,7.24,25.72,10.53,11.22,23.68,22.54,42.51,27.26,0,5.58,2.28,13.35,12.2,20.51,13.17,9.51,29.09,18.55,49.88,18.8,1.45,5.22,5.52,11.85,16,16.41,15.9,6.89,34.67,12.61,56.81,6.77,2.6,4.94,8,10.57,19.54,12.77,15,2.73,31.76,4.08,49.15-2.72,3.25,4.65,10.23,10.54,24.15,9.43,17.34-1.52,36.81-5.37,53.61-21.35,4.32,2.14,10.3,3.46,18.7,1.74,15.94-3.2,33.28-8.78,47.54-23.79,4.66,2.79,14.15,6,27.14-2.56,12.61-8.28,25.63-19,33.39-36,5.62,1.06,13.84.48,23.05-8.46,11.31-11,22.76-24.71,26.7-44.44,5.54-.62,12.61-3.63,18.81-13.36,6.67-10.46,12.94-22.49,15.09-36.8h176.12V1819.58Z" transform="translate(-1015.02 -1529.12)"/><path class="cls-5" d="M1491.06,1690.88c-128.59,0-233.17,98.65-233.17,220.08,0,47.9,16.37,92.35,44,128.47v1h.81c42.44,54.83,111,90.62,188.37,90.62,128.68,0,233.3-98.76,233.3-220.11S1619.74,1690.88,1491.06,1690.88Zm-67.46,349.57h65.18v87.43C1462.15,2126.06,1438.5,2092.12,1423.6,2040.45Zm-.79-3c-10-35.71-15.81-79.38-15.81-126.52,0-42.45,4.73-82,12.9-115.44h68.88v242Zm66-245h-68.14c14.65-57.73,39.69-96.4,68.14-98.42Zm3.06,3.08h70.49c8.21,33.43,13,73,13,115.44,0,47.14-5.88,90.81-15.83,126.52h-67.62Zm0-3.08v-98.51c29.2.68,54.79,39.81,69.71,98.51ZM1507.9,1695c51.58,6.67,96.36,43.9,123.36,97.46h-66.75C1551.92,1742.76,1531.61,1706.67,1507.9,1695Zm-90.22,97.46H1351c27-53.56,71.79-90.79,123.41-97.46C1450.6,1706.67,1430.32,1742.76,1417.68,1792.44Zm-.75,3.08c-8.24,33.53-13,73.08-13,115.44,0,47,5.94,90.63,15.91,126.52h-64.69c-19.73-35.71-31.43-79.38-31.43-126.52,0-42.45,9.49-82,25.7-115.44Zm3.71,244.93c12.74,44,31.76,75.61,53.73,86.51-48-6.23-90.1-38.93-117.52-86.51Zm68.69,87.46h2.51v-87.46h66.73c-15.28,53.1-39.83,87.57-67.51,87.57A13.18,13.18,0,0,1,1489.33,2127.91Zm72.22-87.46h63.81c-27.42,47.58-69.46,80.28-117.46,86.51C1529.82,2116.06,1548.85,2084.46,1561.55,2040.45Zm.88-3c10-35.89,15.89-79.5,15.89-126.52,0-42.36-4.8-81.91-13-115.44h67.48c16.29,33.43,25.72,73,25.72,115.44,0,47.14-11.66,90.81-31.43,126.52ZM1661.54,1911c0-42.36-9.27-81.91-25.37-115.44H1686A207.09,207.09,0,0,1,1721.37,1911c0,47.14-16.11,90.81-43.27,126.52h-47.63C1650,2001.59,1661.54,1958,1661.54,1911Zm22.29-118.52h-49.25c-23-46.47-59.29-81.11-101.95-94.94C1595.77,1708.35,1650,1743.6,1683.83,1792.44Zm-234.3-94.94c-42.57,13.83-78.81,48.47-101.88,94.94h-49.27C1332.26,1743.6,1386.48,1708.35,1449.53,1697.5Zm-153.21,98h49.79c-16.13,33.53-25.47,73.08-25.47,115.44,0,47,11.6,90.63,31.1,126.52H1304.2C1277,2001.77,1261,1958.1,1261,1911A206.66,206.66,0,0,1,1296.32,1795.52Zm10.17,244.93h46.9c23.25,41,57,71.24,96.14,84C1391.3,2114.4,1340.63,2083.62,1306.49,2040.45Zm226.14,84c39.21-12.72,73-43,96.18-84h47C1641.68,2083.62,1590.91,2114.4,1532.63,2124.41Z" transform="translate(-1015.02 -1529.12)"/><path class="cls-5" d="M1650.68,1559c-2.71-3.1-6-4.41-9.56-3.78-5.1,1-8.47,4.44-9.86,10.29a22.84,22.84,0,0,0-6.39-5.57c-4.15-2.33-12.21-4.46-20,7.36-4.59,7-8.45,13.44-11.81,19.68-1.57-3.86-3.18-7.74-5-11.49-6.36-14.37-14.41-18.22-20.09-18.82-8.32-1-17.18,3.95-24.53,13.56-5,6.58-9.73,13.44-14.28,20.36-5.13-7-10.23-14-15.51-20.83-6.59-8.75-14-13.28-21.43-13.09s-14.15,4.65-20,13.11c-5,7.19-9.9,14.53-14.83,21.86q-7.08-11-14.89-21.41c-7.29-9.61-16.16-14.53-24.5-13.56-5.69.6-13.85,4.45-20.2,18.82q-2.49,5.63-4.84,11.44c-3.4-6.26-7.28-12.72-11.8-19.63-7.74-11.82-15.87-9.69-20-7.36a25.63,25.63,0,0,0-8.45,8.49c-1.47-7.35-5.16-12.26-10.06-13.21-3.61-.63-6.84.64-9.48,3.78-9.19,10.59-10.08,40-6.63,50l28.29,81,2.85-1-13.88-39.8,7.48-38.58c3,6.27,15,31.13,19.28,40.2-4,12.23-8.08,24.78-12.34,36.64l2.92,1.09c3.88-11,7.65-22.45,11.3-33.72,3.06,6.66,6.19,13.6,9.58,21.29l2.79-1.24c-3.9-8.85-7.48-16.74-11-24.22.07-.28,12.46-38.45,19.54-56.62,5,9.38,21.84,45.39,26.89,55l-11.4,17.68,2.51,1.68,10.53-16.24c2,3.91,4.26,8,6.73,12.17l2.6-1.5c-2.73-4.72-5.16-9.29-7.5-13.63,0,0,25.21-39.14,33.68-52.06,6.48,10.12,28.58,47.18,33.78,55.52-.32.36-.51.78-.75,1.08l2.38,1.67s0,0,0,0l.06,0,.07,0s0,0,.14-.12l2.35-1.5c-.29-.38-.52-.8-.75-1.16,5.24-8.41,27.89-46.28,34.56-56.71,10.1,13.94,35,49.44,35,49.44-2.94,5.53-6,11.32-9.48,17.44l2.58,1.5c3.29-5.71,6.13-11,8.81-16.18l16.41,23.2,2.41-1.68-17.17-24.5c4-8.19,19.71-41.67,24.71-51.1,7.14,18.11,19.58,56.41,19.75,56.72-4,8.42-8,17.14-12.1,26.58l2.77,1.21c3.64-8.3,7.27-16.05,10.65-23.52,3.58,11.17,7.44,22.52,11.21,33.46l1.66-.67a4,4,0,0,0-.36,1.12l2.83,1,28.18-81C1660.64,1599,1659.73,1569.59,1650.68,1559Zm-308.88,84.51L1329.45,1608c-3.52-10-1.7-38.07,6-47.07,2-2.23,4.18-3.13,6.66-2.68,4.28.76,7.39,6.34,8.07,14.22-4.9,9.45-7.1,21.31-3.77,28.22,0,0,1.13,2.27,2.66,5.43Zm30.11,3.21c-3.79-8.1-7.55-15.84-11.55-24.2l-11.18-23.18c-4.67-9.65,3.19-30.91,13.42-36.74,5.75-3.2,11.19-1.12,16.1,6.36s9.12,14.75,12.83,21.61C1384.32,1608.91,1378.05,1628,1371.91,1646.72Zm58-12.64-7.77,12.12c-4.6-9.07-8.54-17.48-12.4-25.7-4.69-10.12-9.23-19.76-14.83-30.12,1.87-4.59,3.8-9.17,5.75-13.67,4.63-10.35,10.72-16.24,17.71-17,7.18-.89,15.13,3.68,21.75,12.44,5.43,7.22,10.55,14.66,15.58,22.3C1446.85,1607.7,1438.29,1621.08,1429.88,1634.08Zm77.59-8.25c-4.67,7.91-9.59,16-14.46,24-4.91-7.86-9.71-15.83-14.4-23.57-6.19-10.61-12.6-21.28-19.38-31.81q7.69-11.49,15.5-22.89c5.25-7.54,11.36-11.68,17.55-11.85,6.45-.11,13,4,19,11.95,5.51,7.15,10.94,14.48,16.14,21.77C1520.53,1604,1513.93,1615.08,1507.47,1625.83Zm68.78-5.25c-3.31,7.08-6.69,14.24-10.46,21.79l-4.33-6.21c-9.82-14.13-20-28.56-30.34-43,4.69-7.12,9.63-14.26,14.81-21.11,6.6-8.76,14.53-13.33,21.72-12.44,7,.81,13.16,6.7,17.68,17,2,4.5,4,9.08,5.7,13.74C1585.58,1600.76,1580.94,1610.57,1576.25,1620.58Zm18.24-30c3.67-6.86,7.9-14,13-21.63,4.87-7.48,10.19-9.56,15.93-6.36a24.14,24.14,0,0,1,7.24,7c0,.11-.15.3-.15.48h.37c6.13,8.92,9.38,22.25,6,29.31l-10.21,21.24c-4.24,8.83-8.44,17.46-12.55,26.26C1608.1,1628.14,1601.71,1609,1594.49,1590.59Zm32.75,95.27c-4.07-11.28-7.93-23.16-11.72-34.82,4.66-9.94,9.14-19.36,13.88-29.08l5.68-11.71,6.09,34.77.3,0C1635.67,1661.57,1629.6,1679,1627.24,1685.86Zm27.09-77.87s-5.15,14.73-11,31.61l-6.09-34.12,2.38-4.8c3.76-7.87.52-22-5.94-31.75.79-6.33,3.34-9.87,8-10.69,2.46-.45,4.69.45,6.61,2.68C1656.05,1569.92,1657.77,1598.05,1654.33,1608Z" transform="translate(-1015.02 -1529.12)"/><path class="cls-5" d="M1755,1991.93c-6.65.22-13.36,7.1-15.49,16.15-1.39,5.15-2.73,9.44-4,13.64-2.94,8.9-5.39,16.59-5.45,29.12a7.38,7.38,0,0,0-2.79-1c-6.48-1.37-14.62,3.91-18.89,12.19a139.67,139.67,0,0,1-7,12.37c-4.79,7.92-9,14.76-12,26.78a8.23,8.23,0,0,0-4.35-3.86c-6.16-2.5-15.09,1-20.77,8.37-3.33,4.24-6.38,7.57-9.34,10.83-6.22,6.83-11.55,12.85-16.62,24a11,11,0,0,0-2-2.87c-4.77-4.55-14.4-4.55-22.35.09a139.87,139.87,0,0,1-12.72,6.43c-8.57,4.26-15.94,7.76-25.27,16.79a28.17,28.17,0,0,0-4,4.89,8.73,8.73,0,0,0-1.34-2.48c-4.19-5.11-13.85-6.23-22.37-2.64a134.61,134.61,0,0,1-13.34,5c-8.31,3-15.62,5.54-24.84,12.12a8.8,8.8,0,0,0-.71-4.63c-2.73-6.06-11.63-9.62-20.73-8.31-5.25.71-9.77,1-14.13,1.3-9.55.59-17.79,1.2-29.84,6.07a25.1,25.1,0,0,0-5.89,3.33,8.57,8.57,0,0,0,.77-5.64c-1.24-6.52-9.14-12.07-18.37-12.85-5.3-.49-9.76-1.16-14.19-1.86-9.37-1.54-17.49-2.83-30.26-.8l-1.28.27a10.23,10.23,0,0,0,.87-3.68c.1-6.68-6.38-13.69-15.21-16.49-5.17-1.6-9.39-3.21-13.5-4.84-8.74-3.42-16.39-6.45-29.16-7.2a8.88,8.88,0,0,0,2.56-4.51c1.32-6.49-3.72-14.73-11.83-19-4.7-2.63-8.47-5-12.18-7.35-7.93-5-14.83-9.39-27-12.59a8.3,8.3,0,0,0,3.7-3.5c3.39-5.79,1-15.12-5.37-21.77-3.72-3.82-6.65-7.29-9.46-10.66-6.11-7.28-11.39-13.62-22.39-20.46-7.67-4.78-16.84-5.31-21.41-1.19-2.24,1.88-5.18,6.56-.67,15.92,8.17,17,19.18,33.69,43.82,41.11-4.34.77-7.91,2.81-9.64,5.74-1.47,2.43-2.9,7.79,4.23,15.32,12.46,13.32,27.39,25.46,51.64,25.94a12.52,12.52,0,0,0-5.6,6.2c-1,2.69-1.36,8.19,7,14.28,15.1,10.9,32.41,20.11,57,15.38a11.49,11.49,0,0,0-3.11,6.22c-.36,2.87.44,8.21,10,12.4,18.15,7.85,38.32,13.39,63.33.84a2.69,2.69,0,0,0,.89-.55c-2,2.76-3.15,5.82-2.86,8.58s2.31,8,12.54,9.94c17.78,3.22,36.75,4.16,56.21-9.31-1.43,3.4-1.75,6.8-.67,9.52s4.33,7.15,14.64,6.3c19.16-1.67,38.89-6.11,54.74-27.38a11.72,11.72,0,0,0,1.07,3.51c1.28,2.57,5.09,6.54,15.28,4.51,18.64-3.82,37.51-10.49,50.74-32.83.17,4.07,1.49,7.65,4,9.72,2.13,1.85,7.12,4.14,15.77-1.5,15.13-10,29.55-22.63,34.19-46,1,3.34,2.92,6.08,5.39,7.42s7.82,2.76,15.24-4.5c12.92-12.58,24.68-27.58,24.95-51.49a11.14,11.14,0,0,0,5.12,3.57c2.79.86,8.28.86,13.84-7.92,10.68-16.67,19.27-35.78,10.7-62.5C1763,1994.72,1759.42,1991.75,1755,1991.93Zm34-130.23c-1.85-19-6.56-38.61-27.65-54.27a11.39,11.39,0,0,0,7.24-2.63c2.18-1.87,5.13-6.41.79-15.89-7.61-16.38-17.86-32.53-40.25-40.6a11.35,11.35,0,0,0,5.67-3.81c1.7-2.38,3.74-7.46-2.51-15.81-11.49-15-25.77-29.07-51.41-31.28a10.84,10.84,0,0,0,3-4.17c1-2.74,1.53-8.2-6.71-14.41l-3.75-2.95c-6-4.66-11.68-9-17.86-10.36a1.76,1.76,0,0,0-2.13,1L1640,1697.5a2.73,2.73,0,0,0,0,1.6,2,2,0,0,0,1.07,1c5.22,1.85,9.94,1.85,14.84,1.85a60.35,60.35,0,0,1,8.33.13,12.26,12.26,0,0,0,2.57,0c-.16.54-.42,1-.6,1.41-2.06,6.33,2.1,15,9.75,20.17,4.47,3.08,7.94,5.79,11.4,8.54,7.34,5.83,13.69,10.84,25.56,15.18a11,11,0,0,0-2.64,2.75c-3.33,5.73-1,15.13,5.24,21.86,3.71,3.86,6.61,7.41,9.44,10.8,6,7.3,11.17,13.72,22.1,20.6a10.57,10.57,0,0,0,1.28.77,9.34,9.34,0,0,0-2,1.25c-5.18,4.23-6.13,13.82-2.36,22.31,2.06,4.86,3.59,9.15,5.08,13.23,3.25,8.93,6.08,16.76,14.09,27,5.45,7.09,13.92,10.81,19.67,8.59C1785.44,1875.37,1789.87,1872,1788.91,1861.7Zm-146.42-165.19h0Zm1,2.59v-.31h0Zm-417.38,133.43c6.58-.06,13.4-6.89,15.76-15.87,1.39-5.18,2.84-9.48,4.31-13.62,3.07-9,5.8-16.76,6-29.67a26.46,26.46,0,0,0-.15-2.77c.17,0,.3.16.52.22,6.23,2.34,15.08-1.45,20.6-8.88,3.22-4.31,6.09-7.73,9-11,6.28-7.17,11.63-13.36,16.68-25.39a26.5,26.5,0,0,0,1.89-8,2.94,2.94,0,0,1,.45.28c5.71,3.44,15,1.31,21.82-5.09a108.06,108.06,0,0,1,16.64-12.67l1.94-1.38a1.88,1.88,0,0,0,.73-2l-6.85-30.74a2.31,2.31,0,0,0-.87-1.18,2.09,2.09,0,0,0-1.38-.32c-10.86,2.55-29.6,19.29-35.65,40.8-.34-.35-.64-.73-1-1.08-2.3-1.79-7.35-4-15.81,1.88-15.81,11-30.81,25-33.82,51.64a11.24,11.24,0,0,0-4.74-3.31c-2.8-.83-8.3-.93-14,7.62-10.85,16.57-19.8,35.52-11.7,62.34C1218.14,1829.61,1221.59,1832.65,1226.13,1832.53ZM1334,1668.14Zm-2.19-1.29h0v-.07Z" transform="translate(-1015.02 -1529.12)"/><path class="cls-6" d="M1683.55,1729.4c-51.45-48.56-119.88-75.35-192.49-75.35-150.06,0-272.15,115.26-272.15,256.91s122.09,256.89,272.15,256.89c150.24,0,272.32-115.31,272.32-256.89C1763.38,1842.52,1735.09,1778,1683.55,1729.4Zm-12.19,351.41c-48.19,45.52-112.26,70.59-180.3,70.59-140.54,0-254.94-107.92-254.94-240.44s114.4-240.44,254.94-240.44,255.13,107.81,255.13,240.44C1746.19,1975,1719.62,2035.32,1671.36,2080.81Z" transform="translate(-1015.02 -1529.12)"/><polygon class="cls-7" points="926.56 300.02 29.5 300.02 27.55 300.02 27.55 301.94 27.55 489.39 27.55 491.33 29.5 491.33 926.56 491.33 928.44 491.33 928.44 489.39 928.44 301.94 928.44 300.02 926.56 300.02"/><path class="cls-6" d="M1271.75,1877.49c-6.46-5.1-16.65-7.9-30.68-8.41-1.67-.11-3.46-.11-5.33-.11h-50.8V1872c5.37,0,9,.35,11,1.34a8.27,8.27,0,0,1,4.09,3.76c.73,1.58,1.15,5.26,1.15,11.27v72c0,6-.42,9.68-1.15,11.2a8.68,8.68,0,0,1-4.09,3.81c-1.89.9-5.52,1.38-11,1.38v3h59.26v-3c-1.13,0-2.13,0-3.13,0-3.58-.16-6.16-.6-7.76-1.33a8.11,8.11,0,0,1-4.09-3.71c-.77-1.57-1.17-5.32-1.17-11.3v-30.82c4.86,0,9.25,0,13-.24a90.3,90.3,0,0,0,15.18-1.69c8.24-1.88,14.75-5.31,19.4-10.45a26.78,26.78,0,0,0,7.07-18.53C1282.72,1890.21,1279.06,1883.08,1271.75,1877.49Zm-23.27,40a17.21,17.21,0,0,1-7.41,4.63,25.77,25.77,0,0,1-8.7,1.34c-1,0-2.39-.12-4.32-.19v-47.85h3.52a31.61,31.61,0,0,1,9.5,1.31,18,18,0,0,1,7.41,4.34c3.77,3.82,5.67,9.81,5.67,18.1S1252.25,1913.54,1248.48,1917.44Zm169.09,6.52a58.43,58.43,0,0,0-1.26-12.63,53.44,53.44,0,0,0-16.12-28.51c-11.45-10.78-26.19-15.92-44.41-15.39H1355c-17.22-.65-31.66,4.46-43.49,15.46s-17.66,24.7-17.66,41.13c0,14.68,4.54,27.28,13.64,38,11.42,13.43,27.44,20.18,48.32,20.29h.32c20.86,0,37.09-7.08,48.52-21.22a56.88,56.88,0,0,0,11.69-24.58A59.29,59.29,0,0,0,1417.57,1924Zm-35.18,31.41c-2.89,7.69-6.81,13.19-11.82,16.73-3.94,2.73-8.89,4.14-14.77,4.14h0c-8.78-.06-15.62-3.27-20.37-9.5-7-9.06-10.49-23.07-10.49-41.92,0-16,2.22-28.23,6.7-36.66,5.54-10.23,13.57-15.43,24.16-15.49h.21a27.29,27.29,0,0,1,15.33,4.47c4.47,3,8.07,8.11,11,15.4s4.28,18.17,4.28,32.93C1386.61,1937.69,1385.16,1947.79,1382.39,1955.37ZM1072.16,1872h3.65c5.41,0,8.8,1,10.38,3.15s2.24,5.63,2.24,10.59v76.54q0,8.94-2.77,11.71c-1.78,1.78-5.22,2.74-10.27,2.74h-3.23v3h60.68v-3h-3c-5,0-8.62-.84-10.52-2.56s-2.86-5.71-2.86-11.89v-86.19h23.7c9.16,0,15.34.48,18.36,1.36a14.54,14.54,0,0,1,7.91,5.83c2.22,3,3.92,8.25,5.32,15.73h3.2V1869H1072.16Zm718.94,2.71a15,15,0,0,1,8.11-2.71V1869h-39V1872c7.33.12,11.85.8,13.59,2a5.39,5.39,0,0,1,2.69,4.54c0,2.43-1.58,6.56-4.54,12.19l-22.09,41.37-29.15-50.51c-1.24-2.24-1.9-3.9-1.9-5.09,0-3,3.37-4.51,10.23-4.51h2.11V1869h-58V1872c.93,0,1.87.12,2.69.19a20.23,20.23,0,0,1,8.77,3c2.6,1.8,5.65,5.76,9.25,11.66l41.61,72.07-1.64,3.33c-3.68,7.23-7.52,10.93-11.61,10.93-3.33,0-5.28-2.26-6-7-.51-4-1.54-6.8-3-8.33s-3.6-2.21-6.75-2.21a11.75,11.75,0,0,0-8.31,3.11,10.38,10.38,0,0,0-3.41,8c0,3.93,1.64,7.5,4.82,10.77s7.84,4.84,14.1,4.84a28,28,0,0,0,14.86-3.81c4.13-2.42,9.09-9.06,14.65-19.62l36.26-67.7c4.12-7.6,7.42-12.63,10-15.09A15.33,15.33,0,0,1,1791.1,1874.75Zm96,.31c1.9-1.83,6.54-2.83,13.64-3V1869h-96.32V1872c7.51,0,12.44,1,14.68,2.93s3.36,6,3.36,12.28c0,26-3,46.74-9.14,62.24q-7.29,18.6-22.21,24.89a39.61,39.61,0,0,1-8.13,2.39v35.38h3.18a36.71,36.71,0,0,1,4.95-15.47,28.62,28.62,0,0,1,7.65-8.47c7.3-5.6,16.86-8.47,28.77-8.47h31.75c11.48,0,20.67,3,27.29,9s10.32,13.85,11.08,23.42h3.09v-35.38c-4.5,0-8-.53-10.48-1.76a8.81,8.81,0,0,1-5-4.52c-.75-1.93-1.15-5.17-1.15-9.83v-74.13C1884.15,1880.66,1885.11,1876.85,1887.09,1875.06Zm-27.82,89.25c0,4.06-.58,6.42-1.49,7.24-1.09.68-4.39,1.06-10,1.06h-41.51a54.81,54.81,0,0,0,13.08-18.35c3.24-7.13,5.79-17.08,7.7-29.69a266.77,266.77,0,0,0,2.89-39v-9.49h29.28ZM1671.17,1902a46.51,46.51,0,0,0-17.6-13.07,58.81,58.81,0,0,0-16.79-3.7,131.34,131.34,0,0,0-13.34-.59c.34-5.33,1.52-8.73,3.38-10.24,1.49-1.28,4.89-2.06,10-2.32.9-.06,1.86-.06,2.77-.06V1869h-60.26V1872c1,0,2,0,2.79.06,5,.29,8.47,1.17,10.32,2.54,2,1.72,3.07,5.1,3.07,10-4.9,0-9.29.18-13.39.59a69.55,69.55,0,0,0-16.08,3.16,37.75,37.75,0,0,0-18.37,13.51,34.11,34.11,0,0,0-7.39,21.37,34.53,34.53,0,0,0,6,19.88c3.9,6,9.76,10.95,17.43,14.51a63,63,0,0,0,18.38,4.71,130.83,130.83,0,0,0,13.39.67c0,5.07-1,8.62-2.81,10.58-1.5,1.63-5.07,2.65-10.58,3-.84,0-1.74.1-2.79.1v3h60.26v-3c-.91,0-1.89-.13-2.77-.21a31.73,31.73,0,0,1-7.69-1.29,7.67,7.67,0,0,1-4.22-3.69c-1-1.82-1.43-4.68-1.43-8.52a131.92,131.92,0,0,0,13.34-.67c13.49-1.49,23.25-5.21,29.51-11.37a39.43,39.43,0,0,0,9.51-13.7,36.56,36.56,0,0,0,2.81-14,33.78,33.78,0,0,0-2.81-13.77A27.76,27.76,0,0,0,1671.17,1902Zm-75.7,55a39.47,39.47,0,0,1-13.39-2.38l-.74-.39c-3.77-1.67-6.9-4.8-9.16-9.51s-3.48-11.4-3.48-20.29c0-7.81,1-14.11,2.93-19.08s4.36-8.54,7.66-10.84a11.93,11.93,0,0,1,2.79-1.61c3.25-1.36,7.82-2.1,13.39-2.29Zm51.14-12.94c-2.47,5.29-5.49,8.79-9.16,10.37a2.08,2.08,0,0,1-.67.26,33.32,33.32,0,0,1-13.34,2.31v-66.39c5.54.06,10,.82,13.34,2.19.6.18,1,.42,1.49.62,3.54,1.87,6.42,5.2,8.63,10.27s3.26,11.33,3.26,18.62C1650.16,1931.59,1648.94,1938.84,1646.61,1944.09Zm-210-75.12V1872c7.51,0,12.41,1,14.66,2.93s3.39,6,3.39,12.28q0,39-9.12,62.24-8.91,22.58-29.19,27a9.87,9.87,0,0,1-1.27.23v35.38h3.19c1.17-10.38,5.4-18.42,12.59-23.94s16.88-8.47,28.88-8.47h31.59c11.62,0,20.8,3,27.45,9s10.31,13.85,11,23.42h3.19v-35.38c-4.51,0-8-.53-10.46-1.76a9.5,9.5,0,0,1-5.08-4.52,33.08,33.08,0,0,1-1.11-9.83v-74.13c0-5.87,1-9.68,3-11.47s6.43-2.83,13.63-3V1869h-96.32Zm54.72,95.34c0,4.06-.4,6.42-1.47,7.24s-4.21,1.06-9.84,1.06H1438.5a56.69,56.69,0,0,0,13-18.35c3.27-7.13,5.85-17.08,7.71-29.69a264,264,0,0,0,2.9-39v-9.49h29.16Z" transform="translate(-1015.02 -1529.12)"/></svg>