<svg width="24" height="24" viewBox="0 0 24 24" fill="none" xmlns="http://www.w3.org/2000/svg">
<path fill-rule="evenodd" clip-rule="evenodd" d="M4 0C1.78906 0 0 1.78906 0 4V20C0 22.2109 1.78906 24 4 24H20C22.2109 24 24 22.2109 24 20V4C24 1.78906 22.2109 0 20 0H4ZM11.9492 12.543H11.9023C11.0547 12.5273 10.3672 12.2305 9.86328 11.6602C8.74609 10.4023 8.92969 8.24609 8.95312 8.03906C8.98438 7.30469 9.16797 6.75391 9.41406 6.33984C9.69141 5.875 10.0508 5.58203 10.375 5.39844C10.9805 5.05078 11.6133 5 11.9336 5C12.2305 5.00781 12.5039 5.03906 12.7539 5.09766L12.9727 5.16016C13.1758 5.22656 13.3672 5.30859 13.543 5.41016C14.1484 5.75391 14.8789 6.49219 14.9492 8.03906C14.9688 8.24609 15.1562 10.4023 14.0391 11.6602C13.5312 12.2305 12.8438 12.5273 11.9961 12.543H11.9492ZM9.72656 8.08594C9.72266 8.12891 9.52734 10.1094 10.4453 11.1406C10.6172 11.3359 10.8203 11.4844 11.0547 11.5859C11.1562 11.6328 11.2656 11.668 11.3789 11.6953C11.5508 11.7383 11.7344 11.7578 11.9336 11.7617C12.6055 11.7539 13.0898 11.5508 13.457 11.1406C14.3789 10.1016 14.1758 8.13281 14.1719 8.08594C14.0781 6.12109 12.75 5.80469 11.9648 5.78516C11.6797 5.78516 11.2461 5.82422 10.8359 6.03516C10.2891 6.32031 9.78125 6.90625 9.72656 8.08594ZM17.9062 16.0391V16.1211C17.9102 16.2734 17.9141 17.0469 17.7695 17.4297C17.7383 17.5078 17.6836 17.5703 17.6172 17.6133C17.5781 17.6367 17.1445 17.9141 16.3672 18.2148C16.0156 18.3516 15.5898 18.4922 15.1016 18.6172C14.2461 18.832 13.1875 19 11.957 19C8.47266 19 6.38672 17.6719 6.30078 17.6133L6.23438 17.5625C6.20703 17.543 6.1875 17.5156 6.17188 17.4844L6.14844 17.4297C6.05859 17.2031 6.02344 16.8398 6.00781 16.5469L6 16.1094L6.00391 16.0352C6.01953 15.4648 6.05859 14.125 7.31641 13.6914L7.34766 13.6836C8.66016 13.3477 9.74219 12.5938 9.75391 12.5859C9.92969 12.4609 10.1719 12.5039 10.2969 12.6836C10.4219 12.8594 10.3789 13.1016 10.2031 13.2266C10.1523 13.2578 9 14.0664 7.55469 14.4375C6.87891 14.6758 6.80469 15.3984 6.78516 16.0586L6.78125 16.1328C6.77344 16.3945 6.79688 16.7969 6.83984 17.0273C7.3125 17.2969 9.16797 18.2188 11.957 18.2188C14.7578 18.2188 16.5977 17.2969 17.0664 17.0312C17.1133 16.8008 17.1289 16.3945 17.1289 16.1367L17.125 16.0625C17.1133 15.6055 17.0703 15.1172 16.8203 14.7812C16.7109 14.6328 16.5625 14.5117 16.3555 14.4375C14.9102 14.0664 13.7578 13.2656 13.707 13.2305C13.5312 13.1055 13.4883 12.8633 13.6094 12.6836C13.7344 12.5078 13.9805 12.4648 14.1562 12.5898C14.1641 12.5938 14.5273 12.8438 15.0859 13.125C15.5 13.332 16.0234 13.5508 16.5898 13.6953C17.8516 14.125 17.8867 15.4648 17.9062 16.0391Z" fill="white" fill-opacity="0.75"/>
</svg>
