<svg width="24" height="24" viewBox="0 0 24 24" fill="none" xmlns="http://www.w3.org/2000/svg">
<path fill-rule="evenodd" clip-rule="evenodd" d="M0.359375 2.33594C0.128906 2.84375 0 3.40625 0 4V20C0 22.2109 1.78906 24 4 24H20C22.2109 24 24 22.2109 24 20V4C24 1.78906 22.2109 0 20 0H4C2.38281 0 0.992188 0.957031 0.359375 2.33594ZM16.5234 13.9062L18.6875 16.0742C19.1172 16.5039 19.1016 17.2188 18.6562 17.668L18.0391 18.2734C17.7656 18.4648 17.4648 18.6367 17.1445 18.7617C16.8438 18.8789 16.5508 18.9531 16.2422 18.9883C16.1016 19.0039 12.832 19.3125 8.77734 15.2461C5.83984 12.3047 4.75781 10.1367 5.04297 7.76172C5.07812 7.46875 5.15234 7.17188 5.26562 6.86328C5.39453 6.53906 5.56641 6.23828 5.75391 5.95703L6.36328 5.34375C6.70312 5.00391 7.20312 4.91406 7.60938 5.08594C7.73438 5.13672 7.85156 5.21094 7.95312 5.3125L10.1133 7.48047C10.543 7.91406 10.5312 8.62891 10.0859 9.07422L9.72656 9.4375L8.99609 10.168L9.11328 10.3789C9.49219 11.0664 10.0156 12.0117 11.0117 13.0078C12 14.0039 12.9414 14.5273 13.6289 14.9062L13.8438 15.0273L14.9336 13.9375C15.3789 13.4883 16.0938 13.4766 16.5234 13.9062Z" fill="white" fill-opacity="0.75"/>
</svg>
