<svg width="14" height="14" viewBox="0 0 14 14" fill="none" xmlns="http://www.w3.org/2000/svg">
<path fill-rule="evenodd" clip-rule="evenodd" d="M4 0C1.78906 0 0 1.78906 0 4V10C0 12.2109 1.78906 14 4 14H10C12.2109 14 14 12.2109 14 10V4C14 1.78906 12.2109 0 10 0H4ZM9.64062 8.11328L10.9023 9.37891C11.1523 9.62891 11.1445 10.0469 10.8828 10.3086L10.5234 10.6602C10.3633 10.7734 10.1914 10.8711 10.0039 10.9453C9.82812 11.0156 9.65625 11.0586 9.47656 11.0781C9.39453 11.0859 7.48828 11.2656 5.12109 8.89453C3.40625 7.17969 2.77734 5.91406 2.94531 4.53125C2.96484 4.35547 3.00391 4.18359 3.07422 4.00391L3.19141 3.74609L3.35547 3.47656L3.71094 3.11719C3.86719 2.96094 4.08203 2.89844 4.28516 2.92578C4.41797 2.94531 4.54297 3.00391 4.64062 3.10156L5.90234 4.36719C6.15234 4.61719 6.14453 5.03516 5.88281 5.29688L5.67578 5.50391L5.25 5.93359L5.31641 6.05469C5.40625 6.21875 5.51172 6.41016 5.64453 6.61719C5.83594 6.91406 6.08203 7.24609 6.42578 7.58984C7 8.16797 7.55078 8.47656 7.95312 8.69922L8.07812 8.76562L8.71484 8.12891C8.86328 7.98047 9.0625 7.91406 9.25 7.93359C9.39453 7.94531 9.53125 8.00391 9.64062 8.11328Z" fill="#27AE60"/>
</svg>
