<svg id="Слой_1" data-name="Слой 1" xmlns="http://www.w3.org/2000/svg" viewBox="0 0 60.296 60.311"><defs><style>.cls-1{fill:#99ca3c;}</style></defs><title>Телефон</title><path class="cls-1" d="M417.818,328.483l-13.924-13.925c1.8-1.8,3.6-3.614,5.392-5.409a2.161,2.161,0,0,1,3.02-.018l10.837,10.855a2.152,2.152,0,0,1,0,3.037l-4.592,4.588a5.044,5.044,0,0,0-.733.872Zm11.468,22.7c-2.288-1.97-4.468-4.047-6.6-6.16-2.126-2.144-4.2-4.324-6.16-6.611a6.874,6.874,0,0,1-1.081-6.808L401.156,317.3c-3.332,3.421-2.917,11.9.733,19.351a53.81,53.81,0,0,0,5.686,8.9,80.644,80.644,0,0,0,6.826,7.782,78.371,78.371,0,0,0,7.746,6.839,53.526,53.526,0,0,0,8.9,5.669c7.451,3.65,15.934,4.052,19.351.719l-14.29-14.3a6.867,6.867,0,0,1-6.821-1.081Zm29.277,4.226-10.851-10.855a2.178,2.178,0,0,0-3.037,0l-2.372,2.39-2.216,2.2a4.885,4.885,0,0,1-.875.732l13.928,13.942c1.8-1.813,3.592-3.591,5.392-5.392a2.107,2.107,0,0,0,.031-3.015Zm0,0" transform="translate(-398.886 -308.525)"/></svg>