<svg width="34" height="34" viewBox="0 0 34 34" fill="none" xmlns="http://www.w3.org/2000/svg">
<rect width="34" height="34" rx="17" fill="white"/>
<rect x="1" y="1" width="32" height="32" rx="16" stroke="#C4C4C4" stroke-opacity="0.3" stroke-width="2"/>
<g clip-path="url(#clip0)">
<path d="M24.5885 20.801L22.5995 18.812C22.0511 18.2637 21.1588 18.2637 20.6105 18.812L19.7064 19.7161C19.2909 20.1315 18.6149 20.1314 18.1996 19.7163L14.2809 15.7942C13.8645 15.3778 13.8644 14.7038 14.2809 14.2873C14.4265 14.1417 14.8447 13.7235 15.185 13.3832C15.731 12.8373 15.7386 11.9478 15.1845 11.3937L13.1959 9.41144C12.6476 8.86309 11.7553 8.86309 11.2084 9.41C10.7991 9.81569 10.6671 9.94656 10.4836 10.1285C8.50612 12.1059 8.50612 15.3235 10.4835 17.3009L16.6927 23.5133C18.6748 25.4955 21.8829 25.4956 23.8652 23.5133L24.5885 22.79C25.1369 22.2417 25.1369 21.3494 24.5885 20.801ZM11.8699 10.0744C12.0527 9.89166 12.3501 9.89163 12.5335 10.0749L14.522 12.0572C14.7052 12.2404 14.7052 12.5369 14.522 12.7202L14.1904 13.0517L11.5401 10.4014L11.8699 10.0744ZM17.3558 22.8504L11.1466 16.638C9.61669 15.108 9.53259 12.7057 10.888 11.0753L13.5306 13.7179C12.8363 14.5051 12.8652 15.7045 13.6177 16.4571L17.5364 20.379C17.5364 20.379 17.5365 20.3791 17.5365 20.3791C18.2882 21.1309 19.4876 21.1617 20.2757 20.4664L22.9184 23.109C21.2932 24.4621 18.8963 24.3909 17.3558 22.8504ZM23.9256 22.127L23.594 22.4586L20.942 19.8065L21.2735 19.475C21.4563 19.2922 21.7537 19.2922 21.9365 19.475L23.9255 21.464C24.1083 21.6469 24.1083 21.9443 23.9256 22.127Z" fill="#FC3936"/>
</g>
<defs>
<clipPath id="clip0">
<rect width="16" height="16" fill="white" transform="translate(9 9)"/>
</clipPath>
</defs>
</svg>
