<svg width="34" height="34" viewBox="0 0 34 34" fill="none" xmlns="http://www.w3.org/2000/svg">
<rect width="34" height="34" rx="17" fill="white"/>
<rect x="1" y="1" width="32" height="32" rx="16" stroke="#C4C4C4" stroke-opacity="0.3" stroke-width="2"/>
<path d="M17 9C12.5947 9 9 12.5953 9 17C9 21.4053 12.5953 25 17 25C21.4053 25 25 21.4047 25 17C25 12.5947 21.4047 9 17 9ZM17 24.0625C13.1057 24.0625 9.9375 20.8943 9.9375 17C9.9375 13.1057 13.1057 9.9375 17 9.9375C20.8943 9.9375 24.0625 13.1057 24.0625 17C24.0625 20.8943 20.8943 24.0625 17 24.0625Z" fill="#FC3936"/>
<path d="M17 10.9062C13.6399 10.9062 10.9062 13.6399 10.9062 17C10.9062 20.3601 13.6399 23.0938 17 23.0938C20.3601 23.0938 23.0938 20.3601 23.0938 17C23.0938 13.6399 20.3601 10.9062 17 10.9062ZM17 22.1562C14.1568 22.1562 11.8438 19.8432 11.8438 17C11.8438 14.1568 14.1568 11.8438 17 11.8438C19.8432 11.8438 22.1562 14.1568 22.1562 17C22.1562 19.8432 19.8432 22.1562 17 22.1562Z" fill="#FC3936"/>
<path d="M20.75 16.5312H17.4688V13.25C17.4688 12.9911 17.2589 12.7812 17 12.7812C16.7411 12.7812 16.5312 12.9911 16.5312 13.25V17C16.5312 17.2589 16.7411 17.4688 17 17.4688H20.75C21.0089 17.4688 21.2188 17.2589 21.2188 17C21.2188 16.7411 21.0089 16.5312 20.75 16.5312Z" fill="#FC3936"/>
</svg>
