<svg width="34" height="34" viewBox="0 0 34 34" fill="none" xmlns="http://www.w3.org/2000/svg">
<rect width="34" height="34" rx="17" fill="white"/>
<rect x="1" y="1" width="32" height="32" rx="16" stroke="#C4C4C4" stroke-opacity="0.3" stroke-width="2"/>
<path d="M17 9C13.8984 9 11.375 11.5234 11.375 14.625C11.375 15.6729 11.6653 16.6956 12.2147 17.5829L16.6798 24.7784C16.7653 24.9163 16.916 25 17.0781 25C17.0793 25 17.0806 25 17.0818 25C17.2453 24.9987 17.3963 24.9124 17.4803 24.7721L21.8316 17.5069C22.3507 16.6384 22.625 15.6418 22.625 14.625C22.625 11.5234 20.1016 9 17 9ZM21.0271 17.0256L17.071 23.6308L13.0115 17.0889C12.5542 16.3504 12.3063 15.4984 12.3063 14.625C12.3063 12.0403 14.4153 9.93125 17 9.93125C19.5847 9.93125 21.6906 12.0403 21.6906 14.625C21.6906 15.4725 21.459 16.3027 21.0271 17.0256Z" fill="#FC3936"/>
<path d="M17 11.8125C15.4492 11.8125 14.1875 13.0742 14.1875 14.625C14.1875 16.1659 15.4287 17.4375 17 17.4375C18.5907 17.4375 19.8125 16.149 19.8125 14.625C19.8125 13.0742 18.5508 11.8125 17 11.8125ZM17 16.5062C15.9607 16.5062 15.1188 15.6615 15.1188 14.625C15.1188 13.5911 15.9661 12.7438 17 12.7438C18.0339 12.7438 18.8781 13.5911 18.8781 14.625C18.8781 15.6463 18.0557 16.5062 17 16.5062Z" fill="#FC3936"/>
</svg>
