<svg width="32" height="32" viewBox="0 0 32 32" fill="none" xmlns="http://www.w3.org/2000/svg">
<path fill-rule="evenodd" clip-rule="evenodd" d="M16.4268 26C16.1504 25.2181 16 24.3766 16 23.5C16 19.407 19.2787 16.0797 23.3531 16.0014L22.855 10.3926C22.8305 10.1063 22.5891 9.88957 22.3069 9.88957H19.9511C19.9184 7.73824 18.1597 6 16.0002 6C13.8407 6 12.082 7.73824 12.0493 9.88957H9.69344C9.40714 9.88957 9.16992 10.1063 9.14538 10.3926L8.00018 23.2883C8.00018 23.2965 7.99916 23.3047 7.99814 23.3129L7.99814 23.3129L7.99814 23.3129C7.99712 23.3211 7.99609 23.3292 7.99609 23.3374C7.99609 24.8057 9.3417 26 10.9981 26H16.4268ZM18.8468 9.88957C18.8141 8.34765 17.5503 7.10429 16.0002 7.10429C14.4501 7.10429 13.1863 8.34765 13.1536 9.88957H18.8468ZM19.9511 11H19V13.0579V13.5C19 13.7761 19.2239 14 19.5 14C19.7761 14 20 13.7761 20 13.5V11H19.9511ZM12 11H13V13.5C13 13.7761 12.7761 14 12.5 14C12.2239 14 12 13.7761 12 13.5V11Z" fill="black"/>
<path fill-rule="evenodd" clip-rule="evenodd" d="M19.472 30.5961C18.3576 30.8602 17.1951 31 16 31C7.71573 31 1 24.2843 1 16C1 7.71573 7.71573 1 16 1C24.2843 1 31 7.71573 31 16C31 17.1951 30.8602 18.3576 30.5961 19.472C30.8641 19.8616 31.0985 20.2762 31.295 20.7115C31.7533 19.222 32 17.6398 32 16C32 7.16344 24.8366 0 16 0C7.16344 0 0 7.16344 0 16C0 24.8366 7.16344 32 16 32C17.6398 32 19.222 31.7533 20.7115 31.295C20.2762 31.0985 19.8616 30.8641 19.472 30.5961Z" fill="black"/>
</svg>
