<svg id="Слой_1" data-name="Слой 1" xmlns="http://www.w3.org/2000/svg" viewBox="0 0 328.95 291.53"><defs><style>.cls-1,.cls-2{fill:none;stroke:#ed1c24;stroke-miterlimit:10;}.cls-1{stroke-width:2px;}.cls-2{stroke-width:3px;}</style></defs><title>BrowBar LOGo OK</title><path d="M250,309.3l.4-1.63a49.58,49.58,0,0,0,8.16-1.32c-.77,2.28-1.33,4.11-1.69,5.51l-1.78,7.4c3.91,0,6.85-1,8.83-2.93a9.53,9.53,0,0,0,3-7,5.55,5.55,0,0,0-2.14-4.55q-2.13-1.73-6.38-1.73a24.38,24.38,0,0,0-11.45,2.86,22.35,22.35,0,0,0-8.47,7.45,16.66,16.66,0,0,0-3,9.22,7.65,7.65,0,0,0,.34,2.34,6.89,6.89,0,0,0,1,2,8.18,8.18,0,0,0,1.75,1.46,8.84,8.84,0,0,1,1.89,1.57,2,2,0,0,1,.37,1.22,1.65,1.65,0,0,1-.52,1.21,1.68,1.68,0,0,1-1.24.51q-1.89,0-3.83-2.75a11.57,11.57,0,0,1-1.94-6.81,19.88,19.88,0,0,1,3.33-10.81,24,24,0,0,1,9.44-8.38A28.87,28.87,0,0,1,259.42,301c4,0,7,.79,9.07,2.36a7,7,0,0,1,3.11,5.74,9.23,9.23,0,0,1-2.09,5.86,13.21,13.21,0,0,1-6.34,4.07,11.79,11.79,0,0,1,4.61,1.57,7.64,7.64,0,0,1,2.6,2.8,8,8,0,0,1,.92,3.88,12.15,12.15,0,0,1-2.11,6.78,15.86,15.86,0,0,1-6.2,5.3,18.38,18.38,0,0,1-8.54,2.11c-.87,0-2.71-.09-5.54-.27-1.35-.06-2.77-.09-4.25-.09a30,30,0,0,0-6,.53l.5-1.83q3.48-.19,5-1.67t2.76-6.49l4.91-19.28a8.69,8.69,0,0,0,.3-1.87,1.22,1.22,0,0,0-.41-.89,1.52,1.52,0,0,0-1.05-.38A2.64,2.64,0,0,0,250,309.3Zm4.56,12-1.69,6.67a56.25,56.25,0,0,1-2.48,8,9.2,9.2,0,0,1-1.82,2.82,22,22,0,0,0,5.14.73q5.81,0,8.78-3.59a12.22,12.22,0,0,0,3-8,6.4,6.4,0,0,0-1.11-3.77,5.86,5.86,0,0,0-2.92-2.2A24.45,24.45,0,0,0,254.53,321.26Z" transform="translate(-133.27 -141.51)"/><path d="M281.35,341.08h-5l2.33-8.93q1.68-6.57,2.95-12.47a13.09,13.09,0,0,0,.3-1.82c0-.53-.25-.8-.73-.8a3.4,3.4,0,0,0-1.53.68,31.89,31.89,0,0,0-3.71,3.37L275,320a25.28,25.28,0,0,1,6.35-5.13,11.52,11.52,0,0,1,4.86-1.71,1.45,1.45,0,0,1,.94.29.87.87,0,0,1,.35.71,15.49,15.49,0,0,1-.44,2.3l-1.44,6a42.49,42.49,0,0,1,7.58-9.06q2-1.8,3.39-1.8a2.29,2.29,0,0,1,1.66.65,2.09,2.09,0,0,1,0,3,10,10,0,0,1-3.23,1.5,13.94,13.94,0,0,0-4,2,18.58,18.58,0,0,0-3.38,3.55,19.48,19.48,0,0,0-2.57,4.16,69,69,0,0,0-2.23,8.24Z" transform="translate(-133.27 -141.51)"/><path d="M312,313.18a6.71,6.71,0,0,1,5.4,2.59,10.88,10.88,0,0,1,2.16,7.19,19.42,19.42,0,0,1-5.17,13.22Q309.25,342,303.47,342a7.46,7.46,0,0,1-5.72-2.33,8.86,8.86,0,0,1-2.17-6.33,22.53,22.53,0,0,1,4-12.87Q304.57,313.18,312,313.18Zm-2.82,2.49q-2.82,0-5.46,4t-2.63,11.13a12.37,12.37,0,0,0,1.62,6.8,3.67,3.67,0,0,0,3.19,1.82q2.77,0,5.07-3.45a19.89,19.89,0,0,0,2.92-11.11c0-3.32-.45-5.68-1.34-7.1A3.94,3.94,0,0,0,309.21,315.67Z" transform="translate(-133.27 -141.51)"/><path d="M336.47,314.11a4.72,4.72,0,0,1,2.3-1.06,1.36,1.36,0,0,1,1,.41,1.4,1.4,0,0,1,.4,1c0,.87-.65,1.46-1.93,1.79l-2.55,5a21.82,21.82,0,0,0-1.44,4.18,19.1,19.1,0,0,0-.48,4.28,47,47,0,0,0,1.32,8.82,40.24,40.24,0,0,0,9.49-9.05c0-.95,0-1.65,0-2.09q0-7.31,2.15-11.51,1.42-2.79,3.15-2.79a2.09,2.09,0,0,1,1.71.88,4.19,4.19,0,0,1,.68,2.61,11.76,11.76,0,0,1-.53,3.21,35.52,35.52,0,0,1-2.12,5.48,54.86,54.86,0,0,0,1.27,13.26,43.86,43.86,0,0,0,7.72-6.83,23,23,0,0,0,4.18-6.28,14.19,14.19,0,0,0,1.42-5.36,6.81,6.81,0,0,0-.74-2.65,7.77,7.77,0,0,1-.85-2.76,2,2,0,0,1,.63-1.47,2.15,2.15,0,0,1,1.54-.62,2,2,0,0,1,1.76,1.05,7.64,7.64,0,0,1,.65,3.73q0,6.84-5.94,14.33a40.51,40.51,0,0,1-14.49,11.57,73.46,73.46,0,0,1-2-10.74c-3,3-4.87,4.81-5.59,5.4A40.76,40.76,0,0,1,335,341a29.66,29.66,0,0,1-4.35,2.23c-.16-1.26-.51-3.29-1.07-6.1a51.4,51.4,0,0,1-1.16-8.49,14.9,14.9,0,0,1,1.68-6.78,16.72,16.72,0,0,1,5-5.86q-6,.17-8.56,1.4c-1.14.55-1.72,1.21-1.72,2a4.19,4.19,0,0,0,.4,1.39,4.07,4.07,0,0,1,.36,1.33,1.38,1.38,0,0,1-.43,1,1.51,1.51,0,0,1-1.11.44,1.81,1.81,0,0,1-1.47-.77,3.4,3.4,0,0,1-.6-2.15,5.07,5.07,0,0,1,2.39-4.32Q327.84,313.95,336.47,314.11Z" transform="translate(-133.27 -141.51)"/><path d="M272.39,355.3l.4-1.63a49.69,49.69,0,0,0,8.17-1.32c-.78,2.28-1.34,4.11-1.69,5.51l-1.79,7.4c3.91,0,6.85-1,8.83-2.93a9.5,9.5,0,0,0,3-7,5.56,5.56,0,0,0-2.15-4.55q-2.13-1.73-6.38-1.73a24.31,24.31,0,0,0-11.44,2.86,22.38,22.38,0,0,0-8.48,7.45,16.66,16.66,0,0,0-3,9.22,7.36,7.36,0,0,0,.35,2.34,6.62,6.62,0,0,0,1,2,8,8,0,0,0,1.76,1.46,9.42,9.42,0,0,1,1.89,1.57,2.09,2.09,0,0,1,.36,1.22,1.68,1.68,0,0,1-.51,1.21,1.72,1.72,0,0,1-1.25.51c-1.26,0-2.53-.92-3.83-2.75a11.57,11.57,0,0,1-1.94-6.81A19.88,19.88,0,0,1,259,358.51a24,24,0,0,1,9.44-8.38A28.87,28.87,0,0,1,281.84,347c4,0,7,.79,9.08,2.36a7,7,0,0,1,3.1,5.74,9.23,9.23,0,0,1-2.09,5.86,13.16,13.16,0,0,1-6.34,4.07,11.73,11.73,0,0,1,4.61,1.57,7.76,7.76,0,0,1,2.61,2.8,8,8,0,0,1,.91,3.88,12.07,12.07,0,0,1-2.11,6.78,15.86,15.86,0,0,1-6.2,5.3,18.38,18.38,0,0,1-8.54,2.11c-.86,0-2.71-.09-5.54-.27-1.35-.06-2.76-.09-4.25-.09a30,30,0,0,0-6,.53l.5-1.83q3.48-.19,5-1.67c1-1,1.91-3.14,2.77-6.49l4.91-19.28a8.53,8.53,0,0,0,.29-1.87,1.18,1.18,0,0,0-.41-.89,1.52,1.52,0,0,0-1.05-.38A2.71,2.71,0,0,0,272.39,355.3Zm4.56,12-1.69,6.67a56.25,56.25,0,0,1-2.48,8,9.37,9.37,0,0,1-1.81,2.82,21.94,21.94,0,0,0,5.14.73q5.81,0,8.77-3.59a12.22,12.22,0,0,0,3-8,6.4,6.4,0,0,0-1.11-3.77,5.82,5.82,0,0,0-2.92-2.2A24.45,24.45,0,0,0,277,367.26Z" transform="translate(-133.27 -141.51)"/><path d="M320.25,358.62l2.19-.47L320,366.54q-1.5,5-2.82,11.55a30.08,30.08,0,0,0-.73,4.57c0,.69.27,1,.83,1a4,4,0,0,0,1.69-.69,22.1,22.1,0,0,0,3.95-3.06l1.06,1.3q-3.78,3.45-4.85,4.18a18,18,0,0,1-4,2.15,7.09,7.09,0,0,1-2.46.47,1.88,1.88,0,0,1-1.29-.4,1.49,1.49,0,0,1-.43-1.16,5.16,5.16,0,0,1,.26-1.36l1.33-4.51a28.37,28.37,0,0,1-6.8,5.87,8.49,8.49,0,0,1-4.45,1.52,3.47,3.47,0,0,1-2.95-1.36,7.62,7.62,0,0,1-1.39-4.77,19.87,19.87,0,0,1,1.87-7.83,29.17,29.17,0,0,1,5-7.83A21.32,21.32,0,0,1,310.4,361a16.3,16.3,0,0,1,6.9-1.26,17.62,17.62,0,0,1,2.16.13Zm-4.11,5.07a15.74,15.74,0,0,0-3-.36,8.46,8.46,0,0,0-5.2,1.64c-1.49,1.09-2.86,3.06-4.13,5.9a20.56,20.56,0,0,0-1.91,8.51,5.4,5.4,0,0,0,.76,3.25,2.4,2.4,0,0,0,2,1c1.53,0,3.16-.83,4.91-2.48a14.6,14.6,0,0,0,3.85-7.11Z" transform="translate(-133.27 -141.51)"/><path d="M332.29,387.08h-4.94l2.32-8.93q1.69-6.57,3-12.47a14.12,14.12,0,0,0,.29-1.82c0-.53-.24-.8-.72-.8a3.31,3.31,0,0,0-1.53.68,31.69,31.69,0,0,0-3.72,3.37l-1-1.16a25.11,25.11,0,0,1,6.35-5.13,11.49,11.49,0,0,1,4.85-1.71,1.46,1.46,0,0,1,.95.29.87.87,0,0,1,.35.71,15.49,15.49,0,0,1-.44,2.3l-1.44,6a42.45,42.45,0,0,1,7.57-9.06q2-1.8,3.39-1.8a2.32,2.32,0,0,1,1.67.65,2,2,0,0,1,.66,1.51,2,2,0,0,1-.65,1.52,9.87,9.87,0,0,1-3.23,1.5,14,14,0,0,0-4,2,18.28,18.28,0,0,0-3.38,3.55A18.7,18.7,0,0,0,336,372.4a69,69,0,0,0-2.23,8.24Z" transform="translate(-133.27 -141.51)"/><circle class="cls-1" cx="166.3" cy="203.28" r="87.25"/><line class="cls-1" x1="0.83" y1="176.63" x2="52.95" y2="176.63"/><line class="cls-1" x1="0.83" y1="230.42" x2="52.95" y2="230.42"/><path d="M156.88,362.32H133.27c.46-8.33,4.5-11.3,10.79-15.23,3.88-2.45,8.63-5.11,8.63-10.38a6.61,6.61,0,0,0-7-6.84c-5.42,0-6.95,4.6-7.05,9.09h-4.4v-1c0-7.15,4.65-11.9,11.66-11.9,6.84,0,11.29,4.13,11.29,10.52,0,7.05-5.52,10.43-10.83,13.65-3.33,2-7.11,4-8.08,8.12h18.6Z" transform="translate(-133.27 -141.51)"/><path d="M186.68,345.1c0,8.53-1.54,17.93-11.91,17.93-11,0-12.27-9.4-12.27-18s.87-18.9,12.06-18.9S186.68,336.46,186.68,345.1ZM167.1,345c0,5.37.16,14.21,7.57,14.21S182,350,182,344.79c0-5.37.15-14.82-7.47-14.82S167.1,339.47,167.1,345Z" transform="translate(-133.27 -141.51)"/><line class="cls-1" x1="276.83" y1="176.63" x2="328.95" y2="176.63"/><line class="cls-1" x1="276.83" y1="230.42" x2="328.95" y2="230.42"/><path d="M425,362.32h-4.75V336.1h-9.1v-3.27c5.37,0,9.2-1.28,10.43-6.69H425Z" transform="translate(-133.27 -141.51)"/><path d="M438.58,335.33c0-5.46,4.45-9.24,10.79-9.24s10.68,3.73,10.68,9a8.13,8.13,0,0,1-5,7.82c4.24,1.48,6.39,4.5,6.39,8.84,0,6.9-4.76,11.24-12.27,11.24-7.2,0-12-4.34-12-10.93a9.2,9.2,0,0,1,6.39-9.15A7.91,7.91,0,0,1,438.58,335.33ZM441.75,352a7.19,7.19,0,0,0,7.56,7.36c4.5,0,7.62-3,7.62-7.31s-3.12-7.2-7.72-7.2C444.87,344.84,441.75,347.85,441.75,352ZM443,335.64c0,3.43,2.55,5.67,6.34,5.67s6.23-2.24,6.23-5.67-2.45-5.67-6.23-5.67S443,332.22,443,335.64Z" transform="translate(-133.27 -141.51)"/><line class="cls-2" x1="250.13" y1="120.89" x2="265.77" y2="105.25"/><polyline class="cls-2" points="236.29 108.84 242.49 100.32 245.15 96.65 248.64 91.84 268.75 64.17"/><line class="cls-2" x1="220.73" y1="99.08" x2="233.58" y2="73.85"/><line class="cls-2" x1="211.44" y1="68.31" x2="224.23" y2="28.97"/><line class="cls-2" x1="203.8" y1="91.84" x2="207.92" y2="79.14"/><line class="cls-2" x1="193.59" y1="38.87" x2="196.24" y2="22.18"/><line class="cls-2" x1="185.91" y1="87.37" x2="192.35" y2="46.69"/><path class="cls-2" d="M300.79,141.51" transform="translate(-133.27 -141.51)"/><line class="cls-2" x1="167.52" y1="68.33" x2="167.52" y2="86.99"/><line class="cls-2" x1="167.52" x2="167.52" y2="57.67"/><line class="cls-2" x1="84.76" y1="120.44" x2="69.12" y2="104.8"/><polyline class="cls-2" points="98.6 108.39 92.4 99.86 89.74 96.19 86.25 91.39 66.14 63.72"/><line class="cls-2" x1="114.16" y1="98.62" x2="101.31" y2="73.4"/><line class="cls-2" x1="123.45" y1="67.86" x2="110.66" y2="28.52"/><line class="cls-2" x1="131.09" y1="91.39" x2="126.97" y2="78.69"/><line class="cls-2" x1="141.3" y1="38.41" x2="138.65" y2="21.73"/><line class="cls-2" x1="148.98" y1="86.92" x2="142.54" y2="46.24"/><path class="cls-2" d="M300.65,141.06" transform="translate(-133.27 -141.51)"/></svg>