<?xml version="1.0" encoding="utf-8"?>
<!-- Generator: Adobe Illustrator 22.1.0, SVG Export Plug-In . SVG Version: 6.00 Build 0)  -->
<svg version="1.1" id="Layer_1" xmlns="http://www.w3.org/2000/svg" xmlns:xlink="http://www.w3.org/1999/xlink" x="0px" y="0px"
	 viewBox="0 0 46.5 68.4" style="enable-background:new 0 0 46.5 68.4;" xml:space="preserve">
<path d="M18.3,26.6l0.1-0.5c0.8,0,1.6-0.2,2.5-0.4c-0.2,0.7-0.4,1.3-0.5,1.7l-0.5,2.3c1.2,0,2.1-0.3,2.7-0.9s0.9-1.3,0.9-2.1
	c0-0.6-0.2-1-0.7-1.4c-0.4-0.4-1.1-0.5-2-0.5c-1.2,0-2.4,0.3-3.5,0.9s-2,1.4-2.6,2.3s-0.9,1.9-0.9,2.8c0,0.3,0,0.5,0.1,0.7
	s0.2,0.4,0.3,0.6c0.1,0.1,0.3,0.3,0.5,0.5c0.3,0.2,0.5,0.4,0.6,0.5s0.1,0.2,0.1,0.4c0,0.1,0,0.3-0.2,0.4c-0.1,0.1-0.2,0.2-0.4,0.2
	c-0.4,0-0.8-0.3-1.2-0.9c-0.4-0.6-0.6-1.3-0.6-2.1c0-1.1,0.3-2.3,1-3.3c0.7-1.1,1.6-1.9,2.9-2.6s2.6-1,4.1-1c1.2,0,2.2,0.2,2.8,0.7
	s0.9,1.1,0.9,1.8c0,0.7-0.2,1.3-0.6,1.8s-1.1,1-2,1.3c0.6,0.1,1.1,0.3,1.4,0.5s0.6,0.5,0.8,0.9c0.2,0.3,0.3,0.7,0.3,1.2
	c0,0.7-0.2,1.4-0.7,2.1c-0.4,0.7-1.1,1.2-1.9,1.6c-0.8,0.4-1.7,0.7-2.6,0.7c-0.3,0-0.8,0-1.7-0.1c-0.4,0-0.9,0-1.3,0
	c-0.7,0-1.3,0-1.8,0.2l0.2-0.6c0.7,0,1.2-0.2,1.5-0.5c0.3-0.3,0.6-1,0.9-2l1.5-5.9c0.1-0.2,0.1-0.5,0.1-0.6s0-0.2-0.1-0.3
	c-0.1-0.1-0.2-0.1-0.3-0.1C18.4,26.6,18.4,26.6,18.3,26.6z M19.7,30.3l-0.5,2.1c-0.3,1.1-0.5,1.9-0.8,2.5c-0.1,0.3-0.3,0.6-0.6,0.9
	c0.6,0.2,1.1,0.2,1.6,0.2c1.2,0,2.1-0.4,2.7-1.1c0.6-0.7,0.9-1.6,0.9-2.5c0-0.5-0.1-0.8-0.3-1.2c-0.2-0.3-0.5-0.5-0.9-0.7
	C21.4,30.4,20.7,30.3,19.7,30.3z"/>
<path d="M25.2,31.8l0.1-0.5c0.8,0,1.6-0.2,2.5-0.4c-0.2,0.7-0.4,1.3-0.5,1.7l-0.5,2.3c1.2,0,2.1-0.3,2.7-0.9s0.9-1.3,0.9-2.1
	c0-0.6-0.2-1-0.7-1.4c-0.4-0.4-1.1-0.5-2-0.5c-1.2,0-2.4,0.3-3.5,0.9s-2,1.4-2.6,2.3s-0.9,1.9-0.9,2.8c0,0.3,0,0.5,0.1,0.7
	s0.2,0.4,0.3,0.6c0.1,0.1,0.3,0.3,0.5,0.5c0.3,0.2,0.5,0.4,0.6,0.5s0.1,0.2,0.1,0.4c0,0.1,0,0.3-0.2,0.4c-0.1,0.1-0.2,0.2-0.4,0.2
	c-0.4,0-0.8-0.3-1.2-0.9c-0.4-0.6-0.6-1.3-0.6-2.1c0-1.1,0.3-2.3,1-3.3c0.7-1.1,1.6-1.9,2.9-2.6s2.6-1,4.1-1c1.2,0,2.2,0.2,2.8,0.7
	s0.9,1.1,0.9,1.8s-0.2,1.3-0.6,1.8s-1.1,1-2,1.3c0.6,0.1,1.1,0.3,1.4,0.5s0.6,0.5,0.8,0.9c0.2,0.3,0.3,0.7,0.3,1.2
	c0,0.7-0.2,1.4-0.7,2.1c-0.4,0.7-1.1,1.2-1.9,1.6c-0.8,0.4-1.7,0.7-2.6,0.7c-0.3,0-0.8,0-1.7-0.1c-0.4,0-0.9,0-1.3,0
	c-0.7,0-1.3,0-1.8,0.2l0.2-0.6c0.7,0,1.2-0.2,1.5-0.5s0.6-1,0.9-2l1.5-5.9c0.1-0.2,0.1-0.5,0.1-0.6s0-0.2-0.1-0.3s-0.2-0.1-0.3-0.1
	C25.4,31.7,25.3,31.8,25.2,31.8z M26.6,35.4l-0.5,2.1c-0.3,1.1-0.5,1.9-0.8,2.5c-0.1,0.3-0.3,0.6-0.6,0.9c0.6,0.2,1.1,0.2,1.6,0.2
	c1.2,0,2.1-0.4,2.7-1.1c0.6-0.7,0.9-1.6,0.9-2.5c0-0.5-0.1-0.8-0.3-1.2c-0.2-0.3-0.5-0.5-0.9-0.7C28.4,35.5,27.7,35.4,26.6,35.4z"/>
<path d="M23,19.7c-7.5,0-13.7,6.1-13.7,13.7C9.3,40.9,15.4,47,23,47c7.5,0,13.7-6.2,13.7-13.7S30.6,19.7,23,19.7z M23,46.7
	c-7.3,0-13.3-6-13.3-13.3C9.7,26,15.6,20,23,20c7.3,0,13.3,6,13.3,13.3C36.3,40.7,30.3,46.7,23,46.7z"/>
</svg>
