<?xml version="1.0" encoding="utf-8"?>
<!-- Generator: Adobe Illustrator 22.1.0, SVG Export Plug-In . SVG Version: 6.00 Build 0)  -->
<svg version="1.1" id="Слой_1" xmlns="http://www.w3.org/2000/svg" xmlns:xlink="http://www.w3.org/1999/xlink" x="0px" y="0px"
	 viewBox="0 0 308.7 58.6" style="enable-background:new 0 0 308.7 58.6;" xml:space="preserve">
<style type="text/css">
	.st0{fill:#219653;}
	.st1{fill:#58595B;}
</style>
<title>Logo EcoMarket NEW OK</title>
<path class="st0" d="M263.2,33.4c0.7,0.9,1.6,1.7,2.7,2.1c1.1,0.5,2.3,0.7,3.5,0.7c1.6,0,3.2-0.3,4.7-1c1.4-0.8,2.7-1.8,3.9-3l5.8,4
	c-1.5,2.1-3.5,3.8-5.8,5c-2.5,1.3-5.3,1.9-8.1,1.9c-2.4,0-4.8-0.5-7.1-1.4c-2.1-0.8-4-2.2-5.5-3.9c-2.5-3.1-3.9-7-3.9-11
	c0-2.2,0.3-4.4,1-6.5c0.6-1.9,1.6-3.8,2.9-5.3c1.5-1.7,3.3-3.1,5.4-3.9c4.3-1.8,9.2-1.8,13.5,0c2.1,0.9,3.9,2.2,5.4,3.9
	c2.6,3.2,4,7.2,3.9,11.4c0,1-0.1,2-0.2,2.9h-23.7C261.8,30.8,262.3,32.2,263.2,33.4z M265.9,17.3c-1,0.5-2,1.2-2.6,2.1
	c-0.7,0.9-1.1,1.8-1.4,2.9H277c-0.3-1-0.8-2-1.4-2.9c-0.7-0.9-1.6-1.7-2.6-2.1c-1.1-0.5-2.3-0.7-3.5-0.7
	C268.2,16.5,267,16.8,265.9,17.3L265.9,17.3z"/>
<path class="st0" d="M8,7.5v9.9h16.1v7.4H8v10h19.6v7.4H0V0h27.6v7.5H8z"/>
<path class="st0" d="M52.8,20.9c-0.2-0.3-0.4-0.7-0.7-1c-0.6-0.9-1.5-1.6-2.5-2c-1-0.5-2.2-0.7-3.3-0.7c-1.1,0-2.3,0.2-3.3,0.7
	c-1,0.4-1.8,1.1-2.5,2c-1.1,1.5-1.7,3.7-1.8,6.6s0.7,5.1,1.8,6.6c0.6,0.9,1.5,1.6,2.5,2c1,0.5,2.2,0.7,3.3,0.7
	c1.2,0,2.3-0.3,3.4-0.8c1-0.4,1.8-1.1,2.5-2l0.6-1l7.5,3.2c-0.5,0.9-1.1,1.8-1.8,2.6c-1.5,1.7-3.3,3.1-5.4,4
	c-2.1,0.9-4.4,1.4-6.8,1.3c-2.3,0.1-4.6-0.3-6.7-1.3c-2.1-0.9-3.9-2.3-5.4-4c-2.6-3.2-4-7.2-3.9-11.4c-0.1-4.2,1.3-8.2,3.9-11.4
	c1.4-1.8,3.3-3.1,5.4-4c4.3-1.8,9.1-1.8,13.5,0c2.1,0.9,3.9,2.2,5.4,3.9c0.7,0.8,1.3,1.7,1.8,2.7L52.8,20.9z"/>
<path class="st0" d="M72.1,41.8c-2.1-0.9-3.9-2.2-5.4-3.9c-2.6-3.2-4-7.3-3.9-11.4c-0.1-4.2,1.3-8.2,3.9-11.4c1.5-1.7,3.3-3,5.4-3.9
	c2.1-0.9,4.4-1.4,6.8-1.4c2.3,0,4.6,0.4,6.8,1.4c2.1,0.9,3.9,2.2,5.4,3.9c2.7,3.2,4,7.3,3.9,11.4c0,2.1-0.3,4.2-0.9,6.2
	c-0.7,1.9-1.7,3.7-3,5.3c-1.5,1.7-3.3,3-5.4,3.9c-2.1,0.9-4.5,1.4-6.8,1.3C76.6,43.1,74.3,42.7,72.1,41.8z M86.6,26.4
	c0.1-2.4-0.5-4.7-1.9-6.6c-0.6-0.9-1.5-1.6-2.5-2c-2.1-0.9-4.5-0.9-6.7,0c-1,0.4-1.8,1.1-2.5,2c-1.2,1.5-1.8,3.7-1.8,6.6
	c0,2.9,0.6,5.1,1.8,6.6c0.6,0.9,1.5,1.6,2.5,2c2.1,0.9,4.5,0.9,6.6,0c1-0.4,1.8-1.1,2.5-2C86,31,86.7,28.7,86.6,26.4z"/>
<path class="st0" d="M162.8,42.2h-8.1V17l-12.3,25.2h-2.8l-12.3-25.2v25.2h-8.1V0h8.1L141,28l13.7-28h8.1V42.2z"/>
<path class="st0" d="M188.4,42.2v-3.9c-1.3,1.6-2.9,2.9-4.8,3.7c-2,0.7-4,1.1-6.1,1c-2.8,0.2-5.5-0.8-7.6-2.6
	c-1.9-1.9-2.9-4.5-2.8-7.1c0-4.4,1.9-7.4,5.6-9.1c1.8-0.8,3.6-1.4,5.5-1.7c2.2-0.4,4.7-0.8,7.5-1.2l1.8-0.2
	c-0.2-1.2-0.9-2.2-1.9-2.9c-1.3-0.7-2.7-1.1-4.2-1c-1.5,0-2.9,0.3-4.3,0.8c-1.3,0.5-2.5,1.3-3.6,2.2l-4.6-5.3c1.7-1.7,3.7-3,5.9-4
	c2.3-0.9,4.8-1.4,7.3-1.3c1.7,0,3.4,0.3,5,1c1.6,0.6,3,1.4,4.3,2.5c2.8,2.3,4.2,5.8,4.2,10.2v18.9H188.4z M187.3,30.5
	c0.1-1,0.2-2.1,0.2-3.1c-1.8,0.4-4.5,0.9-8,1.6c-1.2,0.2-2.3,0.7-3.3,1.4c-0.8,0.5-1.3,1.4-1.3,2.4c0,1.1,0.5,2.1,1.3,2.7
	c0.9,0.7,2.1,1.1,3.2,1c1.4,0,2.8-0.3,4.1-1c1.2-0.6,2.2-1.5,2.9-2.6C186.8,32.1,187.1,31.3,187.3,30.5z"/>
<path class="st0" d="M222,10.6V18c-1.6-0.6-3.2-0.9-4.9-0.9c-2.7,0-4.8,0.7-6.2,2.2c-1.4,1.7-2.2,3.8-2.1,6v16.9h-8V10.6h7v4.3
	c0.8-1.4,2-2.7,3.4-3.5c1.9-1.1,4.1-1.7,6.3-1.6C219,9.7,220.5,10,222,10.6z"/>
<path class="st0" d="M233.4,42.2h-8.1V0h8.1v23.4h3.3l8.1-12.8h8.9l-10,15.8l10.8,15.9h-9l-8.7-12.7h-3.4V42.2z"/>
<path class="st1" d="M176,49.3v9.2h-1.8v-6.2l-4,6.1h-1.8v-9.2h1.8v6.1l4-6.1H176z"/>
<path class="st1" d="M185.6,49.3v9.2h-1.7v-3.2h-4.1v3.2H178v-9.2h1.7v4.4h4.1v-4.4H185.6z"/>
<path class="st1" d="M194.5,50.9h-2.9v7.6h-1.7v-7.6H187v-1.6h7.5L194.5,50.9z"/>
<path class="st1" d="M197.5,50.9V53h3.5v1.6h-3.5v2.2h4.3v1.7h-6v-9.2h6v1.6H197.5z"/>
<path class="st1" d="M211,53.3c-0.1,0.3-0.3,0.6-0.4,0.8c-0.3,0.4-0.6,0.7-1.1,0.9c-0.4,0.2-0.9,0.3-1.4,0.3h-2.5v3.2h-1.7v-9.2h4.2
	c0.3,0,0.6,0,0.9,0.1c0.3,0.1,0.6,0.2,0.9,0.4c0.3,0.2,0.5,0.4,0.7,0.7c0.2,0.3,0.3,0.6,0.4,0.9c0.1,0.3,0.2,0.7,0.2,1
	C211.2,52.7,211.1,53,211,53.3z M209.4,52.3c0-0.3-0.1-0.7-0.3-0.9c-0.1-0.1-0.3-0.3-0.5-0.4c-0.2-0.1-0.3-0.1-0.5-0.1h-2.4v2.8h2.4
	c0.2,0,0.4-0.1,0.6-0.2c0.2-0.1,0.4-0.2,0.5-0.4C209.3,52.9,209.4,52.6,209.4,52.3z"/>
<path class="st1" d="M220.2,49.3v9.2h-1.7v-3.2h-4.1v3.2h-1.7v-9.2h1.7v4.4h4.1v-4.4H220.2z"/>
<path class="st1" d="M224,50.9V53h3.5v1.6H224v2.2h4.3v1.7h-6v-9.2h6v1.6H224z"/>
<path class="st1" d="M237.1,50.9h-2.9v7.6h-1.7v-7.6h-2.9v-1.6h7.5V50.9z"/>
<path class="st1" d="M244.6,54.1v1.4h-3.8v-1.4H244.6z"/>
<path class="st1" d="M256.1,58.5h-1.8V53l-2.7,5.5H251l-2.7-5.5v5.5h-1.8v-9.2h1.8l3,6.1l3-6.1h1.8L256.1,58.5z"/>
<path class="st1" d="M263.5,57h-3.8l-0.4,1.4h-1.8l2.8-9.2h2.6l2.8,9.2h-1.8L263.5,57z M263,55.4l-1.4-4.5l-1.4,4.5H263z"/>
<path class="st1" d="M273.2,50.9h-4.3v7.6h-1.7v-9.2h6L273.2,50.9z"/>
<path class="st1" d="M279.6,57h-3.8l-0.4,1.4h-1.8l2.8-9.2h2.6l2.8,9.2H280L279.6,57z M279.1,55.4l-1.4-4.5l-1.4,4.5H279.1z"/>
<path class="st1" d="M283.4,50.3c0.2-0.3,0.5-0.6,0.9-0.8c0.3-0.2,0.6-0.3,0.9-0.3c0.3-0.1,0.7-0.1,1-0.1c0.3,0,0.7,0,1,0.1
	c0.3,0.1,0.6,0.2,0.9,0.3c0.4,0.2,0.7,0.5,1,0.9c0.2,0.4,0.3,0.8,0.3,1.3c0,0.4-0.1,0.9-0.3,1.3c-0.1,0.2-0.3,0.4-0.4,0.5
	c0.3,0.2,0.5,0.5,0.7,0.9c0.2,0.4,0.3,0.9,0.3,1.3c0,0.5-0.1,0.9-0.3,1.4c-0.2,0.4-0.5,0.8-0.9,1c-0.7,0.4-1.4,0.6-2.2,0.6
	c-0.8,0-1.5-0.2-2.2-0.6c-0.3-0.2-0.6-0.5-0.9-0.9c-0.2-0.3-0.4-0.7-0.4-1.2l1.8-0.3c0,0.2,0,0.4,0.1,0.5c0.1,0.2,0.2,0.3,0.3,0.4
	c0.2,0.1,0.3,0.2,0.5,0.3c0.2,0.1,0.4,0.1,0.6,0.1c0.4,0,0.9-0.1,1.2-0.3c0.3-0.2,0.5-0.6,0.5-1c0-0.4-0.1-0.8-0.5-1
	c-0.3-0.2-0.7-0.3-1.2-0.3h-0.6v-1.6h0.6c0.3,0,0.7-0.1,1-0.3c0.3-0.2,0.4-0.5,0.4-0.8c0-0.3-0.1-0.6-0.4-0.8
	c-0.3-0.2-0.6-0.3-1-0.3c-0.4,0-0.7,0.1-1,0.3c-0.2,0.2-0.4,0.4-0.4,0.7l-1.8-0.3C283,51,283.1,50.6,283.4,50.3z"/>
<path class="st1" d="M299,49.3v9.2h-1.8v-6.2l-4,6.1h-1.8v-9.2h1.8v6.1l4-6.1H299z"/>
<path class="st1" d="M308.7,49.3v9.2H307v-3.2h-4.1v3.2h-1.7v-9.2h1.7v4.4h4.1v-4.4H308.7z"/>
<path class="st0" d="M308.7,16.7v-6.2h-9.1V1.8h-8v8.8h-5.4v6.2h5.4v12.1c0,1.7,0.1,3.4,0.3,5.2c0.2,1.4,0.6,2.7,1.2,3.9
	c1.1,2.2,3.3,3.7,6.3,4.6c1.1,0.3,2.3,0.4,3.5,0.4h5.8v-7.2h-3.2h-0.3c-0.5,0-1.1,0-1.6-0.1c-0.6-0.1-1.3-0.3-1.8-0.6
	c-0.6-0.3-1.1-0.8-1.4-1.3c-0.3-0.6-0.6-1.3-0.6-2c-0.1-1.1-0.2-2.3-0.1-3.4V16.7H308.7z"/>
<rect x="101.7" y="22.2" class="st0" width="10.8" height="7"/>
</svg>
