<svg width="30" height="30" viewBox="0 0 30 30" fill="none" xmlns="http://www.w3.org/2000/svg">
<circle cx="15" cy="15" r="14.5" stroke="black"/>
<path d="M24.3611 23.2168L19.6011 18.2662C20.825 16.8113 21.4956 14.9807 21.4956 13.075C21.4956 8.62251 17.8731 5 13.4206 5C8.96809 5 5.34558 8.62251 5.34558 13.075C5.34558 17.5275 8.96809 21.15 13.4206 21.15C15.0921 21.15 16.685 20.6458 18.0468 19.6888L22.843 24.677C23.0435 24.8852 23.3131 25 23.6021 25C23.8756 25 24.135 24.8957 24.332 24.7061C24.7505 24.3034 24.7638 23.6357 24.3611 23.2168ZM13.4206 7.10652C16.7117 7.10652 19.389 9.78391 19.389 13.075C19.389 16.3661 16.7117 19.0435 13.4206 19.0435C10.1295 19.0435 7.4521 16.3661 7.4521 13.075C7.4521 9.78391 10.1295 7.10652 13.4206 7.10652Z" fill="black"/>
</svg>
