<svg width="20" height="20" viewBox="0 0 20 20" fill="none" xmlns="http://www.w3.org/2000/svg">
<path fill-rule="evenodd" clip-rule="evenodd" d="M12.9456 5.30664H7.00067C6.05179 5.30664 5.27979 6.07861 5.27979 7.02734V12.9727C5.27979 13.9214 6.05179 14.6934 7.00067 14.6934H12.9456C13.8944 14.6934 14.6667 13.9214 14.6667 12.9727V7.02734C14.6667 6.07861 13.8947 5.30664 12.9456 5.30664ZM9.97311 13.0903C8.26935 13.0903 6.88312 11.7041 6.88312 10C6.88312 8.29639 8.26935 6.91016 9.97311 6.91016C11.6771 6.91016 13.0634 8.29639 13.0634 10C13.0634 11.7041 11.6769 13.0903 9.97311 13.0903ZM12.4313 6.81738C12.4313 7.2207 12.7593 7.54883 13.1627 7.54883C13.5658 7.54883 13.8938 7.2207 13.8938 6.81738C13.8938 6.41455 13.5658 6.08643 13.1627 6.08643C12.7593 6.08643 12.4313 6.41455 12.4313 6.81738Z" fill="black"/>
<path d="M9.9731 8.21582C8.98955 8.21582 8.18866 9.01626 8.18866 9.99982C8.18866 10.9838 8.98955 11.7845 9.9731 11.7845C10.9571 11.7845 11.7573 10.9838 11.7573 9.99982C11.7573 9.01649 10.9569 8.21582 9.9731 8.21582Z" fill="black"/>
<path fill-rule="evenodd" clip-rule="evenodd" d="M0 9.97314C0 4.46533 4.46533 0 9.97311 0C15.4809 0 19.9462 4.46533 19.9462 9.97314C19.9462 15.481 15.4809 19.9463 9.97311 19.9463C4.46533 19.9463 0 15.481 0 9.97314ZM12.9456 15.999C14.6147 15.999 15.9722 14.6416 15.9722 12.9727V7.02783C15.9722 5.35889 14.6147 4.00098 12.9456 4.00098H7.00067C5.33179 4.00098 3.974 5.35889 3.974 7.02783V12.9727C3.974 14.6416 5.33179 15.999 7.00067 15.999H12.9456Z" fill="black"/>
</svg>
