<svg width="231" height="58" viewBox="0 0 231 58" fill="none" xmlns="http://www.w3.org/2000/svg">
<path d="M141.752 31.2586C141.752 25.3222 144.026 19.5523 148.964 19.5523C153.236 19.5523 155.955 24.601 155.955 30.5929C155.955 37.4724 153.292 42.743 148.853 42.743C143.915 42.7985 141.752 36.5292 141.752 31.2586ZM152.626 31.9244C152.626 26.9867 151.461 21.4386 148.465 21.4386C146.911 21.4386 145.191 22.9366 145.191 29.9826C145.191 35.5861 146.523 40.9122 149.408 40.9122C150.462 40.9122 152.626 40.08 152.626 31.9244Z" fill="black"/>
<path d="M160.171 39.5251C158.507 37.0285 158.063 33.9771 158.063 30.8148C158.063 28.8175 158.451 25.1558 160.171 22.6037C161.614 20.44 163.333 19.5523 165.775 19.5523C166.718 19.5523 167.494 19.7188 168.16 19.8852C168.937 20.1071 169.325 20.2181 169.825 20.2736C169.991 20.329 169.991 20.4955 169.991 20.6619C169.991 20.8838 169.936 21.6051 169.88 22.6037C169.825 23.6024 169.88 25.3222 169.825 26.0435C169.825 26.4873 169.769 26.7647 169.603 26.7647C169.492 26.7647 169.436 26.5428 169.381 26.1545C169.381 25.4887 169.27 24.3236 168.715 23.2695C168.105 22.1599 166.94 21.3832 165.275 21.3832C164.277 21.3832 163.444 21.7715 162.779 22.8256C161.725 24.3791 161.281 27.1531 161.281 30.3155C161.281 36.4183 163.167 40.5238 165.997 40.5238C167.384 40.5238 168.271 40.3019 168.881 39.0258C169.103 38.582 169.325 37.9162 169.436 37.0285C169.547 36.4183 169.547 36.1963 169.714 36.1963C169.825 36.1963 169.825 36.4737 169.825 36.7511C169.825 37.2505 169.603 39.858 169.436 41.245C169.381 41.6889 169.27 41.9108 168.992 42.0772C168.327 42.5766 167.162 42.743 166.107 42.743C164.055 42.7985 161.891 42.1327 160.171 39.5251Z" fill="black"/>
<path d="M171.877 31.2586C171.877 25.3222 174.152 19.5523 179.09 19.5523C183.362 19.5523 186.08 24.601 186.08 30.5929C186.08 37.4724 183.417 42.743 178.979 42.743C173.986 42.7985 171.877 36.5292 171.877 31.2586ZM182.696 31.9244C182.696 26.9867 181.531 21.4386 178.535 21.4386C176.982 21.4386 175.262 22.9366 175.262 29.9826C175.262 35.5861 176.593 40.9122 179.478 40.9122C180.532 40.9122 182.696 40.08 182.696 31.9244Z" fill="black"/>
<path d="M198.508 33.8106C198.508 36.1408 198.508 38.9148 198.619 40.1354C198.674 40.9121 198.785 41.5224 199.285 41.6888C199.506 41.7443 199.728 41.7998 199.95 41.7998C200.228 41.8553 200.283 41.9107 200.283 42.0772C200.283 42.2436 200.228 42.3546 199.95 42.3546C198.785 42.3546 197.01 42.2436 196.843 42.2436C196.732 42.2436 194.902 42.3546 194.347 42.3546C194.125 42.3546 194.014 42.2991 194.014 42.0772C194.014 41.8553 194.125 41.7998 194.347 41.7998C194.513 41.7443 194.68 41.7443 194.846 41.6888C195.235 41.5779 195.401 41.1895 195.456 40.0799C195.512 38.8593 195.567 36.6956 195.567 33.8106V31.5914C194.624 32.2572 193.626 32.3682 192.793 32.3682C191.295 32.3682 189.964 31.5914 189.187 30.0935C188.854 29.3722 188.466 28.2071 188.466 25.4331C188.466 24.1571 188.466 23.103 188.41 22.1598C188.355 21.3276 188.299 20.7728 187.8 20.6618C187.578 20.5509 187.467 20.5509 187.301 20.5509C187.023 20.4954 186.968 20.329 186.968 20.218C186.968 19.9961 187.134 19.9406 187.356 19.9406C188.299 19.9406 189.465 20.0516 189.797 20.0516C190.186 20.0516 191.573 19.9406 192.239 19.9406C192.516 19.9406 192.627 20.0516 192.627 20.218C192.627 20.329 192.571 20.4954 192.294 20.5509C191.684 20.7173 191.517 20.9392 191.462 22.3263C191.406 23.5468 191.406 24.6564 191.406 25.877C191.406 29.2613 192.571 30.3709 194.069 30.3709C194.624 30.3709 195.124 30.2599 195.567 30.038V28.54C195.567 23.9352 195.567 23.103 195.512 22.1598C195.456 21.3276 195.345 20.7728 194.791 20.6618C194.624 20.6064 194.513 20.5509 194.347 20.5509C194.125 20.4954 194.014 20.4399 194.014 20.218C194.014 20.0516 194.125 19.9406 194.402 19.9406C195.068 19.9406 196.677 20.0516 196.843 20.0516C197.01 20.0516 198.952 19.9406 199.562 19.9406C199.839 19.9406 199.95 20.0516 199.95 20.218C199.95 20.4399 199.839 20.5509 199.617 20.5509C199.451 20.6064 199.285 20.6064 199.118 20.6618C198.674 20.8283 198.563 21.2721 198.508 22.2153C198.452 23.1585 198.452 23.9352 198.452 28.54V33.8106H198.508Z" fill="black"/>
<path d="M206.719 30.3709C207.662 28.8729 209.049 26.3208 210.381 23.6578C210.935 22.5482 211.268 21.716 211.268 21.2166C211.268 20.8838 211.213 20.7173 210.769 20.5509C210.603 20.4954 210.492 20.4399 210.492 20.2735C210.492 20.1071 210.603 19.9961 210.769 19.9961C211.546 19.9961 211.601 20.0516 212.544 20.0516C213.543 20.0516 214.764 19.9961 214.985 19.9961C215.263 19.9961 215.318 20.0516 215.318 20.2735C215.318 20.4399 215.207 20.5509 215.041 20.5509C214.764 20.6064 214.653 20.6619 214.431 20.7173C213.598 20.9947 213.044 21.8824 212.267 23.2694C211.49 24.5455 209.604 28.0407 209.16 28.8729C209.826 30.7038 212.6 36.5846 213.765 38.6929C214.764 40.5237 215.263 41.134 215.54 41.4114C215.818 41.6333 216.04 41.7443 216.317 41.7998C216.539 41.8553 216.65 41.9107 216.65 42.1327C216.65 42.3546 216.483 42.4101 216.317 42.4101H214.653C212.433 42.4101 211.657 42.0217 210.769 40.3573C209.826 38.5819 207.995 34.4209 206.719 31.2031V33.8106C206.719 36.1408 206.719 38.8038 206.83 40.0799C206.885 40.8011 206.996 41.5779 207.551 41.6888C207.773 41.7443 208.05 41.7998 208.272 41.7998C208.494 41.7998 208.55 41.9662 208.55 42.0772C208.55 42.2436 208.494 42.3546 208.217 42.3546C207.107 42.3546 205.276 42.2436 205.165 42.2436C205.055 42.2436 203.168 42.3546 202.613 42.3546C202.391 42.3546 202.281 42.2991 202.281 42.0772C202.281 41.8553 202.391 41.7998 202.558 41.7998C202.724 41.7443 202.891 41.7443 203.057 41.6888C203.557 41.5224 203.612 40.8566 203.668 39.9689C203.723 38.7484 203.778 36.6401 203.778 33.7552V28.54C203.778 23.9352 203.778 23.103 203.723 22.1598C203.668 21.3276 203.501 20.7728 203.113 20.6618C202.835 20.5509 202.613 20.5509 202.447 20.5509C202.225 20.5509 202.114 20.4954 202.114 20.218C202.114 20.0516 202.225 19.9406 202.558 19.9406C203.279 19.9406 204.999 20.0516 205.11 20.0516C205.276 20.0516 207.329 19.9406 207.939 19.9406C208.217 19.9406 208.272 20.0516 208.272 20.218C208.272 20.4399 208.161 20.4954 207.995 20.5509C207.829 20.6064 207.718 20.6064 207.496 20.6618C206.885 20.8283 206.83 21.4941 206.774 22.4372C206.719 23.3804 206.719 23.9907 206.719 28.54V30.3709Z" fill="black"/>
<path d="M220.533 35.2531C221.92 32.4791 223.64 28.9284 224.362 27.4304C225.36 25.3777 226.081 23.9907 226.969 22.2153C228.134 19.9406 228.467 19.6077 228.745 19.6077C228.966 19.6077 229.022 19.8851 229.022 21.7714C229.077 27.6523 229.022 33.4223 229.133 39.2477C229.188 41.134 229.244 41.4669 229.91 41.6888C230.021 41.7443 230.353 41.7443 230.464 41.7998C230.797 41.9107 230.853 41.9662 230.853 42.0772C230.853 42.3546 230.742 42.3546 230.464 42.3546C229.799 42.3546 227.413 42.2991 226.969 42.2436C226.248 42.2436 225.471 42.3546 224.861 42.3546C224.584 42.3546 224.473 42.2436 224.473 42.0772C224.473 41.8553 224.584 41.8553 224.861 41.7998C225.027 41.7443 225.138 41.7443 225.305 41.6888C225.915 41.5779 226.026 40.9121 226.026 38.9703C226.137 35.8079 226.081 30.8702 226.137 27.153C225.582 28.2626 224.972 29.5387 224.084 31.3695C220.866 37.8607 219.257 40.9121 218.647 41.9662C218.148 42.8539 217.926 42.9649 217.815 42.9649C217.593 42.9649 217.538 42.4655 217.538 41.5779C217.538 37.6942 217.593 30.3709 217.538 24.3235C217.482 21.4941 217.538 20.7728 216.761 20.6064C216.594 20.5509 216.483 20.5509 216.317 20.5509C216.095 20.4954 216.04 20.3845 216.04 20.218C216.04 19.9961 216.151 19.9406 216.372 19.9406C216.983 19.9406 218.647 20.0516 219.035 20.0516C220.145 19.9961 221.31 19.9406 221.754 19.9406C222.031 19.9406 222.142 19.9961 222.142 20.218C222.142 20.3845 222.031 20.4954 221.809 20.4954C221.643 20.4954 221.421 20.5509 221.255 20.5509C220.589 20.7173 220.533 21.4941 220.478 23.8797L220.533 35.2531Z" fill="black"/>
<path d="M141.141 45.2396C137.979 49.4561 135.371 51.2869 132.986 51.2869C129.213 51.2869 125.552 47.6807 121.945 40.4128C127.715 35.1422 130.933 32.5346 131.543 32.5346C131.987 32.5346 132.154 32.6456 132.154 32.8675C131.71 33.6442 131.432 34.2545 131.432 34.6429C131.432 37.2504 132.708 38.5265 135.205 38.5265C138.756 38.5265 140.587 36.8066 140.587 33.3113C140.587 30.5373 139.144 29.1503 136.204 29.1503C135.482 29.1503 134.761 29.2058 134.095 29.3723C132.653 29.7606 130.434 31.1476 127.438 33.5887C125.385 35.4196 123.332 37.2504 121.28 39.0813C117.119 30.5928 114.511 25.1558 113.457 22.7701C121.557 17.8324 125.552 12.7282 125.552 7.51309C125.552 2.96372 122.888 0.689026 117.507 0.689026C113.845 0.689026 110.35 2.24248 107.021 5.34937C103.692 8.45626 102.028 11.7851 102.028 15.3913C102.028 17.8324 103.027 21.3831 105.079 26.0989C102.694 27.2085 100.585 28.3736 98.6437 29.5387C98.6437 30.0935 98.6437 30.6483 98.6437 31.2031C100.253 29.927 102.527 28.5401 105.468 27.0976C107.909 33.6442 111.016 39.9135 114.677 45.7944C110.128 50.2328 106.411 52.452 103.526 52.452C100.752 52.452 98.4217 51.1759 96.4799 48.6239C95.7032 47.5697 95.0929 46.4601 94.7046 45.2951C94.2607 45.2951 93.8169 45.2951 93.595 45.2396C93.3176 45.2396 92.9847 45.2396 92.7073 45.2951C92.3189 45.2951 91.8751 45.3505 91.5422 45.3505C89.8778 45.3505 88.5463 44.2964 88.2689 42.7985C88.1024 43.1313 87.936 43.3532 87.825 43.5752C87.4367 44.2964 86.6599 45.5725 85.162 45.8499C85.162 46.0718 85.1065 46.2937 85.1065 46.5156C85.1065 49.567 86.1051 52.2855 88.1024 54.5602C90.0997 56.8349 92.5963 58 95.5923 58C101.085 58 107.631 54.3383 115.343 47.0704C119.615 54.3938 123.665 58 127.549 58C130.545 58 133.485 56.613 136.315 53.839C138.035 52.0636 140.476 48.7903 142.75 45.1841H141.141V45.2396ZM109.906 10.3426C109.906 7.95694 110.738 6.01513 112.347 4.46168C114.012 2.96372 116.009 2.187 118.395 2.187C120.114 2.187 121.501 2.68631 122.5 3.74043C123.499 4.79455 123.998 6.18156 123.998 7.90144C123.998 12.5063 120.336 17.0002 112.958 21.4941C110.96 16.7783 109.906 13.0611 109.906 10.3426Z" fill="#C9CACC"/>
<path d="M11.5399 33.8662C11.5399 36.1963 11.5399 38.9704 11.6508 40.1909C11.7063 40.9676 11.8173 41.5779 12.3166 41.7444C12.5385 41.7998 12.7604 41.8553 12.9823 41.8553C13.2597 41.9108 13.3152 41.9663 13.3152 42.1327C13.3152 42.2992 13.2597 42.4101 12.9823 42.4101C11.8173 42.4101 10.0419 42.2992 9.87546 42.2992C9.7645 42.2992 7.93365 42.4101 7.37885 42.4101C7.15693 42.4101 7.04597 42.3546 7.04597 42.1327C7.04597 41.9108 7.15693 41.8553 7.37885 41.8553C7.54529 41.7998 7.71173 41.7998 7.87817 41.7444C8.26654 41.6334 8.43297 41.245 8.48846 40.1354C8.54394 38.9149 8.59942 36.7512 8.59942 33.8662V31.647C7.65626 32.3127 6.65761 32.4237 5.82541 32.4237C4.32745 32.4237 2.99593 31.647 2.2192 30.149C1.88632 29.4278 1.49796 28.2627 1.49796 25.4887C1.49796 24.2126 1.49796 23.1585 1.44248 22.2154C1.387 21.3832 1.33152 20.8283 0.832202 20.7174C0.610281 20.6064 0.49932 20.6064 0.33288 20.6064C0.0554793 20.551 0 20.3845 0 20.2736C0 20.0516 0.166439 19.9962 0.388359 19.9962C1.33152 19.9962 2.4966 20.1071 2.82949 20.1071C3.21785 20.1071 4.60485 19.9962 5.27061 19.9962C5.54801 19.9962 5.65897 20.1071 5.65897 20.2736C5.65897 20.3845 5.60349 20.551 5.32609 20.6064C4.71581 20.7729 4.54937 20.9948 4.49389 22.3818C4.43841 23.6024 4.43841 24.712 4.43841 25.9325C4.43841 29.3168 5.60349 30.4264 7.10145 30.4264C7.65625 30.4264 8.15558 30.3154 8.59942 30.0935V28.5956C8.59942 23.9907 8.59942 23.1585 8.54394 22.2154C8.48846 21.3832 8.3775 20.8283 7.87817 20.7174C7.71173 20.6619 7.60078 20.6064 7.43434 20.6064C7.21242 20.551 7.10145 20.4955 7.10145 20.2736C7.10145 20.1071 7.21242 19.9962 7.48982 19.9962C8.15558 19.9962 9.7645 20.1071 9.93094 20.1071C10.0974 20.1071 12.0392 19.9962 12.6495 19.9962C12.9269 19.9962 13.0378 20.1071 13.0378 20.2736C13.0378 20.4955 12.9269 20.6064 12.7049 20.6064C12.5385 20.6619 12.3721 20.6619 12.2056 20.7174C11.7618 20.8838 11.6508 21.3277 11.5953 22.2708C11.5399 23.214 11.5399 23.9907 11.5399 28.5956V33.8662Z" fill="black"/>
<path d="M15.9783 42.1327C15.9783 41.9108 16.0892 41.7998 16.2557 41.7998C17.6427 41.7444 18.0865 41.3005 19.0297 39.0813C19.2516 38.5265 19.5845 37.7498 19.6955 37.1395C19.8064 36.8066 19.7509 36.5847 19.64 36.3073C18.8633 33.5888 16.0892 25.1558 15.4235 23.1585C14.7022 21.1057 14.4803 20.7174 13.6481 20.6619C13.4817 20.6619 13.3152 20.4955 13.3152 20.329C13.3152 20.1071 13.4262 20.0516 13.6481 20.0516C14.4248 20.0516 15.7564 20.1626 16.3667 20.1626C16.6441 20.1626 17.9201 20.0516 18.9742 20.0516C19.1407 20.0516 19.2516 20.1626 19.2516 20.329C19.2516 20.4955 19.1407 20.6619 18.9742 20.6619C18.3639 20.7174 18.3085 20.9948 18.3085 21.2722C18.3085 21.4941 18.4194 21.938 18.5859 22.4373C18.7523 22.9921 21.0825 30.7038 21.4153 31.536C22.1921 28.873 23.1907 24.7674 23.6345 22.8811C23.801 22.2153 23.9119 21.6606 23.9119 21.2722C23.9119 20.9393 23.8565 20.7174 23.5236 20.6064C23.3571 20.551 23.2462 20.44 23.2462 20.2736C23.2462 20.0516 23.3571 19.9962 23.6345 19.9962C23.8565 19.9962 24.5222 20.1071 25.1325 20.1071C25.3544 20.1071 26.8524 19.9962 27.1853 19.9962C27.4072 19.9962 27.5182 20.0516 27.5182 20.2736C27.5182 20.4955 27.4072 20.6064 27.1853 20.6064C26.9079 20.6619 26.7969 20.7174 26.575 20.7729C26.0757 20.9948 25.7983 21.4386 25.2435 23.103C24.1339 26.7647 21.9147 35.0867 21.1379 38.1381C20.916 39.0258 20.3057 40.9122 20.3057 41.9663C20.3057 42.1882 20.2503 42.2992 20.1393 42.2992C19.8619 42.3546 17.0879 42.4101 16.3112 42.4101C16.0893 42.4101 15.9783 42.3546 15.9783 42.1327Z" fill="black"/>
<path d="M27.851 38.9149C27.6845 39.6916 27.5736 40.4683 27.5736 40.8012C27.5736 41.356 27.74 41.6334 28.0729 41.6889C28.2948 41.7998 28.4612 41.7998 28.6277 41.7998C28.8496 41.8553 28.9606 41.9663 28.9606 42.0772C28.9606 42.2992 28.8496 42.3546 28.6277 42.3546C27.851 42.3546 27.2962 42.2437 26.4085 42.2437C26.242 42.2437 25.1324 42.3546 24.2447 42.3546C24.0228 42.3546 23.9119 42.2437 23.9119 42.0772C23.9119 41.8553 24.0228 41.7998 24.1893 41.7998C24.4112 41.7444 24.5776 41.7444 24.7441 41.6889C25.3543 41.467 25.6872 40.5793 26.0201 39.1368L30.514 21.2722C30.8469 19.9962 31.0133 19.5523 31.2352 19.5523C31.4017 19.5523 31.5126 19.9407 31.8455 21.0503C32.2894 22.7147 35.1189 34.0326 36.2839 38.5265C36.8387 40.8567 37.2271 41.5224 37.8374 41.6889C38.0038 41.7998 38.2257 41.7998 38.3922 41.7998C38.6141 41.7998 38.7251 41.9108 38.7251 42.0772C38.7251 42.2992 38.6141 42.3546 38.2812 42.3546C36.6168 42.3546 34.7305 42.2992 33.6209 42.2437C33.3435 42.2437 33.2325 42.1327 33.2325 41.9663C33.2325 41.7998 33.3435 41.6889 33.4544 41.6334C33.6209 41.5779 33.7318 41.356 33.6764 41.0786L30.4585 27.5969C30.403 27.375 30.3476 27.4305 30.3476 27.5969L27.851 38.9149Z" fill="black"/>
<path d="M38.5587 31.314C38.5587 25.3777 40.8333 19.6077 45.7711 19.6077C50.043 19.6077 52.7616 24.6564 52.7616 30.6483C52.7616 37.5278 50.0985 42.7984 45.6601 42.7984C40.6669 42.8539 38.5587 36.5846 38.5587 31.314ZM49.3773 31.9798C49.3773 27.0421 48.2122 21.494 45.2163 21.494C43.6628 21.494 41.9429 22.992 41.9429 30.038C41.9429 35.6415 43.2745 40.9676 46.1594 40.9676C47.2136 40.9676 49.3773 40.1354 49.3773 31.9798Z" fill="black"/>
<path d="M65.1336 33.8662C65.1336 36.1963 65.1336 38.9704 65.2446 40.1909C65.3001 40.9676 65.411 41.5779 65.9103 41.7444C66.1323 41.7998 66.3542 41.8553 66.5761 41.8553C66.8535 41.9108 66.909 41.9663 66.909 42.1327C66.909 42.2992 66.8535 42.4101 66.5761 42.4101C65.411 42.4101 63.6357 42.2992 63.4692 42.2992C63.3583 42.2992 61.5274 42.4101 60.9726 42.4101C60.7507 42.4101 60.6397 42.3546 60.6397 42.1327C60.6397 41.9108 60.7507 41.8553 60.9726 41.8553C61.139 41.7998 61.3055 41.7998 61.4719 41.7444C61.8603 41.6334 62.0267 41.245 62.0822 40.1354C62.1377 38.9149 62.1932 36.7512 62.1932 33.8662V31.647C61.25 32.3127 60.2514 32.4237 59.4192 32.4237C57.9212 32.4237 56.5342 31.647 55.813 30.149C55.4801 29.4278 55.0917 28.2627 55.0917 25.4887C55.0917 24.2126 55.0917 23.1585 55.0362 22.2154C54.9808 21.3832 54.9253 20.8283 54.426 20.7174C54.204 20.6064 54.0931 20.6064 53.9266 20.6064C53.6492 20.551 53.5938 20.3845 53.5938 20.2736C53.5938 20.0516 53.7602 19.9962 53.9821 19.9962C54.9253 19.9962 56.0904 20.1071 56.4232 20.1071C56.8116 20.1071 58.1986 19.9962 58.8644 19.9962C59.1418 19.9962 59.2527 20.1071 59.2527 20.2736C59.2527 20.3845 59.1972 20.551 58.9198 20.6064C58.3096 20.7729 58.1431 20.9948 58.0876 22.3818C58.0322 23.6024 58.0322 24.712 58.0322 25.9325C58.0322 29.3168 59.1972 30.4264 60.6952 30.4264C61.25 30.4264 61.7493 30.3154 62.1932 30.0935V28.5956C62.1932 23.9907 62.1932 23.1585 62.1377 22.2154C62.0822 21.3832 61.9713 20.8283 61.4165 20.7174C61.25 20.6619 61.139 20.6064 60.9726 20.6064C60.7507 20.551 60.6397 20.4955 60.6397 20.2736C60.6397 20.1071 60.7507 19.9962 61.0281 19.9962C61.6938 19.9962 63.3028 20.1071 63.4692 20.1071C63.6357 20.1071 65.5775 19.9962 66.1877 19.9962C66.4651 19.9962 66.5761 20.1071 66.5761 20.2736C66.5761 20.4955 66.4651 20.6064 66.2432 20.6064C66.0768 20.6619 65.9103 20.6619 65.7439 20.7174C65.3001 20.8838 65.1891 21.3277 65.1336 22.2708C65.0781 23.214 65.0781 23.9907 65.0781 28.5956V33.8662H65.1336Z" fill="black"/>
<path d="M73.3447 30.4264C74.2879 28.9284 75.6749 26.3764 77.0064 23.7133C77.5612 22.6037 77.8941 21.7715 77.8941 21.2722C77.8941 20.9393 77.8386 20.7729 77.3948 20.6064C77.2283 20.551 77.1174 20.4955 77.1174 20.329C77.1174 20.1626 77.2283 20.0516 77.3948 20.0516C78.1715 20.0516 78.227 20.1071 79.1701 20.1071C80.1688 20.1071 81.3893 20.0516 81.6113 20.0516C81.8887 20.0516 81.9441 20.1071 81.9441 20.329C81.9441 20.4955 81.8332 20.6064 81.6667 20.6064C81.3893 20.6619 81.2784 20.7174 81.0565 20.7729C80.2243 21.0503 79.6695 21.938 78.8927 23.325C78.116 24.601 76.2297 28.0963 75.7858 28.9285C76.4516 30.7593 79.2256 36.6402 80.3907 38.7484C81.3893 40.5793 81.8887 41.1895 82.1661 41.4669C82.4435 41.6889 82.6654 41.7998 82.9428 41.8553C83.1647 41.9108 83.2757 41.9663 83.2757 42.1882C83.2757 42.4101 83.1092 42.4656 82.9428 42.4656H81.2784C79.0592 42.4656 78.2824 42.0772 77.3948 40.4128C76.4516 38.6375 74.6208 34.4765 73.3447 31.2586V33.8662C73.3447 36.1963 73.3447 38.8594 73.4557 40.1354C73.5112 40.8567 73.6221 41.6334 74.1769 41.7444C74.3988 41.7998 74.6762 41.8553 74.8982 41.8553C75.1201 41.8553 75.1756 42.0218 75.1756 42.1327C75.1756 42.2992 75.1201 42.4101 74.8427 42.4101C73.7331 42.4101 71.9022 42.2992 71.7913 42.2992C71.6803 42.2992 69.794 42.4101 69.2392 42.4101C69.0173 42.4101 68.9063 42.3546 68.9063 42.1327C68.9063 41.9108 69.0173 41.8553 69.1837 41.8553C69.3502 41.7998 69.5166 41.7998 69.683 41.7444C70.1823 41.5779 70.2378 40.9122 70.2933 40.0245C70.3488 38.8039 70.4043 36.6957 70.4043 33.8107V28.5956C70.4043 23.9907 70.4043 23.1585 70.3488 22.2154C70.2933 21.3832 70.1269 20.8283 69.7385 20.7174C69.4611 20.6064 69.2392 20.6064 69.0727 20.6064C68.8508 20.6064 68.7399 20.551 68.7399 20.2736C68.7399 20.1071 68.8508 19.9962 69.1837 19.9962C69.905 19.9962 71.6248 20.1071 71.7358 20.1071C71.9022 20.1071 73.955 19.9962 74.5653 19.9962C74.8427 19.9962 74.8982 20.1071 74.8982 20.2736C74.8982 20.4955 74.7872 20.551 74.6208 20.6064C74.4543 20.6619 74.3434 20.6619 74.1214 20.7174C73.5112 20.8838 73.4557 21.5496 73.4002 22.4928C73.3447 23.4359 73.3447 24.0462 73.3447 28.5956V30.4264Z" fill="black"/>
<path d="M87.1592 35.3087C88.5462 32.5347 90.2661 28.9839 90.9874 27.486C91.986 25.4332 92.7073 24.0462 93.5949 22.2708C94.76 19.9962 95.0929 19.6633 95.3703 19.6633C95.5922 19.6633 95.6477 19.9407 95.6477 21.827C95.7032 27.7079 95.6477 33.4778 95.7587 39.3032C95.8141 41.1896 95.8696 41.5224 96.5354 41.7443C96.6463 41.7998 96.9792 41.7998 97.0902 41.8553C97.4231 41.9663 97.4785 42.0218 97.4785 42.1327C97.4785 42.4101 97.3676 42.4101 97.0902 42.4101C96.4244 42.4101 94.0388 42.3546 93.5949 42.2992C92.8737 42.2992 92.097 42.4101 91.4867 42.4101C91.2093 42.4101 91.0983 42.2992 91.0983 42.1327C91.0983 41.9663 91.2093 41.9108 91.4867 41.8553C91.6531 41.7998 91.7641 41.7998 91.9305 41.7443C92.5408 41.6334 92.5963 40.9676 92.6518 39.0258C92.7627 35.8635 92.7073 30.9257 92.7627 27.2086C92.2079 28.3182 91.5976 29.5942 90.71 31.4251C87.4921 37.9162 85.8832 40.9676 85.2729 42.0217C84.7736 42.9094 84.5517 43.0204 84.4407 43.0204C84.2188 43.0204 84.1633 42.5211 84.1633 41.6334C84.1633 37.7498 84.2188 30.4264 84.1633 24.3791C84.1078 21.5496 84.1633 20.8283 83.3866 20.6619C83.2201 20.6064 83.1092 20.6064 82.9427 20.6064C82.7208 20.551 82.6653 20.44 82.6653 20.2736C82.6653 20.0516 82.7763 19.9962 82.9982 19.9962C83.6085 19.9962 85.2729 20.1071 85.6613 20.1071C86.7709 20.0516 87.936 19.9962 88.3798 19.9962C88.6572 19.9962 88.7682 20.0516 88.7682 20.2736C88.7682 20.44 88.6572 20.551 88.4353 20.551C88.2688 20.551 88.0469 20.6064 87.8805 20.6064C87.2147 20.7729 87.1592 21.5496 87.1038 23.9352L87.1592 35.3087Z" fill="black"/>
<path d="M113.068 36.4181C110.96 38.4154 109.185 39.3586 107.742 39.3586C106.91 39.3586 106.244 39.0257 105.69 38.4154C105.135 37.8051 104.857 37.0839 104.857 36.2517C104.857 34.3099 106.633 32.4791 110.239 30.7037C109.684 29.4276 109.407 28.4845 109.407 27.8187C109.407 26.8201 109.851 25.9324 110.738 25.1002C111.626 24.268 112.569 23.8242 113.568 23.8242C115.01 23.8242 115.732 24.4344 115.732 25.655C115.732 27.042 114.622 28.429 112.458 29.7605C112.736 30.4263 113.457 31.8688 114.566 34.1989C115.121 33.6996 115.676 33.2003 116.231 32.701C117.008 32.0352 117.618 31.6469 118.006 31.5359C118.173 31.4804 118.395 31.4804 118.561 31.4804C119.338 31.4804 119.726 31.8688 119.726 32.59C119.726 33.5332 119.227 34.0325 118.284 34.0325C117.618 34.0325 117.285 33.6996 117.285 32.9784C117.285 32.8674 117.34 32.701 117.451 32.4791C117.451 32.4236 117.396 32.3681 117.285 32.3681C117.119 32.3681 116.231 33.0893 114.677 34.5318C115.676 36.4736 116.675 37.4723 117.673 37.4723C118.339 37.4723 119.06 36.9175 119.948 35.7524L120.225 35.9743C119.615 36.9729 119.06 37.6942 118.616 38.138C117.84 38.8593 117.063 39.2476 116.231 39.2476C115.343 39.3586 114.234 38.36 113.068 36.4181ZM112.902 36.0853C111.903 34.4763 111.071 32.8119 110.405 31.0366C109.407 31.5359 108.686 31.9797 108.242 32.4236C107.631 33.0339 107.299 33.8106 107.299 34.7537C107.299 35.5305 107.52 36.2517 108.02 36.862C108.519 37.5277 109.185 37.9161 109.906 37.9161C110.683 37.8606 111.681 37.2503 112.902 36.0853ZM112.403 29.4831C114.4 28.2626 115.399 27.042 115.399 25.8214C115.399 25.3776 115.232 24.9892 115.01 24.7118C114.733 24.4344 114.345 24.268 113.901 24.268C113.235 24.268 112.68 24.4899 112.292 24.8783C111.848 25.2666 111.626 25.8214 111.626 26.4872C111.571 27.2084 111.848 28.2071 112.403 29.4831Z" fill="black"/>
<path d="M135.371 29.0948C135.427 29.0948 135.482 29.0394 135.482 28.8729V28.2626C135.482 23.6578 135.482 23.1585 135.427 22.2153C135.371 21.3831 135.261 20.8283 134.706 20.6618C134.595 20.6064 134.317 20.6064 134.095 20.5509C133.873 20.5509 133.763 20.3845 133.763 20.2735C133.763 20.1071 133.873 19.9961 134.095 19.9961C135.094 19.9961 136.592 20.107 136.758 20.107C136.925 20.107 138.867 19.9961 139.588 19.9961C139.865 19.9961 139.921 20.1071 139.921 20.2735C139.921 20.4399 139.81 20.5509 139.643 20.5509C139.366 20.6064 139.255 20.6064 139.033 20.6618C138.589 20.7728 138.478 21.2721 138.423 22.2153C138.367 23.1585 138.367 23.9352 138.367 28.54V33.7552C138.367 36.5846 138.367 38.7484 138.478 40.0244C138.534 41.0231 138.645 41.5224 139.144 41.6333C139.366 41.6888 139.699 41.7443 139.865 41.7443C140.087 41.7443 140.143 41.9107 140.143 42.0217C140.143 42.2436 140.032 42.2991 139.81 42.2991C138.645 42.2991 136.925 42.1881 136.648 42.1881C136.37 42.1881 135.039 42.2991 134.206 42.2991C133.929 42.2991 133.818 42.1327 133.818 41.9662C133.818 41.7998 133.929 41.6888 134.151 41.6888C134.317 41.6333 134.539 41.6333 134.65 41.5779C135.039 41.4114 135.15 40.8566 135.205 39.9135C135.26 38.6929 135.316 36.8066 135.316 33.9771V31.5914C135.316 31.4805 135.26 31.425 135.205 31.425H129.934C129.879 31.425 129.823 31.4805 129.823 31.5914V34.6983C129.823 37.5278 129.823 38.7484 129.934 40.0244C129.99 40.8566 130.156 41.4669 130.656 41.5779C130.989 41.6888 131.155 41.6888 131.377 41.7443C131.543 41.7443 131.71 41.8553 131.71 42.0217C131.71 42.1881 131.599 42.2991 131.377 42.2991C130.434 42.2991 128.436 42.1881 128.27 42.1881C128.104 42.1881 126.328 42.2991 125.829 42.2991C125.662 42.2991 125.441 42.2436 125.441 42.0217C125.441 41.7998 125.496 41.6888 125.718 41.6888C125.94 41.6333 125.995 41.6333 126.217 41.5779C126.606 41.4669 126.772 40.7457 126.828 39.858C126.883 38.6374 126.938 36.5292 126.938 33.7552V28.5955C126.938 23.9907 126.938 23.3249 126.883 22.3817C126.828 21.3276 126.661 20.7728 126.051 20.6618C125.829 20.6064 125.773 20.6064 125.551 20.5509C125.274 20.4954 125.219 20.3845 125.219 20.218C125.219 19.9961 125.385 19.9406 125.607 19.9406C126.606 19.9406 127.882 20.0516 128.27 20.0516C128.936 20.0516 130.323 19.9406 131.044 19.9406C131.321 19.9406 131.377 20.0516 131.377 20.218C131.377 20.3845 131.266 20.4954 131.099 20.4954C130.878 20.5509 130.656 20.5509 130.489 20.6064C130.045 20.7728 129.934 21.4386 129.934 22.3263C129.879 23.2694 129.879 24.49 129.879 28.2071V28.8174C129.879 28.9839 129.934 29.0393 129.99 29.0393H135.371V29.0948Z" fill="black"/>
</svg>
