<svg width="40" height="40" viewBox="0 0 40 40" fill="none" xmlns="http://www.w3.org/2000/svg">
<rect width="40" height="40" rx="20" fill="#A6241F"/>
<path d="M31.03 14.9494C31.1919 14.4025 31.03 14 30.2512 14H27.6744C27.0181 14 26.7162 14.3456 26.5544 14.7306C26.5544 14.7306 25.2419 17.9287 23.3869 20.0025C22.7875 20.6019 22.5119 20.7944 22.1837 20.7944C22.0219 20.7944 21.7725 20.6019 21.7725 20.055V14.9494C21.7725 14.2931 21.5887 14 21.0462 14H16.995C16.5837 14 16.3387 14.3063 16.3387 14.5906C16.3387 15.2119 17.2662 15.3562 17.3625 17.1063V20.9037C17.3625 21.735 17.2137 21.8881 16.8856 21.8881C16.0106 21.8881 13.8844 18.6769 12.6244 15.0019C12.3706 14.2888 12.1212 14 11.4606 14H8.88375C8.14875 14 8 14.3456 8 14.7306C8 15.4131 8.875 18.8038 12.0731 23.2838C14.2037 26.3419 17.205 28 19.935 28C21.5756 28 21.7769 27.6325 21.7769 26.9981C21.7769 24.0756 21.6281 23.8 22.4506 23.8C22.8312 23.8 23.4875 23.9925 25.0187 25.4669C26.7687 27.2169 27.0575 28 28.0375 28H30.6144C31.3494 28 31.7213 27.6325 31.5069 26.9062C31.0169 25.3794 27.705 22.2381 27.5562 22.0281C27.1756 21.5381 27.285 21.3194 27.5562 20.8819C27.5606 20.8775 30.7063 16.45 31.03 14.9494Z" fill="white"/>
</svg>
